M48
; DRILL file {KiCad 7.0.1} date Sun Mar 26 22:59:02 2023
; FORMAT={-:-/ absolute / inch / decimal}
; #@! TF.CreationDate,2023-03-26T22:59:02-07:00
; #@! TF.GenerationSoftware,Kicad,Pcbnew,7.0.1
; #@! TF.FileFunction,Plated,1,2,PTH
FMAT,2
INCH
; #@! TA.AperFunction,Plated,PTH,ComponentDrill
T1C0.0138
; #@! TA.AperFunction,Plated,PTH,ViaDrill
T2C0.0157
; #@! TA.AperFunction,Plated,PTH,ComponentDrill
T3C0.0236
; #@! TA.AperFunction,Plated,PTH,ComponentDrill
T4C0.0394
; #@! TA.AperFunction,Plated,PTH,ComponentDrill
T5C0.0600
%
G90
G05
T1
X11.8558Y-3.6058
X11.8558Y-3.656
X11.8558Y-3.7062
X11.906Y-3.6058
X11.906Y-3.656
X11.906Y-3.7062
X11.9562Y-3.6058
X11.9562Y-3.656
X11.9562Y-3.7062
T2
X5.2047Y-4.4512
X7.4007Y-1.2759
X7.4007Y-1.3156
X7.4007Y-1.3558
X7.4007Y-1.6924
X7.4007Y-1.781
X7.4007Y-1.8696
X7.4007Y-1.909
X7.4007Y-1.9483
X7.4893Y-1.4584
X7.5629Y-1.6184
X7.6003Y-1.4978
X7.6003Y-1.781
X7.6003Y-1.9877
X7.631Y-4.5645
X7.6594Y-1.4978
X7.7185Y-1.4978
X7.7185Y-1.781
X7.7185Y-1.9877
X7.7559Y-1.6184
X7.8295Y-1.4584
X7.9181Y-1.2771
X7.9181Y-1.3156
X7.9181Y-1.3558
X7.9181Y-1.6924
X7.9181Y-1.781
X7.9181Y-1.8696
X7.9181Y-1.909
X7.9181Y-1.9483
X10.9968Y-4.2835
X11.0906Y-2.7835
X11.3082Y-2.8219
X11.3082Y-2.9006
X11.497Y-2.8219
X11.497Y-2.9006
X11.5891Y-3.4026
X11.5891Y-3.4419
X11.5891Y-3.4813
X11.5891Y-3.5207
X11.5891Y-3.6954
X11.608Y-4.0893
X11.6473Y-4.0893
X11.6867Y-4.0893
X11.7056Y-3.5207
X11.7682Y-3.2999
X11.7791Y-4.0893
X11.8076Y-3.2999
X11.8469Y-3.206
X11.8509Y-3.8346
X11.8863Y-3.206
X11.9257Y-3.206
X11.9651Y-3.206
X11.9946Y-4.0893
X12.0044Y-3.2999
X12.0281Y-2.596
X12.0438Y-3.2999
X12.1064Y-3.5207
X12.2229Y-3.5207
X12.2229Y-3.6954
X12.656Y-2.9388
X12.656Y-3.0908
X12.656Y-3.1286
X12.7781Y-4.2835
T4
X12.3804Y-2.0576
X12.3804Y-2.2544
X12.9513Y-2.0576
X12.9513Y-2.156
X12.9513Y-2.2544
X13.3076Y-1.5054
X13.3076Y-2.0763
X13.406Y-2.0763
X13.5044Y-1.5054
X13.5044Y-2.0763
T5
X1.8185Y-2.6185
X1.9123Y-3.3685
X1.9123Y-4.8685
X2.0685Y-2.5185
X2.0998Y-4.1185
X2.1623Y-3.2685
X2.1623Y-4.7685
X2.3498Y-4.0185
X2.5685Y-1.8685
X2.5685Y-2.6185
X2.756Y-3.3685
X2.8185Y-1.7685
X2.8185Y-2.5185
X2.8498Y-4.8685
X3.006Y-3.2685
X3.0998Y-4.7685
X3.131Y-4.1185
X3.3185Y-1.8685
X3.3185Y-2.6185
X3.381Y-4.0185
X3.506Y-3.3685
X3.5685Y-1.7685
X3.5685Y-2.5185
X3.756Y-3.2685
X3.7873Y-4.8685
X3.881Y-4.1185
X4.0373Y-4.7685
X4.0685Y-1.8685
X4.0685Y-2.6185
X4.131Y-4.0185
X4.256Y-3.3685
X4.3185Y-1.7685
X4.3185Y-2.5185
X4.506Y-3.2685
X4.631Y-4.1185
X4.8185Y-1.8685
X4.8185Y-2.6185
X4.881Y-4.0185
X5.006Y-3.3685
X5.0685Y-1.7685
X5.0685Y-2.5185
X5.256Y-3.2685
X5.381Y-4.1185
X5.5685Y-1.8685
X5.5685Y-2.6185
X5.631Y-4.0185
X5.756Y-3.3685
X5.8185Y-1.7685
X5.8185Y-2.5185
X6.006Y-3.2685
X6.131Y-4.1185
X6.3185Y-1.8685
X6.3185Y-2.6185
X6.381Y-4.0185
X6.506Y-3.3685
X6.5685Y-1.7685
X6.5685Y-2.5185
X6.5998Y-4.8685
X6.756Y-3.2685
X6.8498Y-4.7685
X6.881Y-4.1185
X7.0685Y-2.6185
X7.131Y-4.0185
X7.256Y-3.3685
X7.3185Y-2.5185
X7.506Y-3.2685
X7.631Y-4.1185
X7.8185Y-2.6185
X7.881Y-4.0185
X8.006Y-3.3685
X8.0685Y-2.5185
X8.256Y-3.2685
X8.381Y-4.1185
X8.5685Y-1.681
X8.5685Y-2.6185
X8.631Y-4.0185
X8.756Y-3.3685
X8.8185Y-1.581
X8.8185Y-2.5185
X9.006Y-3.2685
X9.131Y-4.1185
X9.3185Y-1.681
X9.3185Y-2.6185
X9.3185Y-4.8685
X9.381Y-4.0185
X9.506Y-3.3685
X9.5685Y-1.581
X9.5685Y-2.5185
X9.5685Y-4.7685
X9.756Y-3.2685
X9.881Y-4.1185
X10.0685Y-1.681
X10.0685Y-2.6185
X10.0685Y-4.8685
X10.131Y-4.0185
X10.3185Y-1.581
X10.3185Y-2.5185
X10.3185Y-4.7685
X10.5373Y-3.3685
X10.7248Y-4.1185
X10.7873Y-3.2685
X10.8185Y-1.681
X10.8185Y-2.6185
X10.8185Y-4.8685
X10.9748Y-4.0185
X11.0685Y-1.581
X11.0685Y-2.5185
X11.0685Y-4.7685
X11.756Y-1.681
X11.756Y-2.431
X11.756Y-4.8685
X12.006Y-1.581
X12.006Y-2.331
X12.006Y-4.7685
X12.506Y-1.681
X12.506Y-2.431
X12.506Y-4.1185
X12.506Y-4.8685
X12.756Y-1.581
X12.756Y-2.331
X12.756Y-4.0185
X12.756Y-4.7685
X13.256Y-1.681
X13.256Y-2.431
X13.256Y-4.8685
X13.506Y-1.581
X13.506Y-2.331
X13.506Y-4.7685
T3
G00X7.4893Y-1.2072
M15
G01X7.4893Y-1.2308
M16
G05
G00X7.4893Y-1.3619
M15
G01X7.4893Y-1.4052
M16
G05
G00X7.8295Y-1.2072
M15
G01X7.8295Y-1.2308
M16
G05
G00X7.8295Y-1.3619
M15
G01X7.8295Y-1.4052
M16
G05
T0
M30
