%TF.GenerationSoftware,KiCad,Pcbnew,7.0.1*%
%TF.CreationDate,2023-03-26T22:58:25-07:00*%
%TF.ProjectId,40s-2040rmie,3430732d-3230-4343-9072-6d69652e6b69,rev?*%
%TF.SameCoordinates,Original*%
%TF.FileFunction,Legend,Top*%
%TF.FilePolarity,Positive*%
%FSLAX46Y46*%
G04 Gerber Fmt 4.6, Leading zero omitted, Abs format (unit mm)*
G04 Created by KiCad (PCBNEW 7.0.1) date 2023-03-26 22:58:25*
%MOMM*%
%LPD*%
G01*
G04 APERTURE LIST*
%ADD10C,0.200000*%
%ADD11C,1.750000*%
%ADD12C,3.987800*%
%ADD13C,3.048000*%
%ADD14O,1.000000X2.100000*%
%ADD15O,1.000000X1.600000*%
%ADD16C,0.650000*%
G04 APERTURE END LIST*
D10*
X338973809Y-49137069D02*
X338699999Y-48660878D01*
X338402380Y-49137069D02*
X338527380Y-48137069D01*
X338527380Y-48137069D02*
X338908333Y-48137069D01*
X338908333Y-48137069D02*
X338997618Y-48184688D01*
X338997618Y-48184688D02*
X339039285Y-48232307D01*
X339039285Y-48232307D02*
X339074999Y-48327545D01*
X339074999Y-48327545D02*
X339057142Y-48470402D01*
X339057142Y-48470402D02*
X338997618Y-48565640D01*
X338997618Y-48565640D02*
X338944047Y-48613259D01*
X338944047Y-48613259D02*
X338842857Y-48660878D01*
X338842857Y-48660878D02*
X338461904Y-48660878D01*
X339539286Y-49137069D02*
X339450000Y-49089450D01*
X339450000Y-49089450D02*
X339408333Y-49041830D01*
X339408333Y-49041830D02*
X339372619Y-48946592D01*
X339372619Y-48946592D02*
X339408333Y-48660878D01*
X339408333Y-48660878D02*
X339467857Y-48565640D01*
X339467857Y-48565640D02*
X339521428Y-48518021D01*
X339521428Y-48518021D02*
X339622619Y-48470402D01*
X339622619Y-48470402D02*
X339765476Y-48470402D01*
X339765476Y-48470402D02*
X339854762Y-48518021D01*
X339854762Y-48518021D02*
X339896428Y-48565640D01*
X339896428Y-48565640D02*
X339932143Y-48660878D01*
X339932143Y-48660878D02*
X339896428Y-48946592D01*
X339896428Y-48946592D02*
X339836905Y-49041830D01*
X339836905Y-49041830D02*
X339783333Y-49089450D01*
X339783333Y-49089450D02*
X339682143Y-49137069D01*
X339682143Y-49137069D02*
X339539286Y-49137069D01*
X340235715Y-48470402D02*
X340616667Y-48470402D01*
X340420238Y-48137069D02*
X340313096Y-48994211D01*
X340313096Y-48994211D02*
X340348810Y-49089450D01*
X340348810Y-49089450D02*
X340438096Y-49137069D01*
X340438096Y-49137069D02*
X340533334Y-49137069D01*
X341289286Y-49137069D02*
X341354762Y-48613259D01*
X341354762Y-48613259D02*
X341319048Y-48518021D01*
X341319048Y-48518021D02*
X341229762Y-48470402D01*
X341229762Y-48470402D02*
X341039286Y-48470402D01*
X341039286Y-48470402D02*
X340938095Y-48518021D01*
X341295238Y-49089450D02*
X341194048Y-49137069D01*
X341194048Y-49137069D02*
X340955952Y-49137069D01*
X340955952Y-49137069D02*
X340866667Y-49089450D01*
X340866667Y-49089450D02*
X340830952Y-48994211D01*
X340830952Y-48994211D02*
X340842857Y-48898973D01*
X340842857Y-48898973D02*
X340902381Y-48803735D01*
X340902381Y-48803735D02*
X341003572Y-48756116D01*
X341003572Y-48756116D02*
X341241667Y-48756116D01*
X341241667Y-48756116D02*
X341342857Y-48708497D01*
X341759524Y-49137069D02*
X341842858Y-48470402D01*
X341819048Y-48660878D02*
X341878572Y-48565640D01*
X341878572Y-48565640D02*
X341932143Y-48518021D01*
X341932143Y-48518021D02*
X342033334Y-48470402D01*
X342033334Y-48470402D02*
X342128572Y-48470402D01*
X342360715Y-48470402D02*
X342515477Y-49137069D01*
X342836905Y-48470402D02*
X342515477Y-49137069D01*
X342515477Y-49137069D02*
X342390477Y-49375164D01*
X342390477Y-49375164D02*
X342336905Y-49422783D01*
X342336905Y-49422783D02*
X342235715Y-49470402D01*
X337854762Y-50233259D02*
X338188095Y-50233259D01*
X338265476Y-50757069D02*
X337789285Y-50757069D01*
X337789285Y-50757069D02*
X337914285Y-49757069D01*
X337914285Y-49757069D02*
X338390476Y-49757069D01*
X338771429Y-50090402D02*
X338688095Y-50757069D01*
X338759524Y-50185640D02*
X338813095Y-50138021D01*
X338813095Y-50138021D02*
X338914286Y-50090402D01*
X338914286Y-50090402D02*
X339057143Y-50090402D01*
X339057143Y-50090402D02*
X339146429Y-50138021D01*
X339146429Y-50138021D02*
X339182143Y-50233259D01*
X339182143Y-50233259D02*
X339116667Y-50757069D01*
X340021429Y-50709450D02*
X339920239Y-50757069D01*
X339920239Y-50757069D02*
X339729763Y-50757069D01*
X339729763Y-50757069D02*
X339640477Y-50709450D01*
X339640477Y-50709450D02*
X339598810Y-50661830D01*
X339598810Y-50661830D02*
X339563096Y-50566592D01*
X339563096Y-50566592D02*
X339598810Y-50280878D01*
X339598810Y-50280878D02*
X339658334Y-50185640D01*
X339658334Y-50185640D02*
X339711905Y-50138021D01*
X339711905Y-50138021D02*
X339813096Y-50090402D01*
X339813096Y-50090402D02*
X340003572Y-50090402D01*
X340003572Y-50090402D02*
X340092858Y-50138021D01*
X340580953Y-50757069D02*
X340491667Y-50709450D01*
X340491667Y-50709450D02*
X340450000Y-50661830D01*
X340450000Y-50661830D02*
X340414286Y-50566592D01*
X340414286Y-50566592D02*
X340450000Y-50280878D01*
X340450000Y-50280878D02*
X340509524Y-50185640D01*
X340509524Y-50185640D02*
X340563095Y-50138021D01*
X340563095Y-50138021D02*
X340664286Y-50090402D01*
X340664286Y-50090402D02*
X340807143Y-50090402D01*
X340807143Y-50090402D02*
X340896429Y-50138021D01*
X340896429Y-50138021D02*
X340938095Y-50185640D01*
X340938095Y-50185640D02*
X340973810Y-50280878D01*
X340973810Y-50280878D02*
X340938095Y-50566592D01*
X340938095Y-50566592D02*
X340878572Y-50661830D01*
X340878572Y-50661830D02*
X340825000Y-50709450D01*
X340825000Y-50709450D02*
X340723810Y-50757069D01*
X340723810Y-50757069D02*
X340580953Y-50757069D01*
X341765477Y-50757069D02*
X341890477Y-49757069D01*
X341771429Y-50709450D02*
X341670239Y-50757069D01*
X341670239Y-50757069D02*
X341479763Y-50757069D01*
X341479763Y-50757069D02*
X341390477Y-50709450D01*
X341390477Y-50709450D02*
X341348810Y-50661830D01*
X341348810Y-50661830D02*
X341313096Y-50566592D01*
X341313096Y-50566592D02*
X341348810Y-50280878D01*
X341348810Y-50280878D02*
X341408334Y-50185640D01*
X341408334Y-50185640D02*
X341461905Y-50138021D01*
X341461905Y-50138021D02*
X341563096Y-50090402D01*
X341563096Y-50090402D02*
X341753572Y-50090402D01*
X341753572Y-50090402D02*
X341842858Y-50138021D01*
X342622620Y-50709450D02*
X342521430Y-50757069D01*
X342521430Y-50757069D02*
X342330953Y-50757069D01*
X342330953Y-50757069D02*
X342241668Y-50709450D01*
X342241668Y-50709450D02*
X342205953Y-50614211D01*
X342205953Y-50614211D02*
X342253573Y-50233259D01*
X342253573Y-50233259D02*
X342313096Y-50138021D01*
X342313096Y-50138021D02*
X342414287Y-50090402D01*
X342414287Y-50090402D02*
X342604763Y-50090402D01*
X342604763Y-50090402D02*
X342694049Y-50138021D01*
X342694049Y-50138021D02*
X342729763Y-50233259D01*
X342729763Y-50233259D02*
X342717858Y-50328497D01*
X342717858Y-50328497D02*
X342229763Y-50423735D01*
X343086905Y-50757069D02*
X343170239Y-50090402D01*
X343146429Y-50280878D02*
X343205953Y-50185640D01*
X343205953Y-50185640D02*
X343259524Y-50138021D01*
X343259524Y-50138021D02*
X343360715Y-50090402D01*
X343360715Y-50090402D02*
X343455953Y-50090402D01*
%LPC*%
D11*
%TO.C,MX4-5*%
X166363750Y-126200000D03*
D12*
X171443750Y-126200000D03*
D11*
X176523750Y-126200000D03*
%TD*%
D12*
%TO.C,ST-0*%
X221450000Y-117945000D03*
D13*
X121437500Y-133185000D03*
X221450000Y-133185000D03*
D12*
X121437500Y-117945000D03*
%TD*%
D11*
%TO.C,MX4-15*%
X345592500Y-126200000D03*
D12*
X340512500Y-126200000D03*
D11*
X335432500Y-126200000D03*
%TD*%
%TO.C,MX4-14*%
X326542500Y-126200000D03*
D12*
X321462500Y-126200000D03*
D11*
X316382500Y-126200000D03*
%TD*%
%TO.C,MX4-13*%
X307492500Y-126200000D03*
D12*
X302412500Y-126200000D03*
D11*
X297332500Y-126200000D03*
%TD*%
%TO.C,MX4-11*%
X283680000Y-126200000D03*
D12*
X278600000Y-126200000D03*
D11*
X273520000Y-126200000D03*
%TD*%
%TO.C,MX4-10*%
X264630000Y-126200000D03*
D12*
X259550000Y-126200000D03*
D11*
X254470000Y-126200000D03*
%TD*%
%TO.C,MX4-9*%
X245580000Y-126200000D03*
D12*
X240500000Y-126200000D03*
D11*
X235420000Y-126200000D03*
%TD*%
%TO.C,MX4-2*%
X94926250Y-126200000D03*
D12*
X100006250Y-126200000D03*
D11*
X105086250Y-126200000D03*
%TD*%
%TO.C,MX4-1*%
X81273750Y-126200000D03*
D12*
X76193750Y-126200000D03*
D11*
X71113750Y-126200000D03*
%TD*%
%TO.C,MX4-0*%
X57461250Y-126200000D03*
D12*
X52381250Y-126200000D03*
D11*
X47301250Y-126200000D03*
%TD*%
%TO.C,MX3-14*%
X326542500Y-107150000D03*
D12*
X321462500Y-107150000D03*
D11*
X316382500Y-107150000D03*
%TD*%
%TO.C,MX3-11*%
X281298750Y-107150000D03*
D12*
X276218750Y-107150000D03*
D11*
X271138750Y-107150000D03*
%TD*%
%TO.C,MX3-10*%
X259867500Y-107150000D03*
D12*
X254787500Y-107150000D03*
D11*
X249707500Y-107150000D03*
%TD*%
%TO.C,MX3-9*%
X240817500Y-107150000D03*
D12*
X235737500Y-107150000D03*
D11*
X230657500Y-107150000D03*
%TD*%
%TO.C,MX3-8*%
X221767500Y-107150000D03*
D12*
X216687500Y-107150000D03*
D11*
X211607500Y-107150000D03*
%TD*%
%TO.C,MX3-7*%
X202717500Y-107150000D03*
D12*
X197637500Y-107150000D03*
D11*
X192557500Y-107150000D03*
%TD*%
%TO.C,MX3-6*%
X183667500Y-107150000D03*
D12*
X178587500Y-107150000D03*
D11*
X173507500Y-107150000D03*
%TD*%
%TO.C,MX3-5*%
X164617500Y-107150000D03*
D12*
X159537500Y-107150000D03*
D11*
X154457500Y-107150000D03*
%TD*%
%TO.C,MX3-4*%
X145567500Y-107150000D03*
D12*
X140487500Y-107150000D03*
D11*
X135407500Y-107150000D03*
%TD*%
%TO.C,MX3-3*%
X126517500Y-107150000D03*
D12*
X121437500Y-107150000D03*
D11*
X116357500Y-107150000D03*
%TD*%
%TO.C,MX3-2*%
X107467500Y-107150000D03*
D12*
X102387500Y-107150000D03*
D11*
X97307500Y-107150000D03*
%TD*%
%TO.C,MX3-1*%
X88417500Y-107150000D03*
D12*
X83337500Y-107150000D03*
D11*
X78257500Y-107150000D03*
%TD*%
%TO.C,MX3-0*%
X52063750Y-107150000D03*
D12*
X57143750Y-107150000D03*
D11*
X62223750Y-107150000D03*
%TD*%
%TO.C,MX2-11*%
X266376250Y-88100000D03*
D12*
X271456250Y-88100000D03*
D11*
X276536250Y-88100000D03*
%TD*%
%TO.C,MX2-10*%
X250342500Y-88100000D03*
D12*
X245262500Y-88100000D03*
D11*
X240182500Y-88100000D03*
%TD*%
%TO.C,MX2-9*%
X231292500Y-88100000D03*
D12*
X226212500Y-88100000D03*
D11*
X221132500Y-88100000D03*
%TD*%
%TO.C,MX2-8*%
X212242500Y-88100000D03*
D12*
X207162500Y-88100000D03*
D11*
X202082500Y-88100000D03*
%TD*%
%TO.C,MX2-7*%
X193192500Y-88100000D03*
D12*
X188112500Y-88100000D03*
D11*
X183032500Y-88100000D03*
%TD*%
%TO.C,MX2-6*%
X174142500Y-88100000D03*
D12*
X169062500Y-88100000D03*
D11*
X163982500Y-88100000D03*
%TD*%
%TO.C,MX2-5*%
X155092500Y-88100000D03*
D12*
X150012500Y-88100000D03*
D11*
X144932500Y-88100000D03*
%TD*%
%TO.C,MX2-4*%
X136042500Y-88100000D03*
D12*
X130962500Y-88100000D03*
D11*
X125882500Y-88100000D03*
%TD*%
%TO.C,MX2-3*%
X116992500Y-88100000D03*
D12*
X111912500Y-88100000D03*
D11*
X106832500Y-88100000D03*
%TD*%
%TO.C,MX2-2*%
X97942500Y-88100000D03*
D12*
X92862500Y-88100000D03*
D11*
X87782500Y-88100000D03*
%TD*%
%TO.C,MX2-1*%
X78892500Y-88100000D03*
D12*
X73812500Y-88100000D03*
D11*
X68732500Y-88100000D03*
%TD*%
%TO.C,MX2-0*%
X57461250Y-88100000D03*
D12*
X52381250Y-88100000D03*
D11*
X47301250Y-88100000D03*
%TD*%
%TO.C,MX1-15*%
X345592500Y-64287500D03*
D12*
X340512500Y-64287500D03*
D11*
X335432500Y-64287500D03*
%TD*%
%TO.C,MX1-14*%
X326542500Y-64287500D03*
D12*
X321462500Y-64287500D03*
D11*
X316382500Y-64287500D03*
%TD*%
%TO.C,MX1-13*%
X307492500Y-64287500D03*
D12*
X302412500Y-64287500D03*
D11*
X297332500Y-64287500D03*
%TD*%
%TO.C,MX1-12*%
X283680000Y-69050000D03*
D12*
X278600000Y-69050000D03*
D11*
X273520000Y-69050000D03*
%TD*%
%TO.C,MX1-11*%
X264630000Y-69050000D03*
D12*
X259550000Y-69050000D03*
D11*
X254470000Y-69050000D03*
%TD*%
%TO.C,MX1-10*%
X245580000Y-69050000D03*
D12*
X240500000Y-69050000D03*
D11*
X235420000Y-69050000D03*
%TD*%
%TO.C,MX1-9*%
X226530000Y-69050000D03*
D12*
X221450000Y-69050000D03*
D11*
X216370000Y-69050000D03*
%TD*%
%TO.C,MX1-8*%
X207480000Y-69050000D03*
D12*
X202400000Y-69050000D03*
D11*
X197320000Y-69050000D03*
%TD*%
%TO.C,MX1-7*%
X188430000Y-69050000D03*
D12*
X183350000Y-69050000D03*
D11*
X178270000Y-69050000D03*
%TD*%
%TO.C,MX1-6*%
X169380000Y-69050000D03*
D12*
X164300000Y-69050000D03*
D11*
X159220000Y-69050000D03*
%TD*%
%TO.C,MX1-5*%
X150330000Y-69050000D03*
D12*
X145250000Y-69050000D03*
D11*
X140170000Y-69050000D03*
%TD*%
%TO.C,MX1-4*%
X131280000Y-69050000D03*
D12*
X126200000Y-69050000D03*
D11*
X121120000Y-69050000D03*
%TD*%
%TO.C,MX1-3*%
X112230000Y-69050000D03*
D12*
X107150000Y-69050000D03*
D11*
X102070000Y-69050000D03*
%TD*%
%TO.C,MX1-2*%
X93180000Y-69050000D03*
D12*
X88100000Y-69050000D03*
D11*
X83020000Y-69050000D03*
%TD*%
%TO.C,MX1-1*%
X74130000Y-69050000D03*
D12*
X69050000Y-69050000D03*
D11*
X63970000Y-69050000D03*
%TD*%
%TO.C,MX1-0*%
X55080000Y-69050000D03*
D12*
X50000000Y-69050000D03*
D11*
X44920000Y-69050000D03*
%TD*%
%TO.C,MX0-15*%
X345592500Y-45237500D03*
D12*
X340512500Y-45237500D03*
D11*
X335432500Y-45237500D03*
%TD*%
%TO.C,MX0-14*%
X326542500Y-45237500D03*
D12*
X321462500Y-45237500D03*
D11*
X316382500Y-45237500D03*
%TD*%
%TO.C,MX0-13*%
X307492500Y-45237500D03*
D12*
X302412500Y-45237500D03*
D11*
X297332500Y-45237500D03*
%TD*%
%TO.C,MX0-12*%
X283680000Y-45237500D03*
D12*
X278600000Y-45237500D03*
D11*
X273520000Y-45237500D03*
%TD*%
%TO.C,MX0-11*%
X264630000Y-45237500D03*
D12*
X259550000Y-45237500D03*
D11*
X254470000Y-45237500D03*
%TD*%
%TO.C,MX0-10*%
X245580000Y-45237500D03*
D12*
X240500000Y-45237500D03*
D11*
X235420000Y-45237500D03*
%TD*%
%TO.C,MX0-9*%
X226530000Y-45237500D03*
D12*
X221450000Y-45237500D03*
D11*
X216370000Y-45237500D03*
%TD*%
%TO.C,MX0-6*%
X169380000Y-50000000D03*
D12*
X164300000Y-50000000D03*
D11*
X159220000Y-50000000D03*
%TD*%
%TO.C,MX0-5*%
X150330000Y-50000000D03*
D12*
X145250000Y-50000000D03*
D11*
X140170000Y-50000000D03*
%TD*%
%TO.C,MX0-4*%
X131280000Y-50000000D03*
D12*
X126200000Y-50000000D03*
D11*
X121120000Y-50000000D03*
%TD*%
%TO.C,MX0-3*%
X112230000Y-50000000D03*
D12*
X107150000Y-50000000D03*
D11*
X102070000Y-50000000D03*
%TD*%
%TO.C,MX0-2*%
X93180000Y-50000000D03*
D12*
X88100000Y-50000000D03*
D11*
X83020000Y-50000000D03*
%TD*%
%TO.C,MX0-1*%
X74130000Y-50000000D03*
D12*
X69050000Y-50000000D03*
D11*
X63970000Y-50000000D03*
%TD*%
D14*
%TO.C,USB1*%
X198868750Y-35142500D03*
D15*
X198868750Y-30962500D03*
D14*
X190228750Y-35142500D03*
D15*
X190228750Y-30962500D03*
D16*
X197438750Y-34612500D03*
X191658750Y-34612500D03*
%TD*%
M02*
