%TF.GenerationSoftware,KiCad,Pcbnew,7.0.1*%
%TF.CreationDate,2023-03-26T22:58:25-07:00*%
%TF.ProjectId,40s-2040rmie,3430732d-3230-4343-9072-6d69652e6b69,rev?*%
%TF.SameCoordinates,Original*%
%TF.FileFunction,Legend,Bot*%
%TF.FilePolarity,Positive*%
%FSLAX46Y46*%
G04 Gerber Fmt 4.6, Leading zero omitted, Abs format (unit mm)*
G04 Created by KiCad (PCBNEW 7.0.1) date 2023-03-26 22:58:25*
%MOMM*%
%LPD*%
G01*
G04 APERTURE LIST*
G04 Aperture macros list*
%AMRoundRect*
0 Rectangle with rounded corners*
0 $1 Rounding radius*
0 $2 $3 $4 $5 $6 $7 $8 $9 X,Y pos of 4 corners*
0 Add a 4 corners polygon primitive as box body*
4,1,4,$2,$3,$4,$5,$6,$7,$8,$9,$2,$3,0*
0 Add four circle primitives for the rounded corners*
1,1,$1+$1,$2,$3*
1,1,$1+$1,$4,$5*
1,1,$1+$1,$6,$7*
1,1,$1+$1,$8,$9*
0 Add four rect primitives between the rounded corners*
20,1,$1+$1,$2,$3,$4,$5,0*
20,1,$1+$1,$4,$5,$6,$7,0*
20,1,$1+$1,$6,$7,$8,$9,0*
20,1,$1+$1,$8,$9,$2,$3,0*%
G04 Aperture macros list end*
%ADD10C,0.200000*%
%ADD11C,0.120000*%
%ADD12C,2.300000*%
%ADD13C,1.750000*%
%ADD14C,3.987800*%
%ADD15C,3.048000*%
%ADD16C,2.000000*%
%ADD17RoundRect,0.140000X-0.140000X-0.170000X0.140000X-0.170000X0.140000X0.170000X-0.140000X0.170000X0*%
%ADD18R,1.200000X0.900000*%
%ADD19RoundRect,0.135000X0.185000X-0.135000X0.185000X0.135000X-0.185000X0.135000X-0.185000X-0.135000X0*%
%ADD20RoundRect,0.140000X0.140000X0.170000X-0.140000X0.170000X-0.140000X-0.170000X0.140000X-0.170000X0*%
%ADD21RoundRect,0.200000X-0.335876X-0.053033X-0.053033X-0.335876X0.335876X0.053033X0.053033X0.335876X0*%
%ADD22RoundRect,0.135000X-0.185000X0.135000X-0.185000X-0.135000X0.185000X-0.135000X0.185000X0.135000X0*%
%ADD23R,1.200000X1.400000*%
%ADD24RoundRect,0.140000X0.170000X-0.140000X0.170000X0.140000X-0.170000X0.140000X-0.170000X-0.140000X0*%
%ADD25RoundRect,0.140000X-0.170000X0.140000X-0.170000X-0.140000X0.170000X-0.140000X0.170000X0.140000X0*%
%ADD26RoundRect,0.150000X0.587500X0.150000X-0.587500X0.150000X-0.587500X-0.150000X0.587500X-0.150000X0*%
%ADD27RoundRect,0.250000X0.625000X-0.375000X0.625000X0.375000X-0.625000X0.375000X-0.625000X-0.375000X0*%
%ADD28RoundRect,0.150000X0.650000X0.150000X-0.650000X0.150000X-0.650000X-0.150000X0.650000X-0.150000X0*%
%ADD29O,1.000000X2.100000*%
%ADD30O,1.000000X1.600000*%
%ADD31R,0.600000X1.450000*%
%ADD32R,0.300000X1.450000*%
%ADD33C,0.650000*%
%ADD34RoundRect,0.050000X0.387500X0.050000X-0.387500X0.050000X-0.387500X-0.050000X0.387500X-0.050000X0*%
%ADD35RoundRect,0.050000X0.050000X0.387500X-0.050000X0.387500X-0.050000X-0.387500X0.050000X-0.387500X0*%
%ADD36RoundRect,0.144000X1.456000X1.456000X-1.456000X1.456000X-1.456000X-1.456000X1.456000X-1.456000X0*%
%ADD37RoundRect,0.275000X-1.125000X-0.275000X1.125000X-0.275000X1.125000X0.275000X-1.125000X0.275000X0*%
%ADD38RoundRect,0.150000X-0.475000X-0.150000X0.475000X-0.150000X0.475000X0.150000X-0.475000X0.150000X0*%
G04 APERTURE END LIST*
D10*
X304626190Y-70102619D02*
X304626190Y-69102619D01*
X304626190Y-69102619D02*
X304292857Y-69816904D01*
X304292857Y-69816904D02*
X303959524Y-69102619D01*
X303959524Y-69102619D02*
X303959524Y-70102619D01*
X303054762Y-70102619D02*
X303054762Y-69578809D01*
X303054762Y-69578809D02*
X303102381Y-69483571D01*
X303102381Y-69483571D02*
X303197619Y-69435952D01*
X303197619Y-69435952D02*
X303388095Y-69435952D01*
X303388095Y-69435952D02*
X303483333Y-69483571D01*
X303054762Y-70055000D02*
X303150000Y-70102619D01*
X303150000Y-70102619D02*
X303388095Y-70102619D01*
X303388095Y-70102619D02*
X303483333Y-70055000D01*
X303483333Y-70055000D02*
X303530952Y-69959761D01*
X303530952Y-69959761D02*
X303530952Y-69864523D01*
X303530952Y-69864523D02*
X303483333Y-69769285D01*
X303483333Y-69769285D02*
X303388095Y-69721666D01*
X303388095Y-69721666D02*
X303150000Y-69721666D01*
X303150000Y-69721666D02*
X303054762Y-69674047D01*
X302150000Y-70055000D02*
X302245238Y-70102619D01*
X302245238Y-70102619D02*
X302435714Y-70102619D01*
X302435714Y-70102619D02*
X302530952Y-70055000D01*
X302530952Y-70055000D02*
X302578571Y-70007380D01*
X302578571Y-70007380D02*
X302626190Y-69912142D01*
X302626190Y-69912142D02*
X302626190Y-69626428D01*
X302626190Y-69626428D02*
X302578571Y-69531190D01*
X302578571Y-69531190D02*
X302530952Y-69483571D01*
X302530952Y-69483571D02*
X302435714Y-69435952D01*
X302435714Y-69435952D02*
X302245238Y-69435952D01*
X302245238Y-69435952D02*
X302150000Y-69483571D01*
X301721428Y-70102619D02*
X301721428Y-69435952D01*
X301721428Y-69626428D02*
X301673809Y-69531190D01*
X301673809Y-69531190D02*
X301626190Y-69483571D01*
X301626190Y-69483571D02*
X301530952Y-69435952D01*
X301530952Y-69435952D02*
X301435714Y-69435952D01*
X300959523Y-70102619D02*
X301054761Y-70055000D01*
X301054761Y-70055000D02*
X301102380Y-70007380D01*
X301102380Y-70007380D02*
X301149999Y-69912142D01*
X301149999Y-69912142D02*
X301149999Y-69626428D01*
X301149999Y-69626428D02*
X301102380Y-69531190D01*
X301102380Y-69531190D02*
X301054761Y-69483571D01*
X301054761Y-69483571D02*
X300959523Y-69435952D01*
X300959523Y-69435952D02*
X300816666Y-69435952D01*
X300816666Y-69435952D02*
X300721428Y-69483571D01*
X300721428Y-69483571D02*
X300673809Y-69531190D01*
X300673809Y-69531190D02*
X300626190Y-69626428D01*
X300626190Y-69626428D02*
X300626190Y-69912142D01*
X300626190Y-69912142D02*
X300673809Y-70007380D01*
X300673809Y-70007380D02*
X300721428Y-70055000D01*
X300721428Y-70055000D02*
X300816666Y-70102619D01*
X300816666Y-70102619D02*
X300959523Y-70102619D01*
X322789047Y-69578809D02*
X322455714Y-69578809D01*
X322312857Y-70102619D02*
X322789047Y-70102619D01*
X322789047Y-70102619D02*
X322789047Y-69102619D01*
X322789047Y-69102619D02*
X322312857Y-69102619D01*
X321884285Y-69435952D02*
X321884285Y-70102619D01*
X321884285Y-69531190D02*
X321836666Y-69483571D01*
X321836666Y-69483571D02*
X321741428Y-69435952D01*
X321741428Y-69435952D02*
X321598571Y-69435952D01*
X321598571Y-69435952D02*
X321503333Y-69483571D01*
X321503333Y-69483571D02*
X321455714Y-69578809D01*
X321455714Y-69578809D02*
X321455714Y-70102619D01*
X320550952Y-70102619D02*
X320550952Y-69102619D01*
X320550952Y-70055000D02*
X320646190Y-70102619D01*
X320646190Y-70102619D02*
X320836666Y-70102619D01*
X320836666Y-70102619D02*
X320931904Y-70055000D01*
X320931904Y-70055000D02*
X320979523Y-70007380D01*
X320979523Y-70007380D02*
X321027142Y-69912142D01*
X321027142Y-69912142D02*
X321027142Y-69626428D01*
X321027142Y-69626428D02*
X320979523Y-69531190D01*
X320979523Y-69531190D02*
X320931904Y-69483571D01*
X320931904Y-69483571D02*
X320836666Y-69435952D01*
X320836666Y-69435952D02*
X320646190Y-69435952D01*
X320646190Y-69435952D02*
X320550952Y-69483571D01*
X342326666Y-70182619D02*
X342326666Y-69182619D01*
X342326666Y-69182619D02*
X341945714Y-69182619D01*
X341945714Y-69182619D02*
X341850476Y-69230238D01*
X341850476Y-69230238D02*
X341802857Y-69277857D01*
X341802857Y-69277857D02*
X341755238Y-69373095D01*
X341755238Y-69373095D02*
X341755238Y-69515952D01*
X341755238Y-69515952D02*
X341802857Y-69611190D01*
X341802857Y-69611190D02*
X341850476Y-69658809D01*
X341850476Y-69658809D02*
X341945714Y-69706428D01*
X341945714Y-69706428D02*
X342326666Y-69706428D01*
X340898095Y-69515952D02*
X340898095Y-70325476D01*
X340898095Y-70325476D02*
X340945714Y-70420714D01*
X340945714Y-70420714D02*
X340993333Y-70468333D01*
X340993333Y-70468333D02*
X341088571Y-70515952D01*
X341088571Y-70515952D02*
X341231428Y-70515952D01*
X341231428Y-70515952D02*
X341326666Y-70468333D01*
X340898095Y-70135000D02*
X340993333Y-70182619D01*
X340993333Y-70182619D02*
X341183809Y-70182619D01*
X341183809Y-70182619D02*
X341279047Y-70135000D01*
X341279047Y-70135000D02*
X341326666Y-70087380D01*
X341326666Y-70087380D02*
X341374285Y-69992142D01*
X341374285Y-69992142D02*
X341374285Y-69706428D01*
X341374285Y-69706428D02*
X341326666Y-69611190D01*
X341326666Y-69611190D02*
X341279047Y-69563571D01*
X341279047Y-69563571D02*
X341183809Y-69515952D01*
X341183809Y-69515952D02*
X340993333Y-69515952D01*
X340993333Y-69515952D02*
X340898095Y-69563571D01*
X340421904Y-70182619D02*
X340421904Y-69182619D01*
X340421904Y-69182619D02*
X340183809Y-69182619D01*
X340183809Y-69182619D02*
X340040952Y-69230238D01*
X340040952Y-69230238D02*
X339945714Y-69325476D01*
X339945714Y-69325476D02*
X339898095Y-69420714D01*
X339898095Y-69420714D02*
X339850476Y-69611190D01*
X339850476Y-69611190D02*
X339850476Y-69754047D01*
X339850476Y-69754047D02*
X339898095Y-69944523D01*
X339898095Y-69944523D02*
X339945714Y-70039761D01*
X339945714Y-70039761D02*
X340040952Y-70135000D01*
X340040952Y-70135000D02*
X340183809Y-70182619D01*
X340183809Y-70182619D02*
X340421904Y-70182619D01*
X339421904Y-69515952D02*
X339421904Y-70182619D01*
X339421904Y-69611190D02*
X339374285Y-69563571D01*
X339374285Y-69563571D02*
X339279047Y-69515952D01*
X339279047Y-69515952D02*
X339136190Y-69515952D01*
X339136190Y-69515952D02*
X339040952Y-69563571D01*
X339040952Y-69563571D02*
X338993333Y-69658809D01*
X338993333Y-69658809D02*
X338993333Y-70182619D01*
X341850475Y-51002619D02*
X341850475Y-50002619D01*
X341850475Y-50002619D02*
X341469523Y-50002619D01*
X341469523Y-50002619D02*
X341374285Y-50050238D01*
X341374285Y-50050238D02*
X341326666Y-50097857D01*
X341326666Y-50097857D02*
X341279047Y-50193095D01*
X341279047Y-50193095D02*
X341279047Y-50335952D01*
X341279047Y-50335952D02*
X341326666Y-50431190D01*
X341326666Y-50431190D02*
X341374285Y-50478809D01*
X341374285Y-50478809D02*
X341469523Y-50526428D01*
X341469523Y-50526428D02*
X341850475Y-50526428D01*
X340421904Y-50335952D02*
X340421904Y-51145476D01*
X340421904Y-51145476D02*
X340469523Y-51240714D01*
X340469523Y-51240714D02*
X340517142Y-51288333D01*
X340517142Y-51288333D02*
X340612380Y-51335952D01*
X340612380Y-51335952D02*
X340755237Y-51335952D01*
X340755237Y-51335952D02*
X340850475Y-51288333D01*
X340421904Y-50955000D02*
X340517142Y-51002619D01*
X340517142Y-51002619D02*
X340707618Y-51002619D01*
X340707618Y-51002619D02*
X340802856Y-50955000D01*
X340802856Y-50955000D02*
X340850475Y-50907380D01*
X340850475Y-50907380D02*
X340898094Y-50812142D01*
X340898094Y-50812142D02*
X340898094Y-50526428D01*
X340898094Y-50526428D02*
X340850475Y-50431190D01*
X340850475Y-50431190D02*
X340802856Y-50383571D01*
X340802856Y-50383571D02*
X340707618Y-50335952D01*
X340707618Y-50335952D02*
X340517142Y-50335952D01*
X340517142Y-50335952D02*
X340421904Y-50383571D01*
X339945713Y-50002619D02*
X339945713Y-50812142D01*
X339945713Y-50812142D02*
X339898094Y-50907380D01*
X339898094Y-50907380D02*
X339850475Y-50955000D01*
X339850475Y-50955000D02*
X339755237Y-51002619D01*
X339755237Y-51002619D02*
X339564761Y-51002619D01*
X339564761Y-51002619D02*
X339469523Y-50955000D01*
X339469523Y-50955000D02*
X339421904Y-50907380D01*
X339421904Y-50907380D02*
X339374285Y-50812142D01*
X339374285Y-50812142D02*
X339374285Y-50002619D01*
X338898094Y-50335952D02*
X338898094Y-51335952D01*
X338898094Y-50383571D02*
X338802856Y-50335952D01*
X338802856Y-50335952D02*
X338612380Y-50335952D01*
X338612380Y-50335952D02*
X338517142Y-50383571D01*
X338517142Y-50383571D02*
X338469523Y-50431190D01*
X338469523Y-50431190D02*
X338421904Y-50526428D01*
X338421904Y-50526428D02*
X338421904Y-50812142D01*
X338421904Y-50812142D02*
X338469523Y-50907380D01*
X338469523Y-50907380D02*
X338517142Y-50955000D01*
X338517142Y-50955000D02*
X338612380Y-51002619D01*
X338612380Y-51002619D02*
X338802856Y-51002619D01*
X338802856Y-51002619D02*
X338898094Y-50955000D01*
X323543332Y-51812619D02*
X323543332Y-50812619D01*
X323543332Y-51288809D02*
X322971904Y-51288809D01*
X322971904Y-51812619D02*
X322971904Y-50812619D01*
X322352856Y-51812619D02*
X322448094Y-51765000D01*
X322448094Y-51765000D02*
X322495713Y-51717380D01*
X322495713Y-51717380D02*
X322543332Y-51622142D01*
X322543332Y-51622142D02*
X322543332Y-51336428D01*
X322543332Y-51336428D02*
X322495713Y-51241190D01*
X322495713Y-51241190D02*
X322448094Y-51193571D01*
X322448094Y-51193571D02*
X322352856Y-51145952D01*
X322352856Y-51145952D02*
X322209999Y-51145952D01*
X322209999Y-51145952D02*
X322114761Y-51193571D01*
X322114761Y-51193571D02*
X322067142Y-51241190D01*
X322067142Y-51241190D02*
X322019523Y-51336428D01*
X322019523Y-51336428D02*
X322019523Y-51622142D01*
X322019523Y-51622142D02*
X322067142Y-51717380D01*
X322067142Y-51717380D02*
X322114761Y-51765000D01*
X322114761Y-51765000D02*
X322209999Y-51812619D01*
X322209999Y-51812619D02*
X322352856Y-51812619D01*
X321590951Y-51812619D02*
X321590951Y-51145952D01*
X321590951Y-51241190D02*
X321543332Y-51193571D01*
X321543332Y-51193571D02*
X321448094Y-51145952D01*
X321448094Y-51145952D02*
X321305237Y-51145952D01*
X321305237Y-51145952D02*
X321209999Y-51193571D01*
X321209999Y-51193571D02*
X321162380Y-51288809D01*
X321162380Y-51288809D02*
X321162380Y-51812619D01*
X321162380Y-51288809D02*
X321114761Y-51193571D01*
X321114761Y-51193571D02*
X321019523Y-51145952D01*
X321019523Y-51145952D02*
X320876666Y-51145952D01*
X320876666Y-51145952D02*
X320781427Y-51193571D01*
X320781427Y-51193571D02*
X320733808Y-51288809D01*
X320733808Y-51288809D02*
X320733808Y-51812619D01*
X319876666Y-51765000D02*
X319971904Y-51812619D01*
X319971904Y-51812619D02*
X320162380Y-51812619D01*
X320162380Y-51812619D02*
X320257618Y-51765000D01*
X320257618Y-51765000D02*
X320305237Y-51669761D01*
X320305237Y-51669761D02*
X320305237Y-51288809D01*
X320305237Y-51288809D02*
X320257618Y-51193571D01*
X320257618Y-51193571D02*
X320162380Y-51145952D01*
X320162380Y-51145952D02*
X319971904Y-51145952D01*
X319971904Y-51145952D02*
X319876666Y-51193571D01*
X319876666Y-51193571D02*
X319829047Y-51288809D01*
X319829047Y-51288809D02*
X319829047Y-51384047D01*
X319829047Y-51384047D02*
X320305237Y-51479285D01*
X303387142Y-51652619D02*
X303387142Y-50652619D01*
X302910952Y-50985952D02*
X302910952Y-51652619D01*
X302910952Y-51081190D02*
X302863333Y-51033571D01*
X302863333Y-51033571D02*
X302768095Y-50985952D01*
X302768095Y-50985952D02*
X302625238Y-50985952D01*
X302625238Y-50985952D02*
X302530000Y-51033571D01*
X302530000Y-51033571D02*
X302482381Y-51128809D01*
X302482381Y-51128809D02*
X302482381Y-51652619D01*
X302053809Y-51605000D02*
X301958571Y-51652619D01*
X301958571Y-51652619D02*
X301768095Y-51652619D01*
X301768095Y-51652619D02*
X301672857Y-51605000D01*
X301672857Y-51605000D02*
X301625238Y-51509761D01*
X301625238Y-51509761D02*
X301625238Y-51462142D01*
X301625238Y-51462142D02*
X301672857Y-51366904D01*
X301672857Y-51366904D02*
X301768095Y-51319285D01*
X301768095Y-51319285D02*
X301910952Y-51319285D01*
X301910952Y-51319285D02*
X302006190Y-51271666D01*
X302006190Y-51271666D02*
X302053809Y-51176428D01*
X302053809Y-51176428D02*
X302053809Y-51128809D01*
X302053809Y-51128809D02*
X302006190Y-51033571D01*
X302006190Y-51033571D02*
X301910952Y-50985952D01*
X301910952Y-50985952D02*
X301768095Y-50985952D01*
X301768095Y-50985952D02*
X301672857Y-51033571D01*
X279633809Y-132747380D02*
X279681428Y-132795000D01*
X279681428Y-132795000D02*
X279824285Y-132842619D01*
X279824285Y-132842619D02*
X279919523Y-132842619D01*
X279919523Y-132842619D02*
X280062380Y-132795000D01*
X280062380Y-132795000D02*
X280157618Y-132699761D01*
X280157618Y-132699761D02*
X280205237Y-132604523D01*
X280205237Y-132604523D02*
X280252856Y-132414047D01*
X280252856Y-132414047D02*
X280252856Y-132271190D01*
X280252856Y-132271190D02*
X280205237Y-132080714D01*
X280205237Y-132080714D02*
X280157618Y-131985476D01*
X280157618Y-131985476D02*
X280062380Y-131890238D01*
X280062380Y-131890238D02*
X279919523Y-131842619D01*
X279919523Y-131842619D02*
X279824285Y-131842619D01*
X279824285Y-131842619D02*
X279681428Y-131890238D01*
X279681428Y-131890238D02*
X279633809Y-131937857D01*
X279062380Y-132842619D02*
X279157618Y-132795000D01*
X279157618Y-132795000D02*
X279205237Y-132747380D01*
X279205237Y-132747380D02*
X279252856Y-132652142D01*
X279252856Y-132652142D02*
X279252856Y-132366428D01*
X279252856Y-132366428D02*
X279205237Y-132271190D01*
X279205237Y-132271190D02*
X279157618Y-132223571D01*
X279157618Y-132223571D02*
X279062380Y-132175952D01*
X279062380Y-132175952D02*
X278919523Y-132175952D01*
X278919523Y-132175952D02*
X278824285Y-132223571D01*
X278824285Y-132223571D02*
X278776666Y-132271190D01*
X278776666Y-132271190D02*
X278729047Y-132366428D01*
X278729047Y-132366428D02*
X278729047Y-132652142D01*
X278729047Y-132652142D02*
X278776666Y-132747380D01*
X278776666Y-132747380D02*
X278824285Y-132795000D01*
X278824285Y-132795000D02*
X278919523Y-132842619D01*
X278919523Y-132842619D02*
X279062380Y-132842619D01*
X277871904Y-132842619D02*
X277871904Y-131842619D01*
X277871904Y-132795000D02*
X277967142Y-132842619D01*
X277967142Y-132842619D02*
X278157618Y-132842619D01*
X278157618Y-132842619D02*
X278252856Y-132795000D01*
X278252856Y-132795000D02*
X278300475Y-132747380D01*
X278300475Y-132747380D02*
X278348094Y-132652142D01*
X278348094Y-132652142D02*
X278348094Y-132366428D01*
X278348094Y-132366428D02*
X278300475Y-132271190D01*
X278300475Y-132271190D02*
X278252856Y-132223571D01*
X278252856Y-132223571D02*
X278157618Y-132175952D01*
X278157618Y-132175952D02*
X277967142Y-132175952D01*
X277967142Y-132175952D02*
X277871904Y-132223571D01*
X277014761Y-132795000D02*
X277109999Y-132842619D01*
X277109999Y-132842619D02*
X277300475Y-132842619D01*
X277300475Y-132842619D02*
X277395713Y-132795000D01*
X277395713Y-132795000D02*
X277443332Y-132699761D01*
X277443332Y-132699761D02*
X277443332Y-132318809D01*
X277443332Y-132318809D02*
X277395713Y-132223571D01*
X277395713Y-132223571D02*
X277300475Y-132175952D01*
X277300475Y-132175952D02*
X277109999Y-132175952D01*
X277109999Y-132175952D02*
X277014761Y-132223571D01*
X277014761Y-132223571D02*
X276967142Y-132318809D01*
X276967142Y-132318809D02*
X276967142Y-132414047D01*
X276967142Y-132414047D02*
X277443332Y-132509285D01*
X322258094Y-112762619D02*
X322258094Y-113572142D01*
X322258094Y-113572142D02*
X322210475Y-113667380D01*
X322210475Y-113667380D02*
X322162856Y-113715000D01*
X322162856Y-113715000D02*
X322067618Y-113762619D01*
X322067618Y-113762619D02*
X321877142Y-113762619D01*
X321877142Y-113762619D02*
X321781904Y-113715000D01*
X321781904Y-113715000D02*
X321734285Y-113667380D01*
X321734285Y-113667380D02*
X321686666Y-113572142D01*
X321686666Y-113572142D02*
X321686666Y-112762619D01*
X321210475Y-113095952D02*
X321210475Y-114095952D01*
X321210475Y-113143571D02*
X321115237Y-113095952D01*
X321115237Y-113095952D02*
X320924761Y-113095952D01*
X320924761Y-113095952D02*
X320829523Y-113143571D01*
X320829523Y-113143571D02*
X320781904Y-113191190D01*
X320781904Y-113191190D02*
X320734285Y-113286428D01*
X320734285Y-113286428D02*
X320734285Y-113572142D01*
X320734285Y-113572142D02*
X320781904Y-113667380D01*
X320781904Y-113667380D02*
X320829523Y-113715000D01*
X320829523Y-113715000D02*
X320924761Y-113762619D01*
X320924761Y-113762619D02*
X321115237Y-113762619D01*
X321115237Y-113762619D02*
X321210475Y-113715000D01*
X341569047Y-133342619D02*
X341902380Y-132866428D01*
X342140475Y-133342619D02*
X342140475Y-132342619D01*
X342140475Y-132342619D02*
X341759523Y-132342619D01*
X341759523Y-132342619D02*
X341664285Y-132390238D01*
X341664285Y-132390238D02*
X341616666Y-132437857D01*
X341616666Y-132437857D02*
X341569047Y-132533095D01*
X341569047Y-132533095D02*
X341569047Y-132675952D01*
X341569047Y-132675952D02*
X341616666Y-132771190D01*
X341616666Y-132771190D02*
X341664285Y-132818809D01*
X341664285Y-132818809D02*
X341759523Y-132866428D01*
X341759523Y-132866428D02*
X342140475Y-132866428D01*
X341140475Y-133342619D02*
X341140475Y-132675952D01*
X341140475Y-132342619D02*
X341188094Y-132390238D01*
X341188094Y-132390238D02*
X341140475Y-132437857D01*
X341140475Y-132437857D02*
X341092856Y-132390238D01*
X341092856Y-132390238D02*
X341140475Y-132342619D01*
X341140475Y-132342619D02*
X341140475Y-132437857D01*
X340235714Y-132675952D02*
X340235714Y-133485476D01*
X340235714Y-133485476D02*
X340283333Y-133580714D01*
X340283333Y-133580714D02*
X340330952Y-133628333D01*
X340330952Y-133628333D02*
X340426190Y-133675952D01*
X340426190Y-133675952D02*
X340569047Y-133675952D01*
X340569047Y-133675952D02*
X340664285Y-133628333D01*
X340235714Y-133295000D02*
X340330952Y-133342619D01*
X340330952Y-133342619D02*
X340521428Y-133342619D01*
X340521428Y-133342619D02*
X340616666Y-133295000D01*
X340616666Y-133295000D02*
X340664285Y-133247380D01*
X340664285Y-133247380D02*
X340711904Y-133152142D01*
X340711904Y-133152142D02*
X340711904Y-132866428D01*
X340711904Y-132866428D02*
X340664285Y-132771190D01*
X340664285Y-132771190D02*
X340616666Y-132723571D01*
X340616666Y-132723571D02*
X340521428Y-132675952D01*
X340521428Y-132675952D02*
X340330952Y-132675952D01*
X340330952Y-132675952D02*
X340235714Y-132723571D01*
X339759523Y-133342619D02*
X339759523Y-132342619D01*
X339330952Y-133342619D02*
X339330952Y-132818809D01*
X339330952Y-132818809D02*
X339378571Y-132723571D01*
X339378571Y-132723571D02*
X339473809Y-132675952D01*
X339473809Y-132675952D02*
X339616666Y-132675952D01*
X339616666Y-132675952D02*
X339711904Y-132723571D01*
X339711904Y-132723571D02*
X339759523Y-132771190D01*
X338997618Y-132675952D02*
X338616666Y-132675952D01*
X338854761Y-132342619D02*
X338854761Y-133199761D01*
X338854761Y-133199761D02*
X338807142Y-133295000D01*
X338807142Y-133295000D02*
X338711904Y-133342619D01*
X338711904Y-133342619D02*
X338616666Y-133342619D01*
X323260475Y-133082619D02*
X323260475Y-132082619D01*
X323260475Y-132082619D02*
X323022380Y-132082619D01*
X323022380Y-132082619D02*
X322879523Y-132130238D01*
X322879523Y-132130238D02*
X322784285Y-132225476D01*
X322784285Y-132225476D02*
X322736666Y-132320714D01*
X322736666Y-132320714D02*
X322689047Y-132511190D01*
X322689047Y-132511190D02*
X322689047Y-132654047D01*
X322689047Y-132654047D02*
X322736666Y-132844523D01*
X322736666Y-132844523D02*
X322784285Y-132939761D01*
X322784285Y-132939761D02*
X322879523Y-133035000D01*
X322879523Y-133035000D02*
X323022380Y-133082619D01*
X323022380Y-133082619D02*
X323260475Y-133082619D01*
X322117618Y-133082619D02*
X322212856Y-133035000D01*
X322212856Y-133035000D02*
X322260475Y-132987380D01*
X322260475Y-132987380D02*
X322308094Y-132892142D01*
X322308094Y-132892142D02*
X322308094Y-132606428D01*
X322308094Y-132606428D02*
X322260475Y-132511190D01*
X322260475Y-132511190D02*
X322212856Y-132463571D01*
X322212856Y-132463571D02*
X322117618Y-132415952D01*
X322117618Y-132415952D02*
X321974761Y-132415952D01*
X321974761Y-132415952D02*
X321879523Y-132463571D01*
X321879523Y-132463571D02*
X321831904Y-132511190D01*
X321831904Y-132511190D02*
X321784285Y-132606428D01*
X321784285Y-132606428D02*
X321784285Y-132892142D01*
X321784285Y-132892142D02*
X321831904Y-132987380D01*
X321831904Y-132987380D02*
X321879523Y-133035000D01*
X321879523Y-133035000D02*
X321974761Y-133082619D01*
X321974761Y-133082619D02*
X322117618Y-133082619D01*
X321450951Y-132415952D02*
X321260475Y-133082619D01*
X321260475Y-133082619D02*
X321069999Y-132606428D01*
X321069999Y-132606428D02*
X320879523Y-133082619D01*
X320879523Y-133082619D02*
X320689047Y-132415952D01*
X320308094Y-132415952D02*
X320308094Y-133082619D01*
X320308094Y-132511190D02*
X320260475Y-132463571D01*
X320260475Y-132463571D02*
X320165237Y-132415952D01*
X320165237Y-132415952D02*
X320022380Y-132415952D01*
X320022380Y-132415952D02*
X319927142Y-132463571D01*
X319927142Y-132463571D02*
X319879523Y-132558809D01*
X319879523Y-132558809D02*
X319879523Y-133082619D01*
X303040476Y-133062619D02*
X303516666Y-133062619D01*
X303516666Y-133062619D02*
X303516666Y-132062619D01*
X302326190Y-133015000D02*
X302421428Y-133062619D01*
X302421428Y-133062619D02*
X302611904Y-133062619D01*
X302611904Y-133062619D02*
X302707142Y-133015000D01*
X302707142Y-133015000D02*
X302754761Y-132919761D01*
X302754761Y-132919761D02*
X302754761Y-132538809D01*
X302754761Y-132538809D02*
X302707142Y-132443571D01*
X302707142Y-132443571D02*
X302611904Y-132395952D01*
X302611904Y-132395952D02*
X302421428Y-132395952D01*
X302421428Y-132395952D02*
X302326190Y-132443571D01*
X302326190Y-132443571D02*
X302278571Y-132538809D01*
X302278571Y-132538809D02*
X302278571Y-132634047D01*
X302278571Y-132634047D02*
X302754761Y-132729285D01*
X301992856Y-132395952D02*
X301611904Y-132395952D01*
X301849999Y-133062619D02*
X301849999Y-132205476D01*
X301849999Y-132205476D02*
X301802380Y-132110238D01*
X301802380Y-132110238D02*
X301707142Y-132062619D01*
X301707142Y-132062619D02*
X301611904Y-132062619D01*
X301421427Y-132395952D02*
X301040475Y-132395952D01*
X301278570Y-132062619D02*
X301278570Y-132919761D01*
X301278570Y-132919761D02*
X301230951Y-133015000D01*
X301230951Y-133015000D02*
X301135713Y-133062619D01*
X301135713Y-133062619D02*
X301040475Y-133062619D01*
X260060952Y-132117857D02*
X259299047Y-132117857D01*
X260060951Y-133261666D02*
X259299047Y-133261666D01*
X241010951Y-131641666D02*
X240249047Y-131641666D01*
X240629999Y-132022619D02*
X240629999Y-131260714D01*
X241010951Y-133118809D02*
X240249047Y-133118809D01*
X240249047Y-133404523D02*
X241010951Y-133404523D01*
X173112380Y-131022619D02*
X173302856Y-131022619D01*
X173302856Y-131022619D02*
X173398094Y-131070238D01*
X173398094Y-131070238D02*
X173445713Y-131117857D01*
X173445713Y-131117857D02*
X173540951Y-131260714D01*
X173540951Y-131260714D02*
X173588570Y-131451190D01*
X173588570Y-131451190D02*
X173588570Y-131832142D01*
X173588570Y-131832142D02*
X173540951Y-131927380D01*
X173540951Y-131927380D02*
X173493332Y-131975000D01*
X173493332Y-131975000D02*
X173398094Y-132022619D01*
X173398094Y-132022619D02*
X173207618Y-132022619D01*
X173207618Y-132022619D02*
X173112380Y-131975000D01*
X173112380Y-131975000D02*
X173064761Y-131927380D01*
X173064761Y-131927380D02*
X173017142Y-131832142D01*
X173017142Y-131832142D02*
X173017142Y-131594047D01*
X173017142Y-131594047D02*
X173064761Y-131498809D01*
X173064761Y-131498809D02*
X173112380Y-131451190D01*
X173112380Y-131451190D02*
X173207618Y-131403571D01*
X173207618Y-131403571D02*
X173398094Y-131403571D01*
X173398094Y-131403571D02*
X173493332Y-131451190D01*
X173493332Y-131451190D02*
X173540951Y-131498809D01*
X173540951Y-131498809D02*
X173588570Y-131594047D01*
X172588570Y-131927380D02*
X172540951Y-131975000D01*
X172540951Y-131975000D02*
X172588570Y-132022619D01*
X172588570Y-132022619D02*
X172636189Y-131975000D01*
X172636189Y-131975000D02*
X172588570Y-131927380D01*
X172588570Y-131927380D02*
X172588570Y-132022619D01*
X172159999Y-131117857D02*
X172112380Y-131070238D01*
X172112380Y-131070238D02*
X172017142Y-131022619D01*
X172017142Y-131022619D02*
X171779047Y-131022619D01*
X171779047Y-131022619D02*
X171683809Y-131070238D01*
X171683809Y-131070238D02*
X171636190Y-131117857D01*
X171636190Y-131117857D02*
X171588571Y-131213095D01*
X171588571Y-131213095D02*
X171588571Y-131308333D01*
X171588571Y-131308333D02*
X171636190Y-131451190D01*
X171636190Y-131451190D02*
X172207618Y-132022619D01*
X172207618Y-132022619D02*
X171588571Y-132022619D01*
X170683809Y-131022619D02*
X171159999Y-131022619D01*
X171159999Y-131022619D02*
X171207618Y-131498809D01*
X171207618Y-131498809D02*
X171159999Y-131451190D01*
X171159999Y-131451190D02*
X171064761Y-131403571D01*
X171064761Y-131403571D02*
X170826666Y-131403571D01*
X170826666Y-131403571D02*
X170731428Y-131451190D01*
X170731428Y-131451190D02*
X170683809Y-131498809D01*
X170683809Y-131498809D02*
X170636190Y-131594047D01*
X170636190Y-131594047D02*
X170636190Y-131832142D01*
X170636190Y-131832142D02*
X170683809Y-131927380D01*
X170683809Y-131927380D02*
X170731428Y-131975000D01*
X170731428Y-131975000D02*
X170826666Y-132022619D01*
X170826666Y-132022619D02*
X171064761Y-132022619D01*
X171064761Y-132022619D02*
X171159999Y-131975000D01*
X171159999Y-131975000D02*
X171207618Y-131927380D01*
X169779047Y-131355952D02*
X169779047Y-132022619D01*
X170207618Y-131355952D02*
X170207618Y-131879761D01*
X170207618Y-131879761D02*
X170159999Y-131975000D01*
X170159999Y-131975000D02*
X170064761Y-132022619D01*
X170064761Y-132022619D02*
X169921904Y-132022619D01*
X169921904Y-132022619D02*
X169826666Y-131975000D01*
X169826666Y-131975000D02*
X169779047Y-131927380D01*
X173707618Y-133595000D02*
X173564761Y-133642619D01*
X173564761Y-133642619D02*
X173326666Y-133642619D01*
X173326666Y-133642619D02*
X173231428Y-133595000D01*
X173231428Y-133595000D02*
X173183809Y-133547380D01*
X173183809Y-133547380D02*
X173136190Y-133452142D01*
X173136190Y-133452142D02*
X173136190Y-133356904D01*
X173136190Y-133356904D02*
X173183809Y-133261666D01*
X173183809Y-133261666D02*
X173231428Y-133214047D01*
X173231428Y-133214047D02*
X173326666Y-133166428D01*
X173326666Y-133166428D02*
X173517142Y-133118809D01*
X173517142Y-133118809D02*
X173612380Y-133071190D01*
X173612380Y-133071190D02*
X173659999Y-133023571D01*
X173659999Y-133023571D02*
X173707618Y-132928333D01*
X173707618Y-132928333D02*
X173707618Y-132833095D01*
X173707618Y-132833095D02*
X173659999Y-132737857D01*
X173659999Y-132737857D02*
X173612380Y-132690238D01*
X173612380Y-132690238D02*
X173517142Y-132642619D01*
X173517142Y-132642619D02*
X173279047Y-132642619D01*
X173279047Y-132642619D02*
X173136190Y-132690238D01*
X172707618Y-132975952D02*
X172707618Y-133975952D01*
X172707618Y-133023571D02*
X172612380Y-132975952D01*
X172612380Y-132975952D02*
X172421904Y-132975952D01*
X172421904Y-132975952D02*
X172326666Y-133023571D01*
X172326666Y-133023571D02*
X172279047Y-133071190D01*
X172279047Y-133071190D02*
X172231428Y-133166428D01*
X172231428Y-133166428D02*
X172231428Y-133452142D01*
X172231428Y-133452142D02*
X172279047Y-133547380D01*
X172279047Y-133547380D02*
X172326666Y-133595000D01*
X172326666Y-133595000D02*
X172421904Y-133642619D01*
X172421904Y-133642619D02*
X172612380Y-133642619D01*
X172612380Y-133642619D02*
X172707618Y-133595000D01*
X171374285Y-133642619D02*
X171374285Y-133118809D01*
X171374285Y-133118809D02*
X171421904Y-133023571D01*
X171421904Y-133023571D02*
X171517142Y-132975952D01*
X171517142Y-132975952D02*
X171707618Y-132975952D01*
X171707618Y-132975952D02*
X171802856Y-133023571D01*
X171374285Y-133595000D02*
X171469523Y-133642619D01*
X171469523Y-133642619D02*
X171707618Y-133642619D01*
X171707618Y-133642619D02*
X171802856Y-133595000D01*
X171802856Y-133595000D02*
X171850475Y-133499761D01*
X171850475Y-133499761D02*
X171850475Y-133404523D01*
X171850475Y-133404523D02*
X171802856Y-133309285D01*
X171802856Y-133309285D02*
X171707618Y-133261666D01*
X171707618Y-133261666D02*
X171469523Y-133261666D01*
X171469523Y-133261666D02*
X171374285Y-133214047D01*
X170469523Y-133595000D02*
X170564761Y-133642619D01*
X170564761Y-133642619D02*
X170755237Y-133642619D01*
X170755237Y-133642619D02*
X170850475Y-133595000D01*
X170850475Y-133595000D02*
X170898094Y-133547380D01*
X170898094Y-133547380D02*
X170945713Y-133452142D01*
X170945713Y-133452142D02*
X170945713Y-133166428D01*
X170945713Y-133166428D02*
X170898094Y-133071190D01*
X170898094Y-133071190D02*
X170850475Y-133023571D01*
X170850475Y-133023571D02*
X170755237Y-132975952D01*
X170755237Y-132975952D02*
X170564761Y-132975952D01*
X170564761Y-132975952D02*
X170469523Y-133023571D01*
X169659999Y-133595000D02*
X169755237Y-133642619D01*
X169755237Y-133642619D02*
X169945713Y-133642619D01*
X169945713Y-133642619D02*
X170040951Y-133595000D01*
X170040951Y-133595000D02*
X170088570Y-133499761D01*
X170088570Y-133499761D02*
X170088570Y-133118809D01*
X170088570Y-133118809D02*
X170040951Y-133023571D01*
X170040951Y-133023571D02*
X169945713Y-132975952D01*
X169945713Y-132975952D02*
X169755237Y-132975952D01*
X169755237Y-132975952D02*
X169659999Y-133023571D01*
X169659999Y-133023571D02*
X169612380Y-133118809D01*
X169612380Y-133118809D02*
X169612380Y-133214047D01*
X169612380Y-133214047D02*
X170088570Y-133309285D01*
X276570475Y-111992619D02*
X276570475Y-112183095D01*
X276189523Y-111992619D02*
X276189523Y-112183095D01*
X276332380Y-113612619D02*
X276427618Y-113803095D01*
X254887618Y-112897380D02*
X254839999Y-112945000D01*
X254839999Y-112945000D02*
X254887618Y-112992619D01*
X254887618Y-112992619D02*
X254935237Y-112945000D01*
X254935237Y-112945000D02*
X254887618Y-112897380D01*
X254887618Y-112897380D02*
X254887618Y-112992619D01*
X255078094Y-112040238D02*
X254982856Y-111992619D01*
X254982856Y-111992619D02*
X254744761Y-111992619D01*
X254744761Y-111992619D02*
X254649523Y-112040238D01*
X254649523Y-112040238D02*
X254601904Y-112135476D01*
X254601904Y-112135476D02*
X254601904Y-112230714D01*
X254601904Y-112230714D02*
X254649523Y-112325952D01*
X254649523Y-112325952D02*
X254697142Y-112373571D01*
X254697142Y-112373571D02*
X254792380Y-112421190D01*
X254792380Y-112421190D02*
X254839999Y-112468809D01*
X254839999Y-112468809D02*
X254887618Y-112564047D01*
X254887618Y-112564047D02*
X254887618Y-112611666D01*
X254411428Y-113565000D02*
X255268570Y-114850714D01*
X236280951Y-112315952D02*
X235519047Y-112601666D01*
X235519047Y-112601666D02*
X236280951Y-112887380D01*
X235899999Y-114507380D02*
X235852380Y-114555000D01*
X235852380Y-114555000D02*
X235899999Y-114602619D01*
X235899999Y-114602619D02*
X235947618Y-114555000D01*
X235947618Y-114555000D02*
X235899999Y-114507380D01*
X235899999Y-114507380D02*
X235899999Y-114602619D01*
X216429047Y-112325952D02*
X217190951Y-112611666D01*
X217190951Y-112611666D02*
X216429047Y-112897380D01*
X216762380Y-114565000D02*
X216762380Y-114612619D01*
X216762380Y-114612619D02*
X216809999Y-114707857D01*
X216809999Y-114707857D02*
X216857618Y-114755476D01*
X197913332Y-113792619D02*
X197913332Y-112792619D01*
X197913332Y-112792619D02*
X197579999Y-113506904D01*
X197579999Y-113506904D02*
X197246666Y-112792619D01*
X197246666Y-112792619D02*
X197246666Y-113792619D01*
X178975713Y-113792619D02*
X178975713Y-112792619D01*
X178975713Y-112792619D02*
X178404285Y-113792619D01*
X178404285Y-113792619D02*
X178404285Y-112792619D01*
X273480476Y-94218809D02*
X273147143Y-94218809D01*
X273004286Y-94742619D02*
X273480476Y-94742619D01*
X273480476Y-94742619D02*
X273480476Y-93742619D01*
X273480476Y-93742619D02*
X273004286Y-93742619D01*
X272575714Y-94075952D02*
X272575714Y-94742619D01*
X272575714Y-94171190D02*
X272528095Y-94123571D01*
X272528095Y-94123571D02*
X272432857Y-94075952D01*
X272432857Y-94075952D02*
X272290000Y-94075952D01*
X272290000Y-94075952D02*
X272194762Y-94123571D01*
X272194762Y-94123571D02*
X272147143Y-94218809D01*
X272147143Y-94218809D02*
X272147143Y-94742619D01*
X271813809Y-94075952D02*
X271432857Y-94075952D01*
X271670952Y-93742619D02*
X271670952Y-94599761D01*
X271670952Y-94599761D02*
X271623333Y-94695000D01*
X271623333Y-94695000D02*
X271528095Y-94742619D01*
X271528095Y-94742619D02*
X271432857Y-94742619D01*
X270718571Y-94695000D02*
X270813809Y-94742619D01*
X270813809Y-94742619D02*
X271004285Y-94742619D01*
X271004285Y-94742619D02*
X271099523Y-94695000D01*
X271099523Y-94695000D02*
X271147142Y-94599761D01*
X271147142Y-94599761D02*
X271147142Y-94218809D01*
X271147142Y-94218809D02*
X271099523Y-94123571D01*
X271099523Y-94123571D02*
X271004285Y-94075952D01*
X271004285Y-94075952D02*
X270813809Y-94075952D01*
X270813809Y-94075952D02*
X270718571Y-94123571D01*
X270718571Y-94123571D02*
X270670952Y-94218809D01*
X270670952Y-94218809D02*
X270670952Y-94314047D01*
X270670952Y-94314047D02*
X271147142Y-94409285D01*
X270242380Y-94742619D02*
X270242380Y-94075952D01*
X270242380Y-94266428D02*
X270194761Y-94171190D01*
X270194761Y-94171190D02*
X270147142Y-94123571D01*
X270147142Y-94123571D02*
X270051904Y-94075952D01*
X270051904Y-94075952D02*
X269956666Y-94075952D01*
X245309999Y-93847380D02*
X245262380Y-93895000D01*
X245262380Y-93895000D02*
X245309999Y-93942619D01*
X245309999Y-93942619D02*
X245357618Y-93895000D01*
X245357618Y-93895000D02*
X245309999Y-93847380D01*
X245309999Y-93847380D02*
X245309999Y-93942619D01*
X245309999Y-93323571D02*
X245262380Y-93371190D01*
X245262380Y-93371190D02*
X245309999Y-93418809D01*
X245309999Y-93418809D02*
X245357618Y-93371190D01*
X245357618Y-93371190D02*
X245309999Y-93323571D01*
X245309999Y-93323571D02*
X245309999Y-93418809D01*
X245262380Y-95515000D02*
X245262380Y-95562619D01*
X245262380Y-95562619D02*
X245309999Y-95657857D01*
X245309999Y-95657857D02*
X245357618Y-95705476D01*
X245309999Y-94943571D02*
X245262380Y-94991190D01*
X245262380Y-94991190D02*
X245309999Y-95038809D01*
X245309999Y-95038809D02*
X245357618Y-94991190D01*
X245357618Y-94991190D02*
X245309999Y-94943571D01*
X245309999Y-94943571D02*
X245309999Y-95038809D01*
X225770476Y-94742619D02*
X226246666Y-94742619D01*
X226246666Y-94742619D02*
X226246666Y-93742619D01*
X207421904Y-94742619D02*
X207421904Y-93742619D01*
X206850476Y-94742619D02*
X207279047Y-94171190D01*
X206850476Y-93742619D02*
X207421904Y-94314047D01*
X187937142Y-93742619D02*
X187937142Y-94456904D01*
X187937142Y-94456904D02*
X187984761Y-94599761D01*
X187984761Y-94599761D02*
X188079999Y-94695000D01*
X188079999Y-94695000D02*
X188222856Y-94742619D01*
X188222856Y-94742619D02*
X188318094Y-94742619D01*
X169385713Y-94732619D02*
X169385713Y-93732619D01*
X169385713Y-94208809D02*
X168814285Y-94208809D01*
X168814285Y-94732619D02*
X168814285Y-93732619D01*
X279492380Y-75692619D02*
X279492380Y-74692619D01*
X279492380Y-74692619D02*
X279254285Y-74692619D01*
X279254285Y-74692619D02*
X279111428Y-74740238D01*
X279111428Y-74740238D02*
X279016190Y-74835476D01*
X279016190Y-74835476D02*
X278968571Y-74930714D01*
X278968571Y-74930714D02*
X278920952Y-75121190D01*
X278920952Y-75121190D02*
X278920952Y-75264047D01*
X278920952Y-75264047D02*
X278968571Y-75454523D01*
X278968571Y-75454523D02*
X279016190Y-75549761D01*
X279016190Y-75549761D02*
X279111428Y-75645000D01*
X279111428Y-75645000D02*
X279254285Y-75692619D01*
X279254285Y-75692619D02*
X279492380Y-75692619D01*
X278111428Y-75645000D02*
X278206666Y-75692619D01*
X278206666Y-75692619D02*
X278397142Y-75692619D01*
X278397142Y-75692619D02*
X278492380Y-75645000D01*
X278492380Y-75645000D02*
X278539999Y-75549761D01*
X278539999Y-75549761D02*
X278539999Y-75168809D01*
X278539999Y-75168809D02*
X278492380Y-75073571D01*
X278492380Y-75073571D02*
X278397142Y-75025952D01*
X278397142Y-75025952D02*
X278206666Y-75025952D01*
X278206666Y-75025952D02*
X278111428Y-75073571D01*
X278111428Y-75073571D02*
X278063809Y-75168809D01*
X278063809Y-75168809D02*
X278063809Y-75264047D01*
X278063809Y-75264047D02*
X278539999Y-75359285D01*
X277492380Y-75692619D02*
X277587618Y-75645000D01*
X277587618Y-75645000D02*
X277635237Y-75549761D01*
X277635237Y-75549761D02*
X277635237Y-74692619D01*
X260760476Y-75168809D02*
X260617619Y-75216428D01*
X260617619Y-75216428D02*
X260570000Y-75264047D01*
X260570000Y-75264047D02*
X260522381Y-75359285D01*
X260522381Y-75359285D02*
X260522381Y-75502142D01*
X260522381Y-75502142D02*
X260570000Y-75597380D01*
X260570000Y-75597380D02*
X260617619Y-75645000D01*
X260617619Y-75645000D02*
X260712857Y-75692619D01*
X260712857Y-75692619D02*
X261093809Y-75692619D01*
X261093809Y-75692619D02*
X261093809Y-74692619D01*
X261093809Y-74692619D02*
X260760476Y-74692619D01*
X260760476Y-74692619D02*
X260665238Y-74740238D01*
X260665238Y-74740238D02*
X260617619Y-74787857D01*
X260617619Y-74787857D02*
X260570000Y-74883095D01*
X260570000Y-74883095D02*
X260570000Y-74978333D01*
X260570000Y-74978333D02*
X260617619Y-75073571D01*
X260617619Y-75073571D02*
X260665238Y-75121190D01*
X260665238Y-75121190D02*
X260760476Y-75168809D01*
X260760476Y-75168809D02*
X261093809Y-75168809D01*
X260093809Y-75692619D02*
X260093809Y-74692619D01*
X259998571Y-75311666D02*
X259712857Y-75692619D01*
X259712857Y-75025952D02*
X260093809Y-75406904D01*
X259331904Y-75645000D02*
X259236666Y-75692619D01*
X259236666Y-75692619D02*
X259046190Y-75692619D01*
X259046190Y-75692619D02*
X258950952Y-75645000D01*
X258950952Y-75645000D02*
X258903333Y-75549761D01*
X258903333Y-75549761D02*
X258903333Y-75502142D01*
X258903333Y-75502142D02*
X258950952Y-75406904D01*
X258950952Y-75406904D02*
X259046190Y-75359285D01*
X259046190Y-75359285D02*
X259189047Y-75359285D01*
X259189047Y-75359285D02*
X259284285Y-75311666D01*
X259284285Y-75311666D02*
X259331904Y-75216428D01*
X259331904Y-75216428D02*
X259331904Y-75168809D01*
X259331904Y-75168809D02*
X259284285Y-75073571D01*
X259284285Y-75073571D02*
X259189047Y-75025952D01*
X259189047Y-75025952D02*
X259046190Y-75025952D01*
X259046190Y-75025952D02*
X258950952Y-75073571D01*
X258474761Y-75025952D02*
X258474761Y-76025952D01*
X258474761Y-75073571D02*
X258379523Y-75025952D01*
X258379523Y-75025952D02*
X258189047Y-75025952D01*
X258189047Y-75025952D02*
X258093809Y-75073571D01*
X258093809Y-75073571D02*
X258046190Y-75121190D01*
X258046190Y-75121190D02*
X257998571Y-75216428D01*
X257998571Y-75216428D02*
X257998571Y-75502142D01*
X257998571Y-75502142D02*
X258046190Y-75597380D01*
X258046190Y-75597380D02*
X258093809Y-75645000D01*
X258093809Y-75645000D02*
X258189047Y-75692619D01*
X258189047Y-75692619D02*
X258379523Y-75692619D01*
X258379523Y-75692619D02*
X258474761Y-75645000D01*
X240761904Y-75692619D02*
X240761904Y-74692619D01*
X240761904Y-74692619D02*
X240380952Y-74692619D01*
X240380952Y-74692619D02*
X240285714Y-74740238D01*
X240285714Y-74740238D02*
X240238095Y-74787857D01*
X240238095Y-74787857D02*
X240190476Y-74883095D01*
X240190476Y-74883095D02*
X240190476Y-75025952D01*
X240190476Y-75025952D02*
X240238095Y-75121190D01*
X240238095Y-75121190D02*
X240285714Y-75168809D01*
X240285714Y-75168809D02*
X240380952Y-75216428D01*
X240380952Y-75216428D02*
X240761904Y-75216428D01*
X221685237Y-74692619D02*
X221494761Y-74692619D01*
X221494761Y-74692619D02*
X221399523Y-74740238D01*
X221399523Y-74740238D02*
X221304285Y-74835476D01*
X221304285Y-74835476D02*
X221256666Y-75025952D01*
X221256666Y-75025952D02*
X221256666Y-75359285D01*
X221256666Y-75359285D02*
X221304285Y-75549761D01*
X221304285Y-75549761D02*
X221399523Y-75645000D01*
X221399523Y-75645000D02*
X221494761Y-75692619D01*
X221494761Y-75692619D02*
X221685237Y-75692619D01*
X221685237Y-75692619D02*
X221780475Y-75645000D01*
X221780475Y-75645000D02*
X221875713Y-75549761D01*
X221875713Y-75549761D02*
X221923332Y-75359285D01*
X221923332Y-75359285D02*
X221923332Y-75025952D01*
X221923332Y-75025952D02*
X221875713Y-74835476D01*
X221875713Y-74835476D02*
X221780475Y-74740238D01*
X221780475Y-74740238D02*
X221685237Y-74692619D01*
X202619999Y-75692619D02*
X202619999Y-74692619D01*
X183695713Y-74702619D02*
X183695713Y-75512142D01*
X183695713Y-75512142D02*
X183648094Y-75607380D01*
X183648094Y-75607380D02*
X183600475Y-75655000D01*
X183600475Y-75655000D02*
X183505237Y-75702619D01*
X183505237Y-75702619D02*
X183314761Y-75702619D01*
X183314761Y-75702619D02*
X183219523Y-75655000D01*
X183219523Y-75655000D02*
X183171904Y-75607380D01*
X183171904Y-75607380D02*
X183124285Y-75512142D01*
X183124285Y-75512142D02*
X183124285Y-74702619D01*
X159468571Y-113268809D02*
X159325714Y-113316428D01*
X159325714Y-113316428D02*
X159278095Y-113364047D01*
X159278095Y-113364047D02*
X159230476Y-113459285D01*
X159230476Y-113459285D02*
X159230476Y-113602142D01*
X159230476Y-113602142D02*
X159278095Y-113697380D01*
X159278095Y-113697380D02*
X159325714Y-113745000D01*
X159325714Y-113745000D02*
X159420952Y-113792619D01*
X159420952Y-113792619D02*
X159801904Y-113792619D01*
X159801904Y-113792619D02*
X159801904Y-112792619D01*
X159801904Y-112792619D02*
X159468571Y-112792619D01*
X159468571Y-112792619D02*
X159373333Y-112840238D01*
X159373333Y-112840238D02*
X159325714Y-112887857D01*
X159325714Y-112887857D02*
X159278095Y-112983095D01*
X159278095Y-112983095D02*
X159278095Y-113078333D01*
X159278095Y-113078333D02*
X159325714Y-113173571D01*
X159325714Y-113173571D02*
X159373333Y-113221190D01*
X159373333Y-113221190D02*
X159468571Y-113268809D01*
X159468571Y-113268809D02*
X159801904Y-113268809D01*
X140923332Y-112792619D02*
X140589999Y-113792619D01*
X140589999Y-113792619D02*
X140256666Y-112792619D01*
X121150476Y-113697380D02*
X121198095Y-113745000D01*
X121198095Y-113745000D02*
X121340952Y-113792619D01*
X121340952Y-113792619D02*
X121436190Y-113792619D01*
X121436190Y-113792619D02*
X121579047Y-113745000D01*
X121579047Y-113745000D02*
X121674285Y-113649761D01*
X121674285Y-113649761D02*
X121721904Y-113554523D01*
X121721904Y-113554523D02*
X121769523Y-113364047D01*
X121769523Y-113364047D02*
X121769523Y-113221190D01*
X121769523Y-113221190D02*
X121721904Y-113030714D01*
X121721904Y-113030714D02*
X121674285Y-112935476D01*
X121674285Y-112935476D02*
X121579047Y-112840238D01*
X121579047Y-112840238D02*
X121436190Y-112792619D01*
X121436190Y-112792619D02*
X121340952Y-112792619D01*
X121340952Y-112792619D02*
X121198095Y-112840238D01*
X121198095Y-112840238D02*
X121150476Y-112887857D01*
X102883332Y-112792619D02*
X102216666Y-113792619D01*
X102216666Y-112792619D02*
X102883332Y-113792619D01*
X149648095Y-93790238D02*
X149743333Y-93742619D01*
X149743333Y-93742619D02*
X149886190Y-93742619D01*
X149886190Y-93742619D02*
X150029047Y-93790238D01*
X150029047Y-93790238D02*
X150124285Y-93885476D01*
X150124285Y-93885476D02*
X150171904Y-93980714D01*
X150171904Y-93980714D02*
X150219523Y-94171190D01*
X150219523Y-94171190D02*
X150219523Y-94314047D01*
X150219523Y-94314047D02*
X150171904Y-94504523D01*
X150171904Y-94504523D02*
X150124285Y-94599761D01*
X150124285Y-94599761D02*
X150029047Y-94695000D01*
X150029047Y-94695000D02*
X149886190Y-94742619D01*
X149886190Y-94742619D02*
X149790952Y-94742619D01*
X149790952Y-94742619D02*
X149648095Y-94695000D01*
X149648095Y-94695000D02*
X149600476Y-94647380D01*
X149600476Y-94647380D02*
X149600476Y-94314047D01*
X149600476Y-94314047D02*
X149790952Y-94314047D01*
X130747142Y-94218809D02*
X131080475Y-94218809D01*
X131080475Y-94742619D02*
X131080475Y-93742619D01*
X131080475Y-93742619D02*
X130604285Y-93742619D01*
X112091904Y-94742619D02*
X112091904Y-93742619D01*
X112091904Y-93742619D02*
X111853809Y-93742619D01*
X111853809Y-93742619D02*
X111710952Y-93790238D01*
X111710952Y-93790238D02*
X111615714Y-93885476D01*
X111615714Y-93885476D02*
X111568095Y-93980714D01*
X111568095Y-93980714D02*
X111520476Y-94171190D01*
X111520476Y-94171190D02*
X111520476Y-94314047D01*
X111520476Y-94314047D02*
X111568095Y-94504523D01*
X111568095Y-94504523D02*
X111615714Y-94599761D01*
X111615714Y-94599761D02*
X111710952Y-94695000D01*
X111710952Y-94695000D02*
X111853809Y-94742619D01*
X111853809Y-94742619D02*
X112091904Y-94742619D01*
X83663332Y-112792619D02*
X82996666Y-112792619D01*
X82996666Y-112792619D02*
X83663332Y-113792619D01*
X83663332Y-113792619D02*
X82996666Y-113792619D01*
X93245713Y-94695000D02*
X93102856Y-94742619D01*
X93102856Y-94742619D02*
X92864761Y-94742619D01*
X92864761Y-94742619D02*
X92769523Y-94695000D01*
X92769523Y-94695000D02*
X92721904Y-94647380D01*
X92721904Y-94647380D02*
X92674285Y-94552142D01*
X92674285Y-94552142D02*
X92674285Y-94456904D01*
X92674285Y-94456904D02*
X92721904Y-94361666D01*
X92721904Y-94361666D02*
X92769523Y-94314047D01*
X92769523Y-94314047D02*
X92864761Y-94266428D01*
X92864761Y-94266428D02*
X93055237Y-94218809D01*
X93055237Y-94218809D02*
X93150475Y-94171190D01*
X93150475Y-94171190D02*
X93198094Y-94123571D01*
X93198094Y-94123571D02*
X93245713Y-94028333D01*
X93245713Y-94028333D02*
X93245713Y-93933095D01*
X93245713Y-93933095D02*
X93198094Y-93837857D01*
X93198094Y-93837857D02*
X93150475Y-93790238D01*
X93150475Y-93790238D02*
X93055237Y-93742619D01*
X93055237Y-93742619D02*
X92817142Y-93742619D01*
X92817142Y-93742619D02*
X92674285Y-93790238D01*
X73948094Y-94456904D02*
X73471904Y-94456904D01*
X74043332Y-94742619D02*
X73709999Y-93742619D01*
X73709999Y-93742619D02*
X73376666Y-94742619D01*
X164229999Y-75216428D02*
X164229999Y-75692619D01*
X164563332Y-74692619D02*
X164229999Y-75216428D01*
X164229999Y-75216428D02*
X163896666Y-74692619D01*
X145485713Y-74702619D02*
X144914285Y-74702619D01*
X145199999Y-75702619D02*
X145199999Y-74702619D01*
X125900476Y-75692619D02*
X126233809Y-75216428D01*
X126471904Y-75692619D02*
X126471904Y-74692619D01*
X126471904Y-74692619D02*
X126090952Y-74692619D01*
X126090952Y-74692619D02*
X125995714Y-74740238D01*
X125995714Y-74740238D02*
X125948095Y-74787857D01*
X125948095Y-74787857D02*
X125900476Y-74883095D01*
X125900476Y-74883095D02*
X125900476Y-75025952D01*
X125900476Y-75025952D02*
X125948095Y-75121190D01*
X125948095Y-75121190D02*
X125995714Y-75168809D01*
X125995714Y-75168809D02*
X126090952Y-75216428D01*
X126090952Y-75216428D02*
X126471904Y-75216428D01*
X107514285Y-75168809D02*
X107180952Y-75168809D01*
X107038095Y-75692619D02*
X107514285Y-75692619D01*
X107514285Y-75692619D02*
X107514285Y-74692619D01*
X107514285Y-74692619D02*
X107038095Y-74692619D01*
X88478570Y-74702619D02*
X88240475Y-75702619D01*
X88240475Y-75702619D02*
X88049999Y-74988333D01*
X88049999Y-74988333D02*
X87859523Y-75702619D01*
X87859523Y-75702619D02*
X87621428Y-74702619D01*
X100795714Y-132546904D02*
X100319524Y-132546904D01*
X100890952Y-132832619D02*
X100557619Y-131832619D01*
X100557619Y-131832619D02*
X100224286Y-132832619D01*
X99748095Y-132832619D02*
X99843333Y-132785000D01*
X99843333Y-132785000D02*
X99890952Y-132689761D01*
X99890952Y-132689761D02*
X99890952Y-131832619D01*
X99509999Y-132165952D02*
X99129047Y-132165952D01*
X99367142Y-131832619D02*
X99367142Y-132689761D01*
X99367142Y-132689761D02*
X99319523Y-132785000D01*
X99319523Y-132785000D02*
X99224285Y-132832619D01*
X99224285Y-132832619D02*
X99129047Y-132832619D01*
X77289046Y-131832619D02*
X77050951Y-132832619D01*
X77050951Y-132832619D02*
X76860475Y-132118333D01*
X76860475Y-132118333D02*
X76669999Y-132832619D01*
X76669999Y-132832619D02*
X76431904Y-131832619D01*
X76050951Y-132832619D02*
X76050951Y-132165952D01*
X76050951Y-131832619D02*
X76098570Y-131880238D01*
X76098570Y-131880238D02*
X76050951Y-131927857D01*
X76050951Y-131927857D02*
X76003332Y-131880238D01*
X76003332Y-131880238D02*
X76050951Y-131832619D01*
X76050951Y-131832619D02*
X76050951Y-131927857D01*
X75574761Y-132165952D02*
X75574761Y-132832619D01*
X75574761Y-132261190D02*
X75527142Y-132213571D01*
X75527142Y-132213571D02*
X75431904Y-132165952D01*
X75431904Y-132165952D02*
X75289047Y-132165952D01*
X75289047Y-132165952D02*
X75193809Y-132213571D01*
X75193809Y-132213571D02*
X75146190Y-132308809D01*
X75146190Y-132308809D02*
X75146190Y-132832619D01*
X53007619Y-132747380D02*
X53055238Y-132795000D01*
X53055238Y-132795000D02*
X53198095Y-132842619D01*
X53198095Y-132842619D02*
X53293333Y-132842619D01*
X53293333Y-132842619D02*
X53436190Y-132795000D01*
X53436190Y-132795000D02*
X53531428Y-132699761D01*
X53531428Y-132699761D02*
X53579047Y-132604523D01*
X53579047Y-132604523D02*
X53626666Y-132414047D01*
X53626666Y-132414047D02*
X53626666Y-132271190D01*
X53626666Y-132271190D02*
X53579047Y-132080714D01*
X53579047Y-132080714D02*
X53531428Y-131985476D01*
X53531428Y-131985476D02*
X53436190Y-131890238D01*
X53436190Y-131890238D02*
X53293333Y-131842619D01*
X53293333Y-131842619D02*
X53198095Y-131842619D01*
X53198095Y-131842619D02*
X53055238Y-131890238D01*
X53055238Y-131890238D02*
X53007619Y-131937857D01*
X52721904Y-132175952D02*
X52340952Y-132175952D01*
X52579047Y-131842619D02*
X52579047Y-132699761D01*
X52579047Y-132699761D02*
X52531428Y-132795000D01*
X52531428Y-132795000D02*
X52436190Y-132842619D01*
X52436190Y-132842619D02*
X52340952Y-132842619D01*
X52007618Y-132842619D02*
X52007618Y-132175952D01*
X52007618Y-132366428D02*
X51959999Y-132271190D01*
X51959999Y-132271190D02*
X51912380Y-132223571D01*
X51912380Y-132223571D02*
X51817142Y-132175952D01*
X51817142Y-132175952D02*
X51721904Y-132175952D01*
X51245713Y-132842619D02*
X51340951Y-132795000D01*
X51340951Y-132795000D02*
X51388570Y-132699761D01*
X51388570Y-132699761D02*
X51388570Y-131842619D01*
X58767618Y-113745000D02*
X58624761Y-113792619D01*
X58624761Y-113792619D02*
X58386666Y-113792619D01*
X58386666Y-113792619D02*
X58291428Y-113745000D01*
X58291428Y-113745000D02*
X58243809Y-113697380D01*
X58243809Y-113697380D02*
X58196190Y-113602142D01*
X58196190Y-113602142D02*
X58196190Y-113506904D01*
X58196190Y-113506904D02*
X58243809Y-113411666D01*
X58243809Y-113411666D02*
X58291428Y-113364047D01*
X58291428Y-113364047D02*
X58386666Y-113316428D01*
X58386666Y-113316428D02*
X58577142Y-113268809D01*
X58577142Y-113268809D02*
X58672380Y-113221190D01*
X58672380Y-113221190D02*
X58719999Y-113173571D01*
X58719999Y-113173571D02*
X58767618Y-113078333D01*
X58767618Y-113078333D02*
X58767618Y-112983095D01*
X58767618Y-112983095D02*
X58719999Y-112887857D01*
X58719999Y-112887857D02*
X58672380Y-112840238D01*
X58672380Y-112840238D02*
X58577142Y-112792619D01*
X58577142Y-112792619D02*
X58339047Y-112792619D01*
X58339047Y-112792619D02*
X58196190Y-112840238D01*
X57767618Y-113792619D02*
X57767618Y-112792619D01*
X57339047Y-113792619D02*
X57339047Y-113268809D01*
X57339047Y-113268809D02*
X57386666Y-113173571D01*
X57386666Y-113173571D02*
X57481904Y-113125952D01*
X57481904Y-113125952D02*
X57624761Y-113125952D01*
X57624761Y-113125952D02*
X57719999Y-113173571D01*
X57719999Y-113173571D02*
X57767618Y-113221190D01*
X56862856Y-113792619D02*
X56862856Y-113125952D01*
X56862856Y-112792619D02*
X56910475Y-112840238D01*
X56910475Y-112840238D02*
X56862856Y-112887857D01*
X56862856Y-112887857D02*
X56815237Y-112840238D01*
X56815237Y-112840238D02*
X56862856Y-112792619D01*
X56862856Y-112792619D02*
X56862856Y-112887857D01*
X56529523Y-113125952D02*
X56148571Y-113125952D01*
X56386666Y-113792619D02*
X56386666Y-112935476D01*
X56386666Y-112935476D02*
X56339047Y-112840238D01*
X56339047Y-112840238D02*
X56243809Y-112792619D01*
X56243809Y-112792619D02*
X56148571Y-112792619D01*
X55958094Y-113125952D02*
X55577142Y-113125952D01*
X55815237Y-112792619D02*
X55815237Y-113649761D01*
X55815237Y-113649761D02*
X55767618Y-113745000D01*
X55767618Y-113745000D02*
X55672380Y-113792619D01*
X55672380Y-113792619D02*
X55577142Y-113792619D01*
X53497618Y-94208809D02*
X53164285Y-94208809D01*
X53021428Y-94732619D02*
X53497618Y-94732619D01*
X53497618Y-94732619D02*
X53497618Y-93732619D01*
X53497618Y-93732619D02*
X53021428Y-93732619D01*
X52640475Y-94685000D02*
X52545237Y-94732619D01*
X52545237Y-94732619D02*
X52354761Y-94732619D01*
X52354761Y-94732619D02*
X52259523Y-94685000D01*
X52259523Y-94685000D02*
X52211904Y-94589761D01*
X52211904Y-94589761D02*
X52211904Y-94542142D01*
X52211904Y-94542142D02*
X52259523Y-94446904D01*
X52259523Y-94446904D02*
X52354761Y-94399285D01*
X52354761Y-94399285D02*
X52497618Y-94399285D01*
X52497618Y-94399285D02*
X52592856Y-94351666D01*
X52592856Y-94351666D02*
X52640475Y-94256428D01*
X52640475Y-94256428D02*
X52640475Y-94208809D01*
X52640475Y-94208809D02*
X52592856Y-94113571D01*
X52592856Y-94113571D02*
X52497618Y-94065952D01*
X52497618Y-94065952D02*
X52354761Y-94065952D01*
X52354761Y-94065952D02*
X52259523Y-94113571D01*
X51354761Y-94685000D02*
X51449999Y-94732619D01*
X51449999Y-94732619D02*
X51640475Y-94732619D01*
X51640475Y-94732619D02*
X51735713Y-94685000D01*
X51735713Y-94685000D02*
X51783332Y-94637380D01*
X51783332Y-94637380D02*
X51830951Y-94542142D01*
X51830951Y-94542142D02*
X51830951Y-94256428D01*
X51830951Y-94256428D02*
X51783332Y-94161190D01*
X51783332Y-94161190D02*
X51735713Y-94113571D01*
X51735713Y-94113571D02*
X51640475Y-94065952D01*
X51640475Y-94065952D02*
X51449999Y-94065952D01*
X51449999Y-94065952D02*
X51354761Y-94113571D01*
X68639047Y-75787857D02*
X68734285Y-75740238D01*
X68734285Y-75740238D02*
X68829523Y-75645000D01*
X68829523Y-75645000D02*
X68972380Y-75502142D01*
X68972380Y-75502142D02*
X69067618Y-75454523D01*
X69067618Y-75454523D02*
X69162856Y-75454523D01*
X69115237Y-75692619D02*
X69210475Y-75645000D01*
X69210475Y-75645000D02*
X69305713Y-75549761D01*
X69305713Y-75549761D02*
X69353332Y-75359285D01*
X69353332Y-75359285D02*
X69353332Y-75025952D01*
X69353332Y-75025952D02*
X69305713Y-74835476D01*
X69305713Y-74835476D02*
X69210475Y-74740238D01*
X69210475Y-74740238D02*
X69115237Y-74692619D01*
X69115237Y-74692619D02*
X68924761Y-74692619D01*
X68924761Y-74692619D02*
X68829523Y-74740238D01*
X68829523Y-74740238D02*
X68734285Y-74835476D01*
X68734285Y-74835476D02*
X68686666Y-75025952D01*
X68686666Y-75025952D02*
X68686666Y-75359285D01*
X68686666Y-75359285D02*
X68734285Y-75549761D01*
X68734285Y-75549761D02*
X68829523Y-75645000D01*
X68829523Y-75645000D02*
X68924761Y-75692619D01*
X68924761Y-75692619D02*
X69115237Y-75692619D01*
X164179523Y-56312619D02*
X164369999Y-56312619D01*
X164369999Y-56312619D02*
X164465237Y-56360238D01*
X164465237Y-56360238D02*
X164512856Y-56407857D01*
X164512856Y-56407857D02*
X164608094Y-56550714D01*
X164608094Y-56550714D02*
X164655713Y-56741190D01*
X164655713Y-56741190D02*
X164655713Y-57122142D01*
X164655713Y-57122142D02*
X164608094Y-57217380D01*
X164608094Y-57217380D02*
X164560475Y-57265000D01*
X164560475Y-57265000D02*
X164465237Y-57312619D01*
X164465237Y-57312619D02*
X164274761Y-57312619D01*
X164274761Y-57312619D02*
X164179523Y-57265000D01*
X164179523Y-57265000D02*
X164131904Y-57217380D01*
X164131904Y-57217380D02*
X164084285Y-57122142D01*
X164084285Y-57122142D02*
X164084285Y-56884047D01*
X164084285Y-56884047D02*
X164131904Y-56788809D01*
X164131904Y-56788809D02*
X164179523Y-56741190D01*
X164179523Y-56741190D02*
X164274761Y-56693571D01*
X164274761Y-56693571D02*
X164465237Y-56693571D01*
X164465237Y-56693571D02*
X164560475Y-56741190D01*
X164560475Y-56741190D02*
X164608094Y-56788809D01*
X164608094Y-56788809D02*
X164655713Y-56884047D01*
X145111904Y-56332619D02*
X145588094Y-56332619D01*
X145588094Y-56332619D02*
X145635713Y-56808809D01*
X145635713Y-56808809D02*
X145588094Y-56761190D01*
X145588094Y-56761190D02*
X145492856Y-56713571D01*
X145492856Y-56713571D02*
X145254761Y-56713571D01*
X145254761Y-56713571D02*
X145159523Y-56761190D01*
X145159523Y-56761190D02*
X145111904Y-56808809D01*
X145111904Y-56808809D02*
X145064285Y-56904047D01*
X145064285Y-56904047D02*
X145064285Y-57142142D01*
X145064285Y-57142142D02*
X145111904Y-57237380D01*
X145111904Y-57237380D02*
X145159523Y-57285000D01*
X145159523Y-57285000D02*
X145254761Y-57332619D01*
X145254761Y-57332619D02*
X145492856Y-57332619D01*
X145492856Y-57332619D02*
X145588094Y-57285000D01*
X145588094Y-57285000D02*
X145635713Y-57237380D01*
X125999523Y-56665952D02*
X125999523Y-57332619D01*
X126237618Y-56285000D02*
X126475713Y-56999285D01*
X126475713Y-56999285D02*
X125856666Y-56999285D01*
X107533332Y-56332619D02*
X106914285Y-56332619D01*
X106914285Y-56332619D02*
X107247618Y-56713571D01*
X107247618Y-56713571D02*
X107104761Y-56713571D01*
X107104761Y-56713571D02*
X107009523Y-56761190D01*
X107009523Y-56761190D02*
X106961904Y-56808809D01*
X106961904Y-56808809D02*
X106914285Y-56904047D01*
X106914285Y-56904047D02*
X106914285Y-57142142D01*
X106914285Y-57142142D02*
X106961904Y-57237380D01*
X106961904Y-57237380D02*
X107009523Y-57285000D01*
X107009523Y-57285000D02*
X107104761Y-57332619D01*
X107104761Y-57332619D02*
X107390475Y-57332619D01*
X107390475Y-57332619D02*
X107485713Y-57285000D01*
X107485713Y-57285000D02*
X107533332Y-57237380D01*
X88375713Y-56417857D02*
X88328094Y-56370238D01*
X88328094Y-56370238D02*
X88232856Y-56322619D01*
X88232856Y-56322619D02*
X87994761Y-56322619D01*
X87994761Y-56322619D02*
X87899523Y-56370238D01*
X87899523Y-56370238D02*
X87851904Y-56417857D01*
X87851904Y-56417857D02*
X87804285Y-56513095D01*
X87804285Y-56513095D02*
X87804285Y-56608333D01*
X87804285Y-56608333D02*
X87851904Y-56751190D01*
X87851904Y-56751190D02*
X88423332Y-57322619D01*
X88423332Y-57322619D02*
X87804285Y-57322619D01*
X68774285Y-57332619D02*
X69345713Y-57332619D01*
X69059999Y-57332619D02*
X69059999Y-56332619D01*
X69059999Y-56332619D02*
X69155237Y-56475476D01*
X69155237Y-56475476D02*
X69250475Y-56570714D01*
X69250475Y-56570714D02*
X69345713Y-56618333D01*
X51210475Y-74692619D02*
X50639047Y-74692619D01*
X50924761Y-75692619D02*
X50924761Y-74692619D01*
X49877142Y-75692619D02*
X49877142Y-75168809D01*
X49877142Y-75168809D02*
X49924761Y-75073571D01*
X49924761Y-75073571D02*
X50019999Y-75025952D01*
X50019999Y-75025952D02*
X50210475Y-75025952D01*
X50210475Y-75025952D02*
X50305713Y-75073571D01*
X49877142Y-75645000D02*
X49972380Y-75692619D01*
X49972380Y-75692619D02*
X50210475Y-75692619D01*
X50210475Y-75692619D02*
X50305713Y-75645000D01*
X50305713Y-75645000D02*
X50353332Y-75549761D01*
X50353332Y-75549761D02*
X50353332Y-75454523D01*
X50353332Y-75454523D02*
X50305713Y-75359285D01*
X50305713Y-75359285D02*
X50210475Y-75311666D01*
X50210475Y-75311666D02*
X49972380Y-75311666D01*
X49972380Y-75311666D02*
X49877142Y-75264047D01*
X49400951Y-75692619D02*
X49400951Y-74692619D01*
X49400951Y-75073571D02*
X49305713Y-75025952D01*
X49305713Y-75025952D02*
X49115237Y-75025952D01*
X49115237Y-75025952D02*
X49019999Y-75073571D01*
X49019999Y-75073571D02*
X48972380Y-75121190D01*
X48972380Y-75121190D02*
X48924761Y-75216428D01*
X48924761Y-75216428D02*
X48924761Y-75502142D01*
X48924761Y-75502142D02*
X48972380Y-75597380D01*
X48972380Y-75597380D02*
X49019999Y-75645000D01*
X49019999Y-75645000D02*
X49115237Y-75692619D01*
X49115237Y-75692619D02*
X49305713Y-75692619D01*
X49305713Y-75692619D02*
X49400951Y-75645000D01*
D11*
%TO.C,C17*%
X308874664Y-89065000D02*
X309090336Y-89065000D01*
X308874664Y-89785000D02*
X309090336Y-89785000D01*
%TO.C,D57*%
X78290000Y-130100000D02*
X78290000Y-126200000D01*
X80290000Y-130100000D02*
X78290000Y-130100000D01*
X80290000Y-130100000D02*
X80290000Y-126200000D01*
%TO.C,D41*%
X247362500Y-92000000D02*
X247362500Y-88100000D01*
X249362500Y-92000000D02*
X247362500Y-92000000D01*
X249362500Y-92000000D02*
X249362500Y-88100000D01*
%TO.C,R4*%
X299782500Y-101503016D02*
X299782500Y-101195734D01*
X300542500Y-101503016D02*
X300542500Y-101195734D01*
%TO.C,C11*%
X295950336Y-87785000D02*
X295734664Y-87785000D01*
X295950336Y-87065000D02*
X295734664Y-87065000D01*
%TO.C,D46*%
X123537500Y-111050000D02*
X123537500Y-107150000D01*
X125537500Y-111050000D02*
X123537500Y-111050000D01*
X125537500Y-111050000D02*
X125537500Y-107150000D01*
%TO.C,D34*%
X114012500Y-92000000D02*
X114012500Y-88100000D01*
X116012500Y-92000000D02*
X114012500Y-92000000D01*
X116012500Y-92000000D02*
X116012500Y-88100000D01*
%TO.C,D3*%
X90200000Y-53900000D02*
X90200000Y-50000000D01*
X92200000Y-53900000D02*
X90200000Y-53900000D01*
X92200000Y-53900000D02*
X92200000Y-50000000D01*
%TO.C,R2*%
X296574526Y-82269941D02*
X296910059Y-82605474D01*
X295835599Y-83008868D02*
X296171132Y-83344401D01*
%TO.C,C19*%
X308874664Y-93502500D02*
X309090336Y-93502500D01*
X308874664Y-94222500D02*
X309090336Y-94222500D01*
%TO.C,R9*%
X296222500Y-102233859D02*
X296222500Y-102541141D01*
X295462500Y-102233859D02*
X295462500Y-102541141D01*
%TO.C,Y1*%
X300762500Y-104387500D02*
X300762500Y-100387500D01*
X304062500Y-104387500D02*
X300762500Y-104387500D01*
%TO.C,C7*%
X295950336Y-86785000D02*
X295734664Y-86785000D01*
X295950336Y-86065000D02*
X295734664Y-86065000D01*
%TO.C,D12*%
X304512500Y-49137500D02*
X304512500Y-45237500D01*
X306512500Y-49137500D02*
X304512500Y-49137500D01*
X306512500Y-49137500D02*
X306512500Y-45237500D01*
%TO.C,D5*%
X128300000Y-53900000D02*
X128300000Y-50000000D01*
X130300000Y-53900000D02*
X128300000Y-53900000D01*
X130300000Y-53900000D02*
X130300000Y-50000000D01*
%TO.C,D48*%
X161637500Y-111050000D02*
X161637500Y-107150000D01*
X163637500Y-111050000D02*
X161637500Y-111050000D01*
X163637500Y-111050000D02*
X163637500Y-107150000D01*
%TO.C,C2*%
X299802500Y-103457211D02*
X299802500Y-103241539D01*
X300522500Y-103457211D02*
X300522500Y-103241539D01*
%TO.C,D65*%
X265693750Y-130100000D02*
X265693750Y-126200000D01*
X267693750Y-130100000D02*
X265693750Y-130100000D01*
X267693750Y-130100000D02*
X267693750Y-126200000D01*
%TO.C,D26*%
X255450000Y-72950000D02*
X255450000Y-69050000D01*
X257450000Y-72950000D02*
X255450000Y-72950000D01*
X257450000Y-72950000D02*
X257450000Y-69050000D01*
%TO.C,D39*%
X209262500Y-92000000D02*
X209262500Y-88100000D01*
X211262500Y-92000000D02*
X209262500Y-92000000D01*
X211262500Y-92000000D02*
X211262500Y-88100000D01*
%TO.C,D49*%
X180687500Y-111050000D02*
X180687500Y-107150000D01*
X182687500Y-111050000D02*
X180687500Y-111050000D01*
X182687500Y-111050000D02*
X182687500Y-107150000D01*
%TO.C,D10*%
X255450000Y-49137500D02*
X255450000Y-45237500D01*
X257450000Y-49137500D02*
X255450000Y-49137500D01*
X257450000Y-49137500D02*
X257450000Y-45237500D01*
%TO.C,C8*%
X302552500Y-83445336D02*
X302552500Y-83229664D01*
X303272500Y-83445336D02*
X303272500Y-83229664D01*
%TO.C,D43*%
X59243750Y-111050000D02*
X59243750Y-107150000D01*
X61243750Y-111050000D02*
X59243750Y-111050000D01*
X61243750Y-111050000D02*
X61243750Y-107150000D01*
%TO.C,D16*%
X71150000Y-72950000D02*
X71150000Y-69050000D01*
X73150000Y-72950000D02*
X71150000Y-72950000D01*
X73150000Y-72950000D02*
X73150000Y-69050000D01*
%TO.C,C20*%
X297202500Y-102279664D02*
X297202500Y-102495336D01*
X296482500Y-102279664D02*
X296482500Y-102495336D01*
%TO.C,D54*%
X278318750Y-111050000D02*
X278318750Y-107150000D01*
X280318750Y-111050000D02*
X278318750Y-111050000D01*
X280318750Y-111050000D02*
X280318750Y-107150000D01*
%TO.C,D58*%
X102110000Y-130100000D02*
X102110000Y-126200000D01*
X104110000Y-130100000D02*
X102110000Y-130100000D01*
X104110000Y-130100000D02*
X104110000Y-126200000D01*
%TO.C,U4*%
X199638750Y-43677500D02*
X198988750Y-43677500D01*
X199638750Y-43677500D02*
X201313750Y-43677500D01*
X199638750Y-46797500D02*
X198988750Y-46797500D01*
X199638750Y-46797500D02*
X200288750Y-46797500D01*
%TO.C,D33*%
X94962500Y-92000000D02*
X94962500Y-88100000D01*
X96962500Y-92000000D02*
X94962500Y-92000000D01*
X96962500Y-92000000D02*
X96962500Y-88100000D01*
%TO.C,D7*%
X166400000Y-53900000D02*
X166400000Y-50000000D01*
X168400000Y-53900000D02*
X166400000Y-53900000D01*
X168400000Y-53900000D02*
X168400000Y-50000000D01*
%TO.C,R3*%
X295513867Y-83330600D02*
X295849400Y-83666133D01*
X294774940Y-84069527D02*
X295110473Y-84405060D01*
%TO.C,D11*%
X280700000Y-49137500D02*
X280700000Y-45237500D01*
X282700000Y-49137500D02*
X280700000Y-49137500D01*
X282700000Y-49137500D02*
X282700000Y-45237500D01*
%TO.C,F1*%
X200548750Y-40759564D02*
X200548750Y-39555436D01*
X198728750Y-40759564D02*
X198728750Y-39555436D01*
%TO.C,D47*%
X142587500Y-111050000D02*
X142587500Y-107150000D01*
X144587500Y-111050000D02*
X142587500Y-111050000D01*
X144587500Y-111050000D02*
X144587500Y-107150000D01*
%TO.C,D22*%
X185450000Y-72950000D02*
X185450000Y-69050000D01*
X187450000Y-72950000D02*
X185450000Y-72950000D01*
X187450000Y-72950000D02*
X187450000Y-69050000D01*
%TO.C,D30*%
X342612500Y-68187500D02*
X342612500Y-64287500D01*
X344612500Y-68187500D02*
X342612500Y-68187500D01*
X344612500Y-68187500D02*
X344612500Y-64287500D01*
%TO.C,D37*%
X171162500Y-92000000D02*
X171162500Y-88100000D01*
X173162500Y-92000000D02*
X171162500Y-92000000D01*
X173162500Y-92000000D02*
X173162500Y-88100000D01*
%TO.C,D42*%
X273556250Y-92000000D02*
X273556250Y-88100000D01*
X275556250Y-92000000D02*
X273556250Y-92000000D01*
X275556250Y-92000000D02*
X275556250Y-88100000D01*
%TO.C,C10*%
X199530914Y-48847500D02*
X199746586Y-48847500D01*
X199530914Y-48127500D02*
X199746586Y-48127500D01*
%TO.C,D9*%
X242600000Y-49137500D02*
X242600000Y-45237500D01*
X244600000Y-49137500D02*
X242600000Y-49137500D01*
X244600000Y-49137500D02*
X244600000Y-45237500D01*
%TO.C,C9*%
X295202500Y-102279664D02*
X295202500Y-102495336D01*
X294482500Y-102279664D02*
X294482500Y-102495336D01*
%TO.C,D24*%
X223550000Y-72950000D02*
X223550000Y-69050000D01*
X225550000Y-72950000D02*
X223550000Y-72950000D01*
X225550000Y-72950000D02*
X225550000Y-69050000D01*
%TO.C,U3*%
X324187500Y-86062500D02*
X324187500Y-85802500D01*
X324187500Y-80872500D02*
X325862500Y-80872500D01*
X324187500Y-80612500D02*
X324187500Y-80872500D01*
X321462500Y-86062500D02*
X324187500Y-86062500D01*
X321462500Y-86062500D02*
X318737500Y-86062500D01*
X321462500Y-80612500D02*
X324187500Y-80612500D01*
X321462500Y-80612500D02*
X318737500Y-80612500D01*
X318737500Y-86062500D02*
X318737500Y-85802500D01*
X318737500Y-80612500D02*
X318737500Y-80872500D01*
%TO.C,D4*%
X109250000Y-53900000D02*
X109250000Y-50000000D01*
X111250000Y-53900000D02*
X109250000Y-53900000D01*
X111250000Y-53900000D02*
X111250000Y-50000000D01*
%TO.C,C13*%
X301552500Y-83445336D02*
X301552500Y-83229664D01*
X302272500Y-83445336D02*
X302272500Y-83229664D01*
%TO.C,C4*%
X320822500Y-78878164D02*
X320822500Y-79093836D01*
X320102500Y-78878164D02*
X320102500Y-79093836D01*
%TO.C,R7*%
X199738750Y-31773859D02*
X199738750Y-32081141D01*
X200498750Y-31773859D02*
X200498750Y-32081141D01*
%TO.C,R8*%
X322842500Y-78832359D02*
X322842500Y-79139641D01*
X322082500Y-78832359D02*
X322082500Y-79139641D01*
%TO.C,USB1*%
X199248750Y-33912500D02*
X199248750Y-31912500D01*
X189848750Y-33912500D02*
X189848750Y-31912500D01*
%TO.C,D25*%
X242600000Y-72950000D02*
X242600000Y-69050000D01*
X244600000Y-72950000D02*
X242600000Y-72950000D01*
X244600000Y-72950000D02*
X244600000Y-69050000D01*
%TO.C,D18*%
X109250000Y-72950000D02*
X109250000Y-69050000D01*
X111250000Y-72950000D02*
X109250000Y-72950000D01*
X111250000Y-72950000D02*
X111250000Y-69050000D01*
%TO.C,D55*%
X323562500Y-111050000D02*
X323562500Y-107150000D01*
X325562500Y-111050000D02*
X323562500Y-111050000D01*
X325562500Y-111050000D02*
X325562500Y-107150000D01*
%TO.C,D40*%
X228312500Y-92000000D02*
X228312500Y-88100000D01*
X230312500Y-92000000D02*
X228312500Y-92000000D01*
X230312500Y-92000000D02*
X230312500Y-88100000D01*
%TO.C,C3*%
X188618750Y-31819664D02*
X188618750Y-32035336D01*
X189338750Y-31819664D02*
X189338750Y-32035336D01*
%TO.C,C14*%
X303552500Y-83445336D02*
X303552500Y-83229664D01*
X304272500Y-83445336D02*
X304272500Y-83229664D01*
%TO.C,D66*%
X304512500Y-130100000D02*
X304512500Y-126200000D01*
X306512500Y-130100000D02*
X304512500Y-130100000D01*
X306512500Y-130100000D02*
X306512500Y-126200000D01*
%TO.C,D52*%
X237837500Y-111050000D02*
X237837500Y-107150000D01*
X239837500Y-111050000D02*
X237837500Y-111050000D01*
X239837500Y-111050000D02*
X239837500Y-107150000D01*
%TO.C,D13*%
X323562500Y-49137500D02*
X323562500Y-45237500D01*
X325562500Y-49137500D02*
X323562500Y-49137500D01*
X325562500Y-49137500D02*
X325562500Y-45237500D01*
%TO.C,D8*%
X223550000Y-49137500D02*
X223550000Y-45237500D01*
X225550000Y-49137500D02*
X223550000Y-49137500D01*
X225550000Y-49137500D02*
X225550000Y-45237500D01*
%TO.C,D17*%
X90200000Y-72950000D02*
X90200000Y-69050000D01*
X92200000Y-72950000D02*
X90200000Y-72950000D01*
X92200000Y-72950000D02*
X92200000Y-69050000D01*
%TO.C,D50*%
X199737500Y-111050000D02*
X199737500Y-107150000D01*
X201737500Y-111050000D02*
X199737500Y-111050000D01*
X201737500Y-111050000D02*
X201737500Y-107150000D01*
%TO.C,D59*%
X173540000Y-130100000D02*
X173540000Y-126200000D01*
X175540000Y-130100000D02*
X173540000Y-130100000D01*
X175540000Y-130100000D02*
X175540000Y-126200000D01*
%TO.C,D68*%
X342612500Y-130100000D02*
X342612500Y-126200000D01*
X344612500Y-130100000D02*
X342612500Y-130100000D01*
X344612500Y-130100000D02*
X344612500Y-126200000D01*
%TO.C,D28*%
X304512500Y-68187500D02*
X304512500Y-64287500D01*
X306512500Y-68187500D02*
X304512500Y-68187500D01*
X306512500Y-68187500D02*
X306512500Y-64287500D01*
%TO.C,D31*%
X54481250Y-92000000D02*
X54481250Y-88100000D01*
X56481250Y-92000000D02*
X54481250Y-92000000D01*
X56481250Y-92000000D02*
X56481250Y-88100000D01*
%TO.C,D14*%
X342612500Y-49137500D02*
X342612500Y-45237500D01*
X344612500Y-49137500D02*
X342612500Y-49137500D01*
X344612500Y-49137500D02*
X344612500Y-45237500D01*
%TO.C,C1*%
X304302500Y-102495336D02*
X304302500Y-102279664D01*
X305022500Y-102495336D02*
X305022500Y-102279664D01*
%TO.C,U1*%
X306022500Y-96472500D02*
X306022500Y-95822500D01*
X305372500Y-96472500D02*
X306022500Y-96472500D01*
X305372500Y-89252500D02*
X306022500Y-89252500D01*
X299452500Y-96472500D02*
X298802500Y-96472500D01*
X299452500Y-89252500D02*
X298802500Y-89252500D01*
X298802500Y-96472500D02*
X298802500Y-95822500D01*
X298802500Y-89252500D02*
X298802500Y-89902500D01*
%TO.C,C6*%
X199530914Y-47847500D02*
X199746586Y-47847500D01*
X199530914Y-47127500D02*
X199746586Y-47127500D01*
%TO.C,D53*%
X256887500Y-111050000D02*
X256887500Y-107150000D01*
X258887500Y-111050000D02*
X256887500Y-111050000D01*
X258887500Y-111050000D02*
X258887500Y-107150000D01*
%TO.C,D35*%
X133062500Y-92000000D02*
X133062500Y-88100000D01*
X135062500Y-92000000D02*
X133062500Y-92000000D01*
X135062500Y-92000000D02*
X135062500Y-88100000D01*
%TO.C,R6*%
X200498750Y-34081141D02*
X200498750Y-33773859D01*
X199738750Y-34081141D02*
X199738750Y-33773859D01*
%TO.C,D36*%
X152112500Y-92000000D02*
X152112500Y-88100000D01*
X154112500Y-92000000D02*
X152112500Y-92000000D01*
X154112500Y-92000000D02*
X154112500Y-88100000D01*
%TO.C,D6*%
X147350000Y-53900000D02*
X147350000Y-50000000D01*
X149350000Y-53900000D02*
X147350000Y-53900000D01*
X149350000Y-53900000D02*
X149350000Y-50000000D01*
%TO.C,D45*%
X104487500Y-111050000D02*
X104487500Y-107150000D01*
X106487500Y-111050000D02*
X104487500Y-111050000D01*
X106487500Y-111050000D02*
X106487500Y-107150000D01*
%TO.C,C16*%
X295950336Y-89785000D02*
X295734664Y-89785000D01*
X295950336Y-89065000D02*
X295734664Y-89065000D01*
%TO.C,D2*%
X71150000Y-53900000D02*
X71150000Y-50000000D01*
X73150000Y-53900000D02*
X71150000Y-53900000D01*
X73150000Y-53900000D02*
X73150000Y-50000000D01*
%TO.C,Reset1*%
X318742500Y-73604500D02*
X318742500Y-75684500D01*
X320012500Y-71924500D02*
X319522500Y-72414500D01*
X320012500Y-71924500D02*
X322912500Y-71924500D01*
X320012500Y-77364500D02*
X319522500Y-76874500D01*
X320012500Y-77364500D02*
X322912500Y-77364500D01*
X322912500Y-71924500D02*
X323402500Y-72414500D01*
X322912500Y-77364500D02*
X323402500Y-76874500D01*
X324182500Y-73604500D02*
X324182500Y-75684500D01*
%TO.C,D19*%
X128300000Y-72950000D02*
X128300000Y-69050000D01*
X130300000Y-72950000D02*
X128300000Y-72950000D01*
X130300000Y-72950000D02*
X130300000Y-69050000D01*
%TO.C,D51*%
X218787500Y-111050000D02*
X218787500Y-107150000D01*
X220787500Y-111050000D02*
X218787500Y-111050000D01*
X220787500Y-111050000D02*
X220787500Y-107150000D01*
%TO.C,D38*%
X190212500Y-92000000D02*
X190212500Y-88100000D01*
X192212500Y-92000000D02*
X190212500Y-92000000D01*
X192212500Y-92000000D02*
X192212500Y-88100000D01*
%TO.C,R5*%
X189358750Y-34081141D02*
X189358750Y-33773859D01*
X188598750Y-34081141D02*
X188598750Y-33773859D01*
%TO.C,C5*%
X199530914Y-43347500D02*
X199746586Y-43347500D01*
X199530914Y-42627500D02*
X199746586Y-42627500D01*
%TO.C,C15*%
X295950336Y-88785000D02*
X295734664Y-88785000D01*
X295950336Y-88065000D02*
X295734664Y-88065000D01*
%TO.C,D27*%
X280700000Y-72950000D02*
X280700000Y-69050000D01*
X282700000Y-72950000D02*
X280700000Y-72950000D01*
X282700000Y-72950000D02*
X282700000Y-69050000D01*
%TO.C,D32*%
X75912500Y-92000000D02*
X75912500Y-88100000D01*
X77912500Y-92000000D02*
X75912500Y-92000000D01*
X77912500Y-92000000D02*
X77912500Y-88100000D01*
%TO.C,D67*%
X323562500Y-130100000D02*
X323562500Y-126200000D01*
X325562500Y-130100000D02*
X323562500Y-130100000D01*
X325562500Y-130100000D02*
X325562500Y-126200000D01*
%TO.C,D23*%
X204500000Y-72950000D02*
X204500000Y-69050000D01*
X206500000Y-72950000D02*
X204500000Y-72950000D01*
X206500000Y-72950000D02*
X206500000Y-69050000D01*
%TO.C,D56*%
X54480000Y-130100000D02*
X54480000Y-126200000D01*
X56480000Y-130100000D02*
X54480000Y-130100000D01*
X56480000Y-130100000D02*
X56480000Y-126200000D01*
%TO.C,D20*%
X147350000Y-72950000D02*
X147350000Y-69050000D01*
X149350000Y-72950000D02*
X147350000Y-72950000D01*
X149350000Y-72950000D02*
X149350000Y-69050000D01*
%TO.C,U2*%
X194548750Y-38597500D02*
X195348750Y-38597500D01*
X194548750Y-38597500D02*
X193748750Y-38597500D01*
X192448750Y-41717500D02*
X195348750Y-41717500D01*
X192448750Y-41107500D02*
X192448750Y-41717500D01*
%TO.C,D15*%
X52100000Y-72950000D02*
X52100000Y-69050000D01*
X54100000Y-72950000D02*
X52100000Y-72950000D01*
X54100000Y-72950000D02*
X54100000Y-69050000D01*
%TO.C,C18*%
X295950336Y-94222500D02*
X295734664Y-94222500D01*
X295950336Y-93502500D02*
X295734664Y-93502500D01*
%TO.C,D44*%
X85437500Y-111050000D02*
X85437500Y-107150000D01*
X87437500Y-111050000D02*
X85437500Y-111050000D01*
X87437500Y-111050000D02*
X87437500Y-107150000D01*
%TO.C,D63*%
X247044450Y-130100000D02*
X247044450Y-126200000D01*
X249044450Y-130100000D02*
X247044450Y-130100000D01*
X249044450Y-130100000D02*
X249044450Y-126200000D01*
%TO.C,C12*%
X300552500Y-83445336D02*
X300552500Y-83229664D01*
X301272500Y-83445336D02*
X301272500Y-83229664D01*
%TO.C,D29*%
X323562500Y-68187500D02*
X323562500Y-64287500D01*
X325562500Y-68187500D02*
X323562500Y-68187500D01*
X325562500Y-68187500D02*
X325562500Y-64287500D01*
%TO.C,D64*%
X261650000Y-130100000D02*
X261650000Y-126200000D01*
X263650000Y-130100000D02*
X261650000Y-130100000D01*
X263650000Y-130100000D02*
X263650000Y-126200000D01*
%TO.C,D21*%
X166400000Y-72950000D02*
X166400000Y-69050000D01*
X168400000Y-72950000D02*
X166400000Y-72950000D01*
X168400000Y-72950000D02*
X168400000Y-69050000D01*
%TD*%
%LPC*%
D10*
X330245950Y-71519750D02*
G75*
G03*
X328995950Y-72769750I50J-1250050D01*
G01*
X328995950Y-78269750D02*
X328995950Y-72769750D01*
X342745950Y-79519750D02*
G75*
G03*
X343995950Y-78269750I-50J1250050D01*
G01*
X343995950Y-72769750D02*
G75*
G03*
X342745950Y-71519750I-1250050J-50D01*
G01*
X328995950Y-78269750D02*
G75*
G03*
X330245950Y-79519750I1250050J50D01*
G01*
X342745950Y-79519750D02*
X330245950Y-79519750D01*
X343995950Y-72769750D02*
X343995950Y-78269750D01*
X330245950Y-71519750D02*
X342745950Y-71519750D01*
X342381105Y-72885702D02*
X342000153Y-72885702D01*
X342321582Y-73552369D02*
X342214439Y-72695226D01*
X342214439Y-72695226D02*
X342154915Y-72599988D01*
X342154915Y-72599988D02*
X342053725Y-72552369D01*
X342053725Y-72552369D02*
X341958486Y-72552369D01*
X341327534Y-73552369D02*
X341262058Y-73028559D01*
X341262058Y-73028559D02*
X341297772Y-72933321D01*
X341297772Y-72933321D02*
X341387058Y-72885702D01*
X341387058Y-72885702D02*
X341577534Y-72885702D01*
X341577534Y-72885702D02*
X341678725Y-72933321D01*
X341321582Y-73504750D02*
X341422772Y-73552369D01*
X341422772Y-73552369D02*
X341660868Y-73552369D01*
X341660868Y-73552369D02*
X341750153Y-73504750D01*
X341750153Y-73504750D02*
X341785868Y-73409511D01*
X341785868Y-73409511D02*
X341773963Y-73314273D01*
X341773963Y-73314273D02*
X341714439Y-73219035D01*
X341714439Y-73219035D02*
X341613249Y-73171416D01*
X341613249Y-73171416D02*
X341375153Y-73171416D01*
X341375153Y-73171416D02*
X341273963Y-73123797D01*
X340345391Y-72885702D02*
X340428724Y-73552369D01*
X340773962Y-72885702D02*
X340839439Y-73409511D01*
X340839439Y-73409511D02*
X340803724Y-73504750D01*
X340803724Y-73504750D02*
X340714439Y-73552369D01*
X340714439Y-73552369D02*
X340571581Y-73552369D01*
X340571581Y-73552369D02*
X340470391Y-73504750D01*
X340470391Y-73504750D02*
X340416819Y-73457130D01*
X340053724Y-73552369D02*
X339446581Y-72885702D01*
X339970390Y-72885702D02*
X339529914Y-73552369D01*
X339154915Y-73552369D02*
X339071581Y-72885702D01*
X339095391Y-73076178D02*
X339035867Y-72980940D01*
X339035867Y-72980940D02*
X338982296Y-72933321D01*
X338982296Y-72933321D02*
X338881105Y-72885702D01*
X338881105Y-72885702D02*
X338785867Y-72885702D01*
X338541820Y-73552369D02*
X338458486Y-72885702D01*
X338470391Y-72980940D02*
X338416820Y-72933321D01*
X338416820Y-72933321D02*
X338315629Y-72885702D01*
X338315629Y-72885702D02*
X338172772Y-72885702D01*
X338172772Y-72885702D02*
X338083486Y-72933321D01*
X338083486Y-72933321D02*
X338047772Y-73028559D01*
X338047772Y-73028559D02*
X338113248Y-73552369D01*
X338047772Y-73028559D02*
X337988248Y-72933321D01*
X337988248Y-72933321D02*
X337887058Y-72885702D01*
X337887058Y-72885702D02*
X337744201Y-72885702D01*
X337744201Y-72885702D02*
X337654915Y-72933321D01*
X337654915Y-72933321D02*
X337619201Y-73028559D01*
X337619201Y-73028559D02*
X337684677Y-73552369D01*
X337214439Y-73552369D02*
X337131105Y-72885702D01*
X337089439Y-72552369D02*
X337143010Y-72599988D01*
X337143010Y-72599988D02*
X337101343Y-72647607D01*
X337101343Y-72647607D02*
X337047772Y-72599988D01*
X337047772Y-72599988D02*
X337089439Y-72552369D01*
X337089439Y-72552369D02*
X337101343Y-72647607D01*
X336357296Y-73504750D02*
X336458486Y-73552369D01*
X336458486Y-73552369D02*
X336648963Y-73552369D01*
X336648963Y-73552369D02*
X336738248Y-73504750D01*
X336738248Y-73504750D02*
X336773963Y-73409511D01*
X336773963Y-73409511D02*
X336726344Y-73028559D01*
X336726344Y-73028559D02*
X336666820Y-72933321D01*
X336666820Y-72933321D02*
X336565629Y-72885702D01*
X336565629Y-72885702D02*
X336375153Y-72885702D01*
X336375153Y-72885702D02*
X336285867Y-72933321D01*
X336285867Y-72933321D02*
X336250153Y-73028559D01*
X336250153Y-73028559D02*
X336262058Y-73123797D01*
X336262058Y-73123797D02*
X336750153Y-73219035D01*
X342321582Y-75172369D02*
X342238248Y-74505702D01*
X342262058Y-74696178D02*
X342202534Y-74600940D01*
X342202534Y-74600940D02*
X342148963Y-74553321D01*
X342148963Y-74553321D02*
X342047772Y-74505702D01*
X342047772Y-74505702D02*
X341952534Y-74505702D01*
X341321582Y-75124750D02*
X341422772Y-75172369D01*
X341422772Y-75172369D02*
X341613249Y-75172369D01*
X341613249Y-75172369D02*
X341702534Y-75124750D01*
X341702534Y-75124750D02*
X341738249Y-75029511D01*
X341738249Y-75029511D02*
X341690630Y-74648559D01*
X341690630Y-74648559D02*
X341631106Y-74553321D01*
X341631106Y-74553321D02*
X341529915Y-74505702D01*
X341529915Y-74505702D02*
X341339439Y-74505702D01*
X341339439Y-74505702D02*
X341250153Y-74553321D01*
X341250153Y-74553321D02*
X341214439Y-74648559D01*
X341214439Y-74648559D02*
X341226344Y-74743797D01*
X341226344Y-74743797D02*
X341714439Y-74839035D01*
X340869201Y-74505702D02*
X340714440Y-75172369D01*
X340714440Y-75172369D02*
X340393011Y-74505702D01*
X339577535Y-75172369D02*
X340148964Y-75172369D01*
X339863249Y-75172369D02*
X339738249Y-74172369D01*
X339738249Y-74172369D02*
X339851345Y-74315226D01*
X339851345Y-74315226D02*
X339958488Y-74410464D01*
X339958488Y-74410464D02*
X340059678Y-74458083D01*
X339143011Y-75077130D02*
X339101344Y-75124750D01*
X339101344Y-75124750D02*
X339154916Y-75172369D01*
X339154916Y-75172369D02*
X339196582Y-75124750D01*
X339196582Y-75124750D02*
X339143011Y-75077130D01*
X339143011Y-75077130D02*
X339154916Y-75172369D01*
X338369201Y-74172369D02*
X338273963Y-74172369D01*
X338273963Y-74172369D02*
X338184678Y-74219988D01*
X338184678Y-74219988D02*
X338143011Y-74267607D01*
X338143011Y-74267607D02*
X338107297Y-74362845D01*
X338107297Y-74362845D02*
X338083487Y-74553321D01*
X338083487Y-74553321D02*
X338113249Y-74791416D01*
X338113249Y-74791416D02*
X338184678Y-74981892D01*
X338184678Y-74981892D02*
X338244201Y-75077130D01*
X338244201Y-75077130D02*
X338297773Y-75124750D01*
X338297773Y-75124750D02*
X338398963Y-75172369D01*
X338398963Y-75172369D02*
X338494201Y-75172369D01*
X338494201Y-75172369D02*
X338583487Y-75124750D01*
X338583487Y-75124750D02*
X338625154Y-75077130D01*
X338625154Y-75077130D02*
X338660868Y-74981892D01*
X338660868Y-74981892D02*
X338684678Y-74791416D01*
X338684678Y-74791416D02*
X338654916Y-74553321D01*
X338654916Y-74553321D02*
X338583487Y-74362845D01*
X338583487Y-74362845D02*
X338523963Y-74267607D01*
X338523963Y-74267607D02*
X338470392Y-74219988D01*
X338470392Y-74219988D02*
X338369201Y-74172369D01*
X341922772Y-76268559D02*
X342256105Y-76268559D01*
X342321582Y-76792369D02*
X342196582Y-75792369D01*
X342196582Y-75792369D02*
X341720391Y-75792369D01*
X341470392Y-76792369D02*
X341387058Y-76125702D01*
X341410868Y-76316178D02*
X341351344Y-76220940D01*
X341351344Y-76220940D02*
X341297773Y-76173321D01*
X341297773Y-76173321D02*
X341196582Y-76125702D01*
X341196582Y-76125702D02*
X341101344Y-76125702D01*
X340428725Y-76792369D02*
X340363249Y-76268559D01*
X340363249Y-76268559D02*
X340398963Y-76173321D01*
X340398963Y-76173321D02*
X340488249Y-76125702D01*
X340488249Y-76125702D02*
X340678725Y-76125702D01*
X340678725Y-76125702D02*
X340779916Y-76173321D01*
X340422773Y-76744750D02*
X340523963Y-76792369D01*
X340523963Y-76792369D02*
X340762059Y-76792369D01*
X340762059Y-76792369D02*
X340851344Y-76744750D01*
X340851344Y-76744750D02*
X340887059Y-76649511D01*
X340887059Y-76649511D02*
X340875154Y-76554273D01*
X340875154Y-76554273D02*
X340815630Y-76459035D01*
X340815630Y-76459035D02*
X340714440Y-76411416D01*
X340714440Y-76411416D02*
X340476344Y-76411416D01*
X340476344Y-76411416D02*
X340375154Y-76363797D01*
X339875153Y-76125702D02*
X339958487Y-76792369D01*
X339887058Y-76220940D02*
X339833487Y-76173321D01*
X339833487Y-76173321D02*
X339732296Y-76125702D01*
X339732296Y-76125702D02*
X339589439Y-76125702D01*
X339589439Y-76125702D02*
X339500153Y-76173321D01*
X339500153Y-76173321D02*
X339464439Y-76268559D01*
X339464439Y-76268559D02*
X339529915Y-76792369D01*
X338625153Y-76744750D02*
X338726343Y-76792369D01*
X338726343Y-76792369D02*
X338916820Y-76792369D01*
X338916820Y-76792369D02*
X339006105Y-76744750D01*
X339006105Y-76744750D02*
X339047772Y-76697130D01*
X339047772Y-76697130D02*
X339083486Y-76601892D01*
X339083486Y-76601892D02*
X339047772Y-76316178D01*
X339047772Y-76316178D02*
X338988248Y-76220940D01*
X338988248Y-76220940D02*
X338934677Y-76173321D01*
X338934677Y-76173321D02*
X338833486Y-76125702D01*
X338833486Y-76125702D02*
X338643010Y-76125702D01*
X338643010Y-76125702D02*
X338553724Y-76173321D01*
X338208487Y-76792369D02*
X338125153Y-76125702D01*
X338083487Y-75792369D02*
X338137058Y-75839988D01*
X338137058Y-75839988D02*
X338095391Y-75887607D01*
X338095391Y-75887607D02*
X338041820Y-75839988D01*
X338041820Y-75839988D02*
X338083487Y-75792369D01*
X338083487Y-75792369D02*
X338095391Y-75887607D01*
X337779915Y-76744750D02*
X337690630Y-76792369D01*
X337690630Y-76792369D02*
X337500153Y-76792369D01*
X337500153Y-76792369D02*
X337398963Y-76744750D01*
X337398963Y-76744750D02*
X337339439Y-76649511D01*
X337339439Y-76649511D02*
X337333487Y-76601892D01*
X337333487Y-76601892D02*
X337369201Y-76506654D01*
X337369201Y-76506654D02*
X337458487Y-76459035D01*
X337458487Y-76459035D02*
X337601344Y-76459035D01*
X337601344Y-76459035D02*
X337690630Y-76411416D01*
X337690630Y-76411416D02*
X337726344Y-76316178D01*
X337726344Y-76316178D02*
X337720392Y-76268559D01*
X337720392Y-76268559D02*
X337660868Y-76173321D01*
X337660868Y-76173321D02*
X337559677Y-76125702D01*
X337559677Y-76125702D02*
X337416820Y-76125702D01*
X337416820Y-76125702D02*
X337327534Y-76173321D01*
X336047773Y-75792369D02*
X336148963Y-76601892D01*
X336148963Y-76601892D02*
X336113249Y-76697130D01*
X336113249Y-76697130D02*
X336071582Y-76744750D01*
X336071582Y-76744750D02*
X335982296Y-76792369D01*
X335982296Y-76792369D02*
X335791820Y-76792369D01*
X335791820Y-76792369D02*
X335690630Y-76744750D01*
X335690630Y-76744750D02*
X335637058Y-76697130D01*
X335637058Y-76697130D02*
X335577535Y-76601892D01*
X335577535Y-76601892D02*
X335476344Y-75792369D01*
X335172772Y-76744750D02*
X335083487Y-76792369D01*
X335083487Y-76792369D02*
X334893010Y-76792369D01*
X334893010Y-76792369D02*
X334791820Y-76744750D01*
X334791820Y-76744750D02*
X334732296Y-76649511D01*
X334732296Y-76649511D02*
X334726344Y-76601892D01*
X334726344Y-76601892D02*
X334762058Y-76506654D01*
X334762058Y-76506654D02*
X334851344Y-76459035D01*
X334851344Y-76459035D02*
X334994201Y-76459035D01*
X334994201Y-76459035D02*
X335083487Y-76411416D01*
X335083487Y-76411416D02*
X335119201Y-76316178D01*
X335119201Y-76316178D02*
X335113249Y-76268559D01*
X335113249Y-76268559D02*
X335053725Y-76173321D01*
X335053725Y-76173321D02*
X334952534Y-76125702D01*
X334952534Y-76125702D02*
X334809677Y-76125702D01*
X334809677Y-76125702D02*
X334720391Y-76173321D01*
X334327535Y-76792369D02*
X334202535Y-75792369D01*
X333898963Y-76792369D02*
X333833487Y-76268559D01*
X333833487Y-76268559D02*
X333869201Y-76173321D01*
X333869201Y-76173321D02*
X333958487Y-76125702D01*
X333958487Y-76125702D02*
X334101344Y-76125702D01*
X334101344Y-76125702D02*
X334202535Y-76173321D01*
X334202535Y-76173321D02*
X334256106Y-76220940D01*
X333041820Y-76744750D02*
X333143010Y-76792369D01*
X333143010Y-76792369D02*
X333333487Y-76792369D01*
X333333487Y-76792369D02*
X333422772Y-76744750D01*
X333422772Y-76744750D02*
X333458487Y-76649511D01*
X333458487Y-76649511D02*
X333410868Y-76268559D01*
X333410868Y-76268559D02*
X333351344Y-76173321D01*
X333351344Y-76173321D02*
X333250153Y-76125702D01*
X333250153Y-76125702D02*
X333059677Y-76125702D01*
X333059677Y-76125702D02*
X332970391Y-76173321D01*
X332970391Y-76173321D02*
X332934677Y-76268559D01*
X332934677Y-76268559D02*
X332946582Y-76363797D01*
X332946582Y-76363797D02*
X333434677Y-76459035D01*
X332577535Y-76792369D02*
X332494201Y-76125702D01*
X332518011Y-76316178D02*
X332458487Y-76220940D01*
X332458487Y-76220940D02*
X332404916Y-76173321D01*
X332404916Y-76173321D02*
X332303725Y-76125702D01*
X332303725Y-76125702D02*
X332208487Y-76125702D01*
X342363248Y-78364750D02*
X342226344Y-78412369D01*
X342226344Y-78412369D02*
X341988248Y-78412369D01*
X341988248Y-78412369D02*
X341887058Y-78364750D01*
X341887058Y-78364750D02*
X341833486Y-78317130D01*
X341833486Y-78317130D02*
X341773963Y-78221892D01*
X341773963Y-78221892D02*
X341762058Y-78126654D01*
X341762058Y-78126654D02*
X341797772Y-78031416D01*
X341797772Y-78031416D02*
X341839439Y-77983797D01*
X341839439Y-77983797D02*
X341928725Y-77936178D01*
X341928725Y-77936178D02*
X342113248Y-77888559D01*
X342113248Y-77888559D02*
X342202534Y-77840940D01*
X342202534Y-77840940D02*
X342244201Y-77793321D01*
X342244201Y-77793321D02*
X342279915Y-77698083D01*
X342279915Y-77698083D02*
X342268010Y-77602845D01*
X342268010Y-77602845D02*
X342208486Y-77507607D01*
X342208486Y-77507607D02*
X342154915Y-77459988D01*
X342154915Y-77459988D02*
X342053725Y-77412369D01*
X342053725Y-77412369D02*
X341815629Y-77412369D01*
X341815629Y-77412369D02*
X341678725Y-77459988D01*
X341375153Y-78412369D02*
X341250153Y-77412369D01*
X340946581Y-78412369D02*
X340881105Y-77888559D01*
X340881105Y-77888559D02*
X340916819Y-77793321D01*
X340916819Y-77793321D02*
X341006105Y-77745702D01*
X341006105Y-77745702D02*
X341148962Y-77745702D01*
X341148962Y-77745702D02*
X341250153Y-77793321D01*
X341250153Y-77793321D02*
X341303724Y-77840940D01*
X340476343Y-78412369D02*
X340393009Y-77745702D01*
X340351343Y-77412369D02*
X340404914Y-77459988D01*
X340404914Y-77459988D02*
X340363247Y-77507607D01*
X340363247Y-77507607D02*
X340309676Y-77459988D01*
X340309676Y-77459988D02*
X340351343Y-77412369D01*
X340351343Y-77412369D02*
X340363247Y-77507607D01*
X339922771Y-77745702D02*
X340006105Y-78412369D01*
X339934676Y-77840940D02*
X339881105Y-77793321D01*
X339881105Y-77793321D02*
X339779914Y-77745702D01*
X339779914Y-77745702D02*
X339637057Y-77745702D01*
X339637057Y-77745702D02*
X339547771Y-77793321D01*
X339547771Y-77793321D02*
X339512057Y-77888559D01*
X339512057Y-77888559D02*
X339577533Y-78412369D01*
X339107295Y-78412369D02*
X338982295Y-77412369D01*
X338964438Y-78031416D02*
X338726342Y-78412369D01*
X338643009Y-77745702D02*
X339071580Y-78126654D01*
X337875152Y-78412369D02*
X337809676Y-77888559D01*
X337809676Y-77888559D02*
X337845390Y-77793321D01*
X337845390Y-77793321D02*
X337934676Y-77745702D01*
X337934676Y-77745702D02*
X338125152Y-77745702D01*
X338125152Y-77745702D02*
X338226343Y-77793321D01*
X337869200Y-78364750D02*
X337970390Y-78412369D01*
X337970390Y-78412369D02*
X338208486Y-78412369D01*
X338208486Y-78412369D02*
X338297771Y-78364750D01*
X338297771Y-78364750D02*
X338333486Y-78269511D01*
X338333486Y-78269511D02*
X338321581Y-78174273D01*
X338321581Y-78174273D02*
X338262057Y-78079035D01*
X338262057Y-78079035D02*
X338160867Y-78031416D01*
X338160867Y-78031416D02*
X337922771Y-78031416D01*
X337922771Y-78031416D02*
X337821581Y-77983797D01*
X337404914Y-78412369D02*
X337321580Y-77745702D01*
X337279914Y-77412369D02*
X337333485Y-77459988D01*
X337333485Y-77459988D02*
X337291818Y-77507607D01*
X337291818Y-77507607D02*
X337238247Y-77459988D01*
X337238247Y-77459988D02*
X337279914Y-77412369D01*
X337279914Y-77412369D02*
X337291818Y-77507607D01*
X336172771Y-78412369D02*
X336047771Y-77412369D01*
X336047771Y-77412369D02*
X335803723Y-78126654D01*
X335803723Y-78126654D02*
X335381104Y-77412369D01*
X335381104Y-77412369D02*
X335506104Y-78412369D01*
X334607294Y-78412369D02*
X334541818Y-77888559D01*
X334541818Y-77888559D02*
X334577532Y-77793321D01*
X334577532Y-77793321D02*
X334666818Y-77745702D01*
X334666818Y-77745702D02*
X334857294Y-77745702D01*
X334857294Y-77745702D02*
X334958485Y-77793321D01*
X334601342Y-78364750D02*
X334702532Y-78412369D01*
X334702532Y-78412369D02*
X334940628Y-78412369D01*
X334940628Y-78412369D02*
X335029913Y-78364750D01*
X335029913Y-78364750D02*
X335065628Y-78269511D01*
X335065628Y-78269511D02*
X335053723Y-78174273D01*
X335053723Y-78174273D02*
X334994199Y-78079035D01*
X334994199Y-78079035D02*
X334893009Y-78031416D01*
X334893009Y-78031416D02*
X334654913Y-78031416D01*
X334654913Y-78031416D02*
X334553723Y-77983797D01*
X334148960Y-77745702D02*
X333994199Y-78412369D01*
X333672770Y-77745702D02*
X333994199Y-78412369D01*
X333994199Y-78412369D02*
X334119199Y-78650464D01*
X334119199Y-78650464D02*
X334172770Y-78698083D01*
X334172770Y-78698083D02*
X334273960Y-78745702D01*
X332994198Y-78412369D02*
X332928722Y-77888559D01*
X332928722Y-77888559D02*
X332964436Y-77793321D01*
X332964436Y-77793321D02*
X333053722Y-77745702D01*
X333053722Y-77745702D02*
X333244198Y-77745702D01*
X333244198Y-77745702D02*
X333345389Y-77793321D01*
X332988246Y-78364750D02*
X333089436Y-78412369D01*
X333089436Y-78412369D02*
X333327532Y-78412369D01*
X333327532Y-78412369D02*
X333416817Y-78364750D01*
X333416817Y-78364750D02*
X333452532Y-78269511D01*
X333452532Y-78269511D02*
X333440627Y-78174273D01*
X333440627Y-78174273D02*
X333381103Y-78079035D01*
X333381103Y-78079035D02*
X333279913Y-78031416D01*
X333279913Y-78031416D02*
X333041817Y-78031416D01*
X333041817Y-78031416D02*
X332940627Y-77983797D01*
X332440626Y-77745702D02*
X332523960Y-78412369D01*
X332452531Y-77840940D02*
X332398960Y-77793321D01*
X332398960Y-77793321D02*
X332297769Y-77745702D01*
X332297769Y-77745702D02*
X332154912Y-77745702D01*
X332154912Y-77745702D02*
X332065626Y-77793321D01*
X332065626Y-77793321D02*
X332029912Y-77888559D01*
X332029912Y-77888559D02*
X332095388Y-78412369D01*
X331482293Y-78412369D02*
X331571578Y-78364750D01*
X331571578Y-78364750D02*
X331613245Y-78317130D01*
X331613245Y-78317130D02*
X331648959Y-78221892D01*
X331648959Y-78221892D02*
X331613245Y-77936178D01*
X331613245Y-77936178D02*
X331553721Y-77840940D01*
X331553721Y-77840940D02*
X331500150Y-77793321D01*
X331500150Y-77793321D02*
X331398959Y-77745702D01*
X331398959Y-77745702D02*
X331256102Y-77745702D01*
X331256102Y-77745702D02*
X331166816Y-77793321D01*
X331166816Y-77793321D02*
X331125150Y-77840940D01*
X331125150Y-77840940D02*
X331089435Y-77936178D01*
X331089435Y-77936178D02*
X331125150Y-78221892D01*
X331125150Y-78221892D02*
X331184673Y-78317130D01*
X331184673Y-78317130D02*
X331238245Y-78364750D01*
X331238245Y-78364750D02*
X331339435Y-78412369D01*
X331339435Y-78412369D02*
X331482293Y-78412369D01*
D12*
%TO.C,MX4-5*%
X173983750Y-121120000D03*
X167633750Y-123660000D03*
D13*
X166363750Y-126200000D03*
D14*
X171443750Y-126200000D03*
D13*
X176523750Y-126200000D03*
%TD*%
D14*
%TO.C,ST-0*%
X221450000Y-117945000D03*
D15*
X121437500Y-133185000D03*
X221450000Y-133185000D03*
D14*
X121437500Y-117945000D03*
%TD*%
D13*
%TO.C,MX4-15*%
X345592500Y-126200000D03*
D14*
X340512500Y-126200000D03*
D13*
X335432500Y-126200000D03*
D12*
X336702500Y-123660000D03*
X343052500Y-121120000D03*
%TD*%
D13*
%TO.C,MX4-14*%
X326542500Y-126200000D03*
D14*
X321462500Y-126200000D03*
D13*
X316382500Y-126200000D03*
D12*
X317652500Y-123660000D03*
X324002500Y-121120000D03*
%TD*%
D13*
%TO.C,MX4-13*%
X307492500Y-126200000D03*
D14*
X302412500Y-126200000D03*
D13*
X297332500Y-126200000D03*
D12*
X298602500Y-123660000D03*
X304952500Y-121120000D03*
%TD*%
D13*
%TO.C,MX4-11*%
X283680000Y-126200000D03*
D14*
X278600000Y-126200000D03*
D13*
X273520000Y-126200000D03*
D12*
X274790000Y-123660000D03*
X281140000Y-121120000D03*
%TD*%
D13*
%TO.C,MX4-10*%
X264630000Y-126200000D03*
D14*
X259550000Y-126200000D03*
D13*
X254470000Y-126200000D03*
D12*
X255740000Y-123660000D03*
X262090000Y-121120000D03*
%TD*%
D13*
%TO.C,MX4-9*%
X245580000Y-126200000D03*
D14*
X240500000Y-126200000D03*
D13*
X235420000Y-126200000D03*
D12*
X236690000Y-123660000D03*
X243040000Y-121120000D03*
%TD*%
%TO.C,MX4-2*%
X102546250Y-121120000D03*
X96196250Y-123660000D03*
D13*
X94926250Y-126200000D03*
D14*
X100006250Y-126200000D03*
D13*
X105086250Y-126200000D03*
%TD*%
%TO.C,MX4-1*%
X81273750Y-126200000D03*
D14*
X76193750Y-126200000D03*
D13*
X71113750Y-126200000D03*
D12*
X72383750Y-123660000D03*
X78733750Y-121120000D03*
%TD*%
D13*
%TO.C,MX4-0*%
X57461250Y-126200000D03*
D14*
X52381250Y-126200000D03*
D13*
X47301250Y-126200000D03*
D12*
X48571250Y-123660000D03*
X54921250Y-121120000D03*
%TD*%
D13*
%TO.C,MX3-14*%
X326542500Y-107150000D03*
D14*
X321462500Y-107150000D03*
D13*
X316382500Y-107150000D03*
D12*
X317652500Y-104610000D03*
X324002500Y-102070000D03*
%TD*%
D13*
%TO.C,MX3-11*%
X281298750Y-107150000D03*
D14*
X276218750Y-107150000D03*
D13*
X271138750Y-107150000D03*
D12*
X272408750Y-104610000D03*
X278758750Y-102070000D03*
%TD*%
D13*
%TO.C,MX3-10*%
X259867500Y-107150000D03*
D14*
X254787500Y-107150000D03*
D13*
X249707500Y-107150000D03*
D12*
X250977500Y-104610000D03*
X257327500Y-102070000D03*
%TD*%
D13*
%TO.C,MX3-9*%
X240817500Y-107150000D03*
D14*
X235737500Y-107150000D03*
D13*
X230657500Y-107150000D03*
D12*
X231927500Y-104610000D03*
X238277500Y-102070000D03*
%TD*%
D13*
%TO.C,MX3-8*%
X221767500Y-107150000D03*
D14*
X216687500Y-107150000D03*
D13*
X211607500Y-107150000D03*
D12*
X212877500Y-104610000D03*
X219227500Y-102070000D03*
%TD*%
D13*
%TO.C,MX3-7*%
X202717500Y-107150000D03*
D14*
X197637500Y-107150000D03*
D13*
X192557500Y-107150000D03*
D12*
X193827500Y-104610000D03*
X200177500Y-102070000D03*
%TD*%
D13*
%TO.C,MX3-6*%
X183667500Y-107150000D03*
D14*
X178587500Y-107150000D03*
D13*
X173507500Y-107150000D03*
D12*
X174777500Y-104610000D03*
X181127500Y-102070000D03*
%TD*%
D13*
%TO.C,MX3-5*%
X164617500Y-107150000D03*
D14*
X159537500Y-107150000D03*
D13*
X154457500Y-107150000D03*
D12*
X155727500Y-104610000D03*
X162077500Y-102070000D03*
%TD*%
D13*
%TO.C,MX3-4*%
X145567500Y-107150000D03*
D14*
X140487500Y-107150000D03*
D13*
X135407500Y-107150000D03*
D12*
X136677500Y-104610000D03*
X143027500Y-102070000D03*
%TD*%
D13*
%TO.C,MX3-3*%
X126517500Y-107150000D03*
D14*
X121437500Y-107150000D03*
D13*
X116357500Y-107150000D03*
D12*
X117627500Y-104610000D03*
X123977500Y-102070000D03*
%TD*%
D13*
%TO.C,MX3-2*%
X107467500Y-107150000D03*
D14*
X102387500Y-107150000D03*
D13*
X97307500Y-107150000D03*
D12*
X98577500Y-104610000D03*
X104927500Y-102070000D03*
%TD*%
D13*
%TO.C,MX3-1*%
X88417500Y-107150000D03*
D14*
X83337500Y-107150000D03*
D13*
X78257500Y-107150000D03*
D12*
X79527500Y-104610000D03*
X85877500Y-102070000D03*
%TD*%
D13*
%TO.C,MX3-0*%
X52063750Y-107150000D03*
D14*
X57143750Y-107150000D03*
D13*
X62223750Y-107150000D03*
D12*
X53333750Y-104610000D03*
X59683750Y-102070000D03*
%TD*%
D13*
%TO.C,MX2-11*%
X266376250Y-88100000D03*
D14*
X271456250Y-88100000D03*
D13*
X276536250Y-88100000D03*
D12*
X267646250Y-85560000D03*
X273996250Y-83020000D03*
%TD*%
D13*
%TO.C,MX2-10*%
X250342500Y-88100000D03*
D14*
X245262500Y-88100000D03*
D13*
X240182500Y-88100000D03*
D12*
X241452500Y-85560000D03*
X247802500Y-83020000D03*
%TD*%
D13*
%TO.C,MX2-9*%
X231292500Y-88100000D03*
D14*
X226212500Y-88100000D03*
D13*
X221132500Y-88100000D03*
D12*
X222402500Y-85560000D03*
X228752500Y-83020000D03*
%TD*%
D13*
%TO.C,MX2-8*%
X212242500Y-88100000D03*
D14*
X207162500Y-88100000D03*
D13*
X202082500Y-88100000D03*
D12*
X203352500Y-85560000D03*
X209702500Y-83020000D03*
%TD*%
D13*
%TO.C,MX2-7*%
X193192500Y-88100000D03*
D14*
X188112500Y-88100000D03*
D13*
X183032500Y-88100000D03*
D12*
X184302500Y-85560000D03*
X190652500Y-83020000D03*
%TD*%
D13*
%TO.C,MX2-6*%
X174142500Y-88100000D03*
D14*
X169062500Y-88100000D03*
D13*
X163982500Y-88100000D03*
D12*
X165252500Y-85560000D03*
X171602500Y-83020000D03*
%TD*%
D13*
%TO.C,MX2-5*%
X155092500Y-88100000D03*
D14*
X150012500Y-88100000D03*
D13*
X144932500Y-88100000D03*
D12*
X146202500Y-85560000D03*
X152552500Y-83020000D03*
%TD*%
D13*
%TO.C,MX2-4*%
X136042500Y-88100000D03*
D14*
X130962500Y-88100000D03*
D13*
X125882500Y-88100000D03*
D12*
X127152500Y-85560000D03*
X133502500Y-83020000D03*
%TD*%
D13*
%TO.C,MX2-3*%
X116992500Y-88100000D03*
D14*
X111912500Y-88100000D03*
D13*
X106832500Y-88100000D03*
D12*
X108102500Y-85560000D03*
X114452500Y-83020000D03*
%TD*%
D13*
%TO.C,MX2-2*%
X97942500Y-88100000D03*
D14*
X92862500Y-88100000D03*
D13*
X87782500Y-88100000D03*
D12*
X89052500Y-85560000D03*
X95402500Y-83020000D03*
%TD*%
D13*
%TO.C,MX2-1*%
X78892500Y-88100000D03*
D14*
X73812500Y-88100000D03*
D13*
X68732500Y-88100000D03*
D12*
X70002500Y-85560000D03*
X76352500Y-83020000D03*
%TD*%
D13*
%TO.C,MX2-0*%
X57461250Y-88100000D03*
D14*
X52381250Y-88100000D03*
D13*
X47301250Y-88100000D03*
D12*
X48571250Y-85560000D03*
X54921250Y-83020000D03*
%TD*%
D13*
%TO.C,MX1-15*%
X345592500Y-64287500D03*
D14*
X340512500Y-64287500D03*
D13*
X335432500Y-64287500D03*
D12*
X336702500Y-61747500D03*
X343052500Y-59207500D03*
%TD*%
D13*
%TO.C,MX1-14*%
X326542500Y-64287500D03*
D14*
X321462500Y-64287500D03*
D13*
X316382500Y-64287500D03*
D12*
X317652500Y-61747500D03*
X324002500Y-59207500D03*
%TD*%
D13*
%TO.C,MX1-13*%
X307492500Y-64287500D03*
D14*
X302412500Y-64287500D03*
D13*
X297332500Y-64287500D03*
D12*
X298602500Y-61747500D03*
X304952500Y-59207500D03*
%TD*%
D13*
%TO.C,MX1-12*%
X283680000Y-69050000D03*
D14*
X278600000Y-69050000D03*
D13*
X273520000Y-69050000D03*
D12*
X274790000Y-66510000D03*
X281140000Y-63970000D03*
%TD*%
D13*
%TO.C,MX1-11*%
X264630000Y-69050000D03*
D14*
X259550000Y-69050000D03*
D13*
X254470000Y-69050000D03*
D12*
X255740000Y-66510000D03*
X262090000Y-63970000D03*
%TD*%
D13*
%TO.C,MX1-10*%
X245580000Y-69050000D03*
D14*
X240500000Y-69050000D03*
D13*
X235420000Y-69050000D03*
D12*
X236690000Y-66510000D03*
X243040000Y-63970000D03*
%TD*%
D13*
%TO.C,MX1-9*%
X226530000Y-69050000D03*
D14*
X221450000Y-69050000D03*
D13*
X216370000Y-69050000D03*
D12*
X217640000Y-66510000D03*
X223990000Y-63970000D03*
%TD*%
D13*
%TO.C,MX1-8*%
X207480000Y-69050000D03*
D14*
X202400000Y-69050000D03*
D13*
X197320000Y-69050000D03*
D12*
X198590000Y-66510000D03*
X204940000Y-63970000D03*
%TD*%
D13*
%TO.C,MX1-7*%
X188430000Y-69050000D03*
D14*
X183350000Y-69050000D03*
D13*
X178270000Y-69050000D03*
D12*
X179540000Y-66510000D03*
X185890000Y-63970000D03*
%TD*%
D13*
%TO.C,MX1-6*%
X169380000Y-69050000D03*
D14*
X164300000Y-69050000D03*
D13*
X159220000Y-69050000D03*
D12*
X160490000Y-66510000D03*
X166840000Y-63970000D03*
%TD*%
D13*
%TO.C,MX1-5*%
X150330000Y-69050000D03*
D14*
X145250000Y-69050000D03*
D13*
X140170000Y-69050000D03*
D12*
X141440000Y-66510000D03*
X147790000Y-63970000D03*
%TD*%
D13*
%TO.C,MX1-4*%
X131280000Y-69050000D03*
D14*
X126200000Y-69050000D03*
D13*
X121120000Y-69050000D03*
D12*
X122390000Y-66510000D03*
X128740000Y-63970000D03*
%TD*%
D13*
%TO.C,MX1-3*%
X112230000Y-69050000D03*
D14*
X107150000Y-69050000D03*
D13*
X102070000Y-69050000D03*
D12*
X103340000Y-66510000D03*
X109690000Y-63970000D03*
%TD*%
D13*
%TO.C,MX1-2*%
X93180000Y-69050000D03*
D14*
X88100000Y-69050000D03*
D13*
X83020000Y-69050000D03*
D12*
X84290000Y-66510000D03*
X90640000Y-63970000D03*
%TD*%
D13*
%TO.C,MX1-1*%
X74130000Y-69050000D03*
D14*
X69050000Y-69050000D03*
D13*
X63970000Y-69050000D03*
D12*
X65240000Y-66510000D03*
X71590000Y-63970000D03*
%TD*%
D13*
%TO.C,MX1-0*%
X55080000Y-69050000D03*
D14*
X50000000Y-69050000D03*
D13*
X44920000Y-69050000D03*
D12*
X46190000Y-66510000D03*
X52540000Y-63970000D03*
%TD*%
D13*
%TO.C,MX0-15*%
X345592500Y-45237500D03*
D14*
X340512500Y-45237500D03*
D13*
X335432500Y-45237500D03*
D12*
X336702500Y-42697500D03*
X343052500Y-40157500D03*
%TD*%
D13*
%TO.C,MX0-14*%
X326542500Y-45237500D03*
D14*
X321462500Y-45237500D03*
D13*
X316382500Y-45237500D03*
D12*
X317652500Y-42697500D03*
X324002500Y-40157500D03*
%TD*%
D13*
%TO.C,MX0-13*%
X307492500Y-45237500D03*
D14*
X302412500Y-45237500D03*
D13*
X297332500Y-45237500D03*
D12*
X298602500Y-42697500D03*
X304952500Y-40157500D03*
%TD*%
D13*
%TO.C,MX0-12*%
X283680000Y-45237500D03*
D14*
X278600000Y-45237500D03*
D13*
X273520000Y-45237500D03*
D12*
X274790000Y-42697500D03*
X281140000Y-40157500D03*
%TD*%
D13*
%TO.C,MX0-11*%
X264630000Y-45237500D03*
D14*
X259550000Y-45237500D03*
D13*
X254470000Y-45237500D03*
D12*
X255740000Y-42697500D03*
X262090000Y-40157500D03*
%TD*%
D13*
%TO.C,MX0-10*%
X245580000Y-45237500D03*
D14*
X240500000Y-45237500D03*
D13*
X235420000Y-45237500D03*
D12*
X236690000Y-42697500D03*
X243040000Y-40157500D03*
%TD*%
D13*
%TO.C,MX0-9*%
X226530000Y-45237500D03*
D14*
X221450000Y-45237500D03*
D13*
X216370000Y-45237500D03*
D12*
X217640000Y-42697500D03*
X223990000Y-40157500D03*
%TD*%
D13*
%TO.C,MX0-6*%
X169380000Y-50000000D03*
D14*
X164300000Y-50000000D03*
D13*
X159220000Y-50000000D03*
D12*
X160490000Y-47460000D03*
X166840000Y-44920000D03*
%TD*%
D13*
%TO.C,MX0-5*%
X150330000Y-50000000D03*
D14*
X145250000Y-50000000D03*
D13*
X140170000Y-50000000D03*
D12*
X141440000Y-47460000D03*
X147790000Y-44920000D03*
%TD*%
D13*
%TO.C,MX0-4*%
X131280000Y-50000000D03*
D14*
X126200000Y-50000000D03*
D13*
X121120000Y-50000000D03*
D12*
X122390000Y-47460000D03*
X128740000Y-44920000D03*
%TD*%
D13*
%TO.C,MX0-3*%
X112230000Y-50000000D03*
D14*
X107150000Y-50000000D03*
D13*
X102070000Y-50000000D03*
D12*
X103340000Y-47460000D03*
X109690000Y-44920000D03*
%TD*%
D13*
%TO.C,MX0-2*%
X93180000Y-50000000D03*
D14*
X88100000Y-50000000D03*
D13*
X83020000Y-50000000D03*
D12*
X84290000Y-47460000D03*
X90640000Y-44920000D03*
%TD*%
D13*
%TO.C,MX0-1*%
X74130000Y-50000000D03*
D14*
X69050000Y-50000000D03*
D13*
X63970000Y-50000000D03*
D12*
X65240000Y-47460000D03*
X71590000Y-44920000D03*
%TD*%
D16*
%TO.C,RE2*%
X328962500Y-57262500D03*
X328962500Y-52262500D03*
X328962500Y-54762500D03*
X314462500Y-52262500D03*
X314462500Y-57262500D03*
%TD*%
%TO.C,RE1*%
X338012500Y-52737500D03*
X343012500Y-52737500D03*
X340512500Y-52737500D03*
X343012500Y-38237500D03*
X338012500Y-38237500D03*
%TD*%
D17*
%TO.C,C17*%
X308502500Y-89425000D03*
X309462500Y-89425000D03*
%TD*%
D18*
%TO.C,D57*%
X79290000Y-129500000D03*
X79290000Y-126200000D03*
%TD*%
%TO.C,D41*%
X248362500Y-91400000D03*
X248362500Y-88100000D03*
%TD*%
D19*
%TO.C,R4*%
X300162500Y-101859375D03*
X300162500Y-100839375D03*
%TD*%
D20*
%TO.C,C11*%
X296322500Y-87425000D03*
X295362500Y-87425000D03*
%TD*%
D18*
%TO.C,D46*%
X124537500Y-110450000D03*
X124537500Y-107150000D03*
%TD*%
%TO.C,D34*%
X115012500Y-91400000D03*
X115012500Y-88100000D03*
%TD*%
%TO.C,D3*%
X91200000Y-53300000D03*
X91200000Y-50000000D03*
%TD*%
D21*
%TO.C,R2*%
X295789466Y-82223808D03*
X296956192Y-83390534D03*
%TD*%
D17*
%TO.C,C19*%
X308502500Y-93862500D03*
X309462500Y-93862500D03*
%TD*%
D22*
%TO.C,R9*%
X295842500Y-101877500D03*
X295842500Y-102897500D03*
%TD*%
D23*
%TO.C,Y1*%
X301562500Y-103487500D03*
X301562500Y-101287500D03*
X303262500Y-101287500D03*
X303262500Y-103487500D03*
%TD*%
D20*
%TO.C,C7*%
X296322500Y-86425000D03*
X295362500Y-86425000D03*
%TD*%
D18*
%TO.C,D12*%
X305512500Y-48537500D03*
X305512500Y-45237500D03*
%TD*%
%TO.C,D5*%
X129300000Y-53300000D03*
X129300000Y-50000000D03*
%TD*%
%TO.C,D48*%
X162637500Y-110450000D03*
X162637500Y-107150000D03*
%TD*%
D24*
%TO.C,C2*%
X300162500Y-103829375D03*
X300162500Y-102869375D03*
%TD*%
D18*
%TO.C,D65*%
X266693750Y-129500000D03*
X266693750Y-126200000D03*
%TD*%
%TO.C,D26*%
X256450000Y-72350000D03*
X256450000Y-69050000D03*
%TD*%
%TO.C,D39*%
X210262500Y-91400000D03*
X210262500Y-88100000D03*
%TD*%
%TO.C,D49*%
X181687500Y-110450000D03*
X181687500Y-107150000D03*
%TD*%
%TO.C,D10*%
X256450000Y-48537500D03*
X256450000Y-45237500D03*
%TD*%
D24*
%TO.C,C8*%
X302912500Y-83817500D03*
X302912500Y-82857500D03*
%TD*%
D18*
%TO.C,D43*%
X60243750Y-110450000D03*
X60243750Y-107150000D03*
%TD*%
%TO.C,D16*%
X72150000Y-72350000D03*
X72150000Y-69050000D03*
%TD*%
D25*
%TO.C,C20*%
X296842500Y-101907500D03*
X296842500Y-102867500D03*
%TD*%
D18*
%TO.C,D54*%
X279318750Y-110450000D03*
X279318750Y-107150000D03*
%TD*%
%TO.C,D58*%
X103110000Y-129500000D03*
X103110000Y-126200000D03*
%TD*%
D26*
%TO.C,U4*%
X198701250Y-45237500D03*
X200576250Y-46187500D03*
X200576250Y-44287500D03*
%TD*%
D18*
%TO.C,D33*%
X95962500Y-91400000D03*
X95962500Y-88100000D03*
%TD*%
%TO.C,D7*%
X167400000Y-53300000D03*
X167400000Y-50000000D03*
%TD*%
D21*
%TO.C,R3*%
X294728807Y-83284467D03*
X295895533Y-84451193D03*
%TD*%
D18*
%TO.C,D11*%
X281700000Y-48537500D03*
X281700000Y-45237500D03*
%TD*%
D27*
%TO.C,F1*%
X199638750Y-38757500D03*
X199638750Y-41557500D03*
%TD*%
D18*
%TO.C,D47*%
X143587500Y-110450000D03*
X143587500Y-107150000D03*
%TD*%
%TO.C,D22*%
X186450000Y-72350000D03*
X186450000Y-69050000D03*
%TD*%
%TO.C,D30*%
X343612500Y-67587500D03*
X343612500Y-64287500D03*
%TD*%
%TO.C,D37*%
X172162500Y-91400000D03*
X172162500Y-88100000D03*
%TD*%
%TO.C,D42*%
X274556250Y-91400000D03*
X274556250Y-88100000D03*
%TD*%
D17*
%TO.C,C10*%
X200118750Y-48487500D03*
X199158750Y-48487500D03*
%TD*%
D18*
%TO.C,D9*%
X243600000Y-48537500D03*
X243600000Y-45237500D03*
%TD*%
D25*
%TO.C,C9*%
X294842500Y-101907500D03*
X294842500Y-102867500D03*
%TD*%
D18*
%TO.C,D24*%
X224550000Y-72350000D03*
X224550000Y-69050000D03*
%TD*%
D28*
%TO.C,U3*%
X325062500Y-81432500D03*
X325062500Y-82702500D03*
X325062500Y-83972500D03*
X325062500Y-85242500D03*
X317862500Y-85242500D03*
X317862500Y-83972500D03*
X317862500Y-82702500D03*
X317862500Y-81432500D03*
%TD*%
D18*
%TO.C,D4*%
X110250000Y-53300000D03*
X110250000Y-50000000D03*
%TD*%
D24*
%TO.C,C13*%
X301912500Y-83817500D03*
X301912500Y-82857500D03*
%TD*%
D25*
%TO.C,C4*%
X320462500Y-78506000D03*
X320462500Y-79466000D03*
%TD*%
D22*
%TO.C,R7*%
X200118750Y-32437500D03*
X200118750Y-31417500D03*
%TD*%
%TO.C,R8*%
X322462500Y-78476000D03*
X322462500Y-79496000D03*
%TD*%
D29*
%TO.C,USB1*%
X198868750Y-35142500D03*
D30*
X198868750Y-30962500D03*
D29*
X190228750Y-35142500D03*
D30*
X190228750Y-30962500D03*
D31*
X191298750Y-36057500D03*
X192098750Y-36057500D03*
D32*
X192798750Y-36057500D03*
X193798750Y-36057500D03*
X195298750Y-36057500D03*
X196298750Y-36057500D03*
D31*
X196998750Y-36057500D03*
X197798750Y-36057500D03*
X197798750Y-36057500D03*
X196998750Y-36057500D03*
D32*
X195798750Y-36057500D03*
X194798750Y-36057500D03*
X194298750Y-36057500D03*
X193298750Y-36057500D03*
D31*
X192098750Y-36057500D03*
X191298750Y-36057500D03*
D33*
X197438750Y-34612500D03*
X191658750Y-34612500D03*
%TD*%
D18*
%TO.C,D25*%
X243600000Y-72350000D03*
X243600000Y-69050000D03*
%TD*%
%TO.C,D18*%
X110250000Y-72350000D03*
X110250000Y-69050000D03*
%TD*%
%TO.C,D55*%
X324562500Y-110450000D03*
X324562500Y-107150000D03*
%TD*%
%TO.C,D40*%
X229312500Y-91400000D03*
X229312500Y-88100000D03*
%TD*%
D25*
%TO.C,C3*%
X188978750Y-32407500D03*
X188978750Y-31447500D03*
%TD*%
D24*
%TO.C,C14*%
X303912500Y-83817500D03*
X303912500Y-82857500D03*
%TD*%
D18*
%TO.C,D66*%
X305512500Y-129500000D03*
X305512500Y-126200000D03*
%TD*%
%TO.C,D52*%
X238837500Y-110450000D03*
X238837500Y-107150000D03*
%TD*%
%TO.C,D13*%
X324562500Y-48537500D03*
X324562500Y-45237500D03*
%TD*%
%TO.C,D8*%
X224550000Y-48537500D03*
X224550000Y-45237500D03*
%TD*%
%TO.C,D17*%
X91200000Y-72350000D03*
X91200000Y-69050000D03*
%TD*%
%TO.C,D50*%
X200737500Y-110450000D03*
X200737500Y-107150000D03*
%TD*%
%TO.C,D59*%
X174540000Y-129500000D03*
X174540000Y-126200000D03*
%TD*%
%TO.C,D68*%
X343612500Y-129500000D03*
X343612500Y-126200000D03*
%TD*%
%TO.C,D28*%
X305512500Y-67587500D03*
X305512500Y-64287500D03*
%TD*%
%TO.C,D31*%
X55481250Y-91400000D03*
X55481250Y-88100000D03*
%TD*%
%TO.C,D14*%
X343612500Y-48537500D03*
X343612500Y-45237500D03*
%TD*%
D24*
%TO.C,C1*%
X304662500Y-102867500D03*
X304662500Y-101907500D03*
%TD*%
D34*
%TO.C,U1*%
X305850000Y-90262500D03*
X305850000Y-90662500D03*
X305850000Y-91062500D03*
X305850000Y-91462500D03*
X305850000Y-91862500D03*
X305850000Y-92262500D03*
X305850000Y-92662500D03*
X305850000Y-93062500D03*
X305850000Y-93462500D03*
X305850000Y-93862500D03*
X305850000Y-94262500D03*
X305850000Y-94662500D03*
X305850000Y-95062500D03*
X305850000Y-95462500D03*
D35*
X305012500Y-96300000D03*
X304612500Y-96300000D03*
X304212500Y-96300000D03*
X303812500Y-96300000D03*
X303412500Y-96300000D03*
X303012500Y-96300000D03*
X302612500Y-96300000D03*
X302212500Y-96300000D03*
X301812500Y-96300000D03*
X301412500Y-96300000D03*
X301012500Y-96300000D03*
X300612500Y-96300000D03*
X300212500Y-96300000D03*
X299812500Y-96300000D03*
D34*
X298975000Y-95462500D03*
X298975000Y-95062500D03*
X298975000Y-94662500D03*
X298975000Y-94262500D03*
X298975000Y-93862500D03*
X298975000Y-93462500D03*
X298975000Y-93062500D03*
X298975000Y-92662500D03*
X298975000Y-92262500D03*
X298975000Y-91862500D03*
X298975000Y-91462500D03*
X298975000Y-91062500D03*
X298975000Y-90662500D03*
X298975000Y-90262500D03*
D35*
X299812500Y-89425000D03*
X300212500Y-89425000D03*
X300612500Y-89425000D03*
X301012500Y-89425000D03*
X301412500Y-89425000D03*
X301812500Y-89425000D03*
X302212500Y-89425000D03*
X302612500Y-89425000D03*
X303012500Y-89425000D03*
X303412500Y-89425000D03*
X303812500Y-89425000D03*
X304212500Y-89425000D03*
X304612500Y-89425000D03*
X305012500Y-89425000D03*
D36*
X302412500Y-92862500D03*
%TD*%
D17*
%TO.C,C6*%
X200118750Y-47487500D03*
X199158750Y-47487500D03*
%TD*%
D18*
%TO.C,D53*%
X257887500Y-110450000D03*
X257887500Y-107150000D03*
%TD*%
%TO.C,D35*%
X134062500Y-91400000D03*
X134062500Y-88100000D03*
%TD*%
D19*
%TO.C,R6*%
X200118750Y-33417500D03*
X200118750Y-34437500D03*
%TD*%
D18*
%TO.C,D36*%
X153112500Y-91400000D03*
X153112500Y-88100000D03*
%TD*%
%TO.C,D6*%
X148350000Y-53300000D03*
X148350000Y-50000000D03*
%TD*%
%TO.C,D45*%
X105487500Y-110450000D03*
X105487500Y-107150000D03*
%TD*%
D20*
%TO.C,C16*%
X296322500Y-89425000D03*
X295362500Y-89425000D03*
%TD*%
D18*
%TO.C,D2*%
X72150000Y-53300000D03*
X72150000Y-50000000D03*
%TD*%
D37*
%TO.C,Reset1*%
X317862500Y-76494500D03*
X325062500Y-76494500D03*
X317862500Y-72794500D03*
X325062500Y-72794500D03*
%TD*%
D18*
%TO.C,D19*%
X129300000Y-72350000D03*
X129300000Y-69050000D03*
%TD*%
%TO.C,D51*%
X219787500Y-110450000D03*
X219787500Y-107150000D03*
%TD*%
%TO.C,D38*%
X191212500Y-91400000D03*
X191212500Y-88100000D03*
%TD*%
D19*
%TO.C,R5*%
X188978750Y-33417500D03*
X188978750Y-34437500D03*
%TD*%
D17*
%TO.C,C5*%
X200118750Y-42987500D03*
X199158750Y-42987500D03*
%TD*%
D20*
%TO.C,C15*%
X296322500Y-88425000D03*
X295362500Y-88425000D03*
%TD*%
D18*
%TO.C,D27*%
X281700000Y-72350000D03*
X281700000Y-69050000D03*
%TD*%
%TO.C,D32*%
X76912500Y-91400000D03*
X76912500Y-88100000D03*
%TD*%
%TO.C,D67*%
X324562500Y-129500000D03*
X324562500Y-126200000D03*
%TD*%
%TO.C,D23*%
X205500000Y-72350000D03*
X205500000Y-69050000D03*
%TD*%
%TO.C,D56*%
X55480000Y-129500000D03*
X55480000Y-126200000D03*
%TD*%
%TO.C,D20*%
X148350000Y-72350000D03*
X148350000Y-69050000D03*
%TD*%
D38*
%TO.C,U2*%
X195723750Y-41107500D03*
X195723750Y-40157500D03*
X195723750Y-39207500D03*
X193373750Y-39207500D03*
X193373750Y-40157500D03*
X193373750Y-41107500D03*
%TD*%
D18*
%TO.C,D15*%
X53100000Y-72350000D03*
X53100000Y-69050000D03*
%TD*%
D20*
%TO.C,C18*%
X296322500Y-93862500D03*
X295362500Y-93862500D03*
%TD*%
D18*
%TO.C,D44*%
X86437500Y-110450000D03*
X86437500Y-107150000D03*
%TD*%
%TO.C,D63*%
X248044450Y-129500000D03*
X248044450Y-126200000D03*
%TD*%
D24*
%TO.C,C12*%
X300912500Y-83817500D03*
X300912500Y-82857500D03*
%TD*%
D18*
%TO.C,D29*%
X324562500Y-67587500D03*
X324562500Y-64287500D03*
%TD*%
%TO.C,D64*%
X262650000Y-129500000D03*
X262650000Y-126200000D03*
%TD*%
%TO.C,D21*%
X167400000Y-72350000D03*
X167400000Y-69050000D03*
%TD*%
M02*
