M48
; DRILL file {KiCad 7.0.1} date Sun Mar 26 22:59:02 2023
; FORMAT={-:-/ absolute / inch / decimal}
; #@! TF.CreationDate,2023-03-26T22:59:02-07:00
; #@! TF.GenerationSoftware,Kicad,Pcbnew,7.0.1
; #@! TF.FileFunction,NonPlated,1,2,NPTH
FMAT,2
INCH
; #@! TA.AperFunction,NonPlated,NPTH,ComponentDrill
T1C0.0256
; #@! TA.AperFunction,NonPlated,NPTH,ComponentDrill
T2C0.0689
; #@! TA.AperFunction,NonPlated,NPTH,ComponentDrill
T3C0.1200
; #@! TA.AperFunction,NonPlated,NPTH,ComponentDrill
T4C0.1570
%
G90
G05
T1
X7.5456Y-1.3627
X7.7732Y-1.3627
T2
X1.7685Y-2.7185
X1.8623Y-3.4685
X1.8623Y-4.9685
X2.0498Y-4.2185
X2.1685Y-2.7185
X2.2623Y-3.4685
X2.2623Y-4.9685
X2.4498Y-4.2185
X2.5185Y-1.9685
X2.5185Y-2.7185
X2.706Y-3.4685
X2.7998Y-4.9685
X2.9185Y-1.9685
X2.9185Y-2.7185
X3.081Y-4.2185
X3.106Y-3.4685
X3.1998Y-4.9685
X3.2685Y-1.9685
X3.2685Y-2.7185
X3.456Y-3.4685
X3.481Y-4.2185
X3.6685Y-1.9685
X3.6685Y-2.7185
X3.7373Y-4.9685
X3.831Y-4.2185
X3.856Y-3.4685
X4.0185Y-1.9685
X4.0185Y-2.7185
X4.1373Y-4.9685
X4.206Y-3.4685
X4.231Y-4.2185
X4.4185Y-1.9685
X4.4185Y-2.7185
X4.581Y-4.2185
X4.606Y-3.4685
X4.7685Y-1.9685
X4.7685Y-2.7185
X4.956Y-3.4685
X4.981Y-4.2185
X5.1685Y-1.9685
X5.1685Y-2.7185
X5.331Y-4.2185
X5.356Y-3.4685
X5.5185Y-1.9685
X5.5185Y-2.7185
X5.706Y-3.4685
X5.731Y-4.2185
X5.9185Y-1.9685
X5.9185Y-2.7185
X6.081Y-4.2185
X6.106Y-3.4685
X6.2685Y-1.9685
X6.2685Y-2.7185
X6.456Y-3.4685
X6.481Y-4.2185
X6.5498Y-4.9685
X6.6685Y-1.9685
X6.6685Y-2.7185
X6.831Y-4.2185
X6.856Y-3.4685
X6.9498Y-4.9685
X7.0185Y-2.7185
X7.206Y-3.4685
X7.231Y-4.2185
X7.4185Y-2.7185
X7.581Y-4.2185
X7.606Y-3.4685
X7.7685Y-2.7185
X7.956Y-3.4685
X7.981Y-4.2185
X8.1685Y-2.7185
X8.331Y-4.2185
X8.356Y-3.4685
X8.5185Y-1.781
X8.5185Y-2.7185
X8.706Y-3.4685
X8.731Y-4.2185
X8.9185Y-1.781
X8.9185Y-2.7185
X9.081Y-4.2185
X9.106Y-3.4685
X9.2685Y-1.781
X9.2685Y-2.7185
X9.2685Y-4.9685
X9.456Y-3.4685
X9.481Y-4.2185
X9.6685Y-1.781
X9.6685Y-2.7185
X9.6685Y-4.9685
X9.831Y-4.2185
X9.856Y-3.4685
X10.0185Y-1.781
X10.0185Y-2.7185
X10.0185Y-4.9685
X10.231Y-4.2185
X10.4185Y-1.781
X10.4185Y-2.7185
X10.4185Y-4.9685
X10.4873Y-3.4685
X10.6748Y-4.2185
X10.7685Y-1.781
X10.7685Y-2.7185
X10.7685Y-4.9685
X10.8873Y-3.4685
X11.0748Y-4.2185
X11.1685Y-1.781
X11.1685Y-2.7185
X11.1685Y-4.9685
X11.706Y-1.781
X11.706Y-2.531
X11.706Y-4.9685
X12.106Y-1.781
X12.106Y-2.531
X12.106Y-4.9685
X12.456Y-1.781
X12.456Y-2.531
X12.456Y-4.2185
X12.456Y-4.9685
X12.856Y-1.781
X12.856Y-2.531
X12.856Y-4.2185
X12.856Y-4.9685
X13.206Y-1.781
X13.206Y-2.531
X13.206Y-4.9685
X13.606Y-1.781
X13.606Y-2.531
X13.606Y-4.9685
T3
X4.781Y-5.2435
X8.7185Y-5.2435
T4
X1.9685Y-2.7185
X2.0623Y-3.4685
X2.0623Y-4.9685
X2.2498Y-4.2185
X2.7185Y-1.9685
X2.7185Y-2.7185
X2.906Y-3.4685
X2.9998Y-4.9685
X3.281Y-4.2185
X3.4685Y-1.9685
X3.4685Y-2.7185
X3.656Y-3.4685
X3.9373Y-4.9685
X4.031Y-4.2185
X4.2185Y-1.9685
X4.2185Y-2.7185
X4.406Y-3.4685
X4.781Y-4.2185
X4.781Y-4.6435
X4.9685Y-1.9685
X4.9685Y-2.7185
X5.156Y-3.4685
X5.531Y-4.2185
X5.7185Y-1.9685
X5.7185Y-2.7185
X5.906Y-3.4685
X6.281Y-4.2185
X6.4685Y-1.9685
X6.4685Y-2.7185
X6.656Y-3.4685
X6.7498Y-4.9685
X7.031Y-4.2185
X7.2185Y-2.7185
X7.406Y-3.4685
X7.781Y-4.2185
X7.9685Y-2.7185
X8.156Y-3.4685
X8.531Y-4.2185
X8.7185Y-1.781
X8.7185Y-2.7185
X8.7185Y-4.6435
X8.906Y-3.4685
X9.281Y-4.2185
X9.4685Y-1.781
X9.4685Y-2.7185
X9.4685Y-4.9685
X9.656Y-3.4685
X10.031Y-4.2185
X10.2185Y-1.781
X10.2185Y-2.7185
X10.2185Y-4.9685
X10.6873Y-3.4685
X10.8748Y-4.2185
X10.9685Y-1.781
X10.9685Y-2.7185
X10.9685Y-4.9685
X11.906Y-1.781
X11.906Y-2.531
X11.906Y-4.9685
X12.656Y-1.781
X12.656Y-2.531
X12.656Y-4.2185
X12.656Y-4.9685
X13.406Y-1.781
X13.406Y-2.531
X13.406Y-4.9685
T0
M30
