M48
; DRILL file {KiCad 7.0.9} date Wed Jan 10 17:03:39 2024
; FORMAT={-:-/ absolute / inch / decimal}
; #@! TF.CreationDate,2024-01-10T17:03:39-08:00
; #@! TF.GenerationSoftware,Kicad,Pcbnew,7.0.9
; #@! TF.FileFunction,Plated,1,2,PTH
FMAT,2
INCH
; #@! TA.AperFunction,Plated,PTH,ComponentDrill
T1C0.0138
; #@! TA.AperFunction,Plated,PTH,ViaDrill
T2C0.0157
; #@! TA.AperFunction,Plated,PTH,ComponentDrill
T3C0.0236
; #@! TA.AperFunction,Plated,PTH,ComponentDrill
T4C0.0394
; #@! TA.AperFunction,Plated,PTH,ComponentDrill
T5C0.0600
%
G90
G05
T1
X9.8873Y-1.6373
X9.8873Y-1.6875
X9.8873Y-1.7377
X9.9375Y-1.6373
X9.9375Y-1.6875
X9.9375Y-1.7377
X9.9877Y-1.6373
X9.9877Y-1.6875
X9.9877Y-1.7377
T2
X3.2362Y-2.4827
X5.4306Y0.6966
X5.4306Y0.6569
X5.4306Y0.6167
X5.4306Y0.2801
X5.4306Y0.1915
X5.4306Y0.1029
X5.4306Y0.0636
X5.4306Y0.0242
X5.5192Y0.5141
X5.5928Y0.3541
X5.6302Y0.4747
X5.6302Y0.1915
X5.6302Y-0.0152
X5.6625Y-2.596
X5.6893Y0.4747
X5.7483Y0.4747
X5.7483Y0.1915
X5.7483Y-0.0152
X5.7857Y0.3541
X5.8594Y0.5141
X5.9479Y0.6955
X5.9479Y0.6569
X5.9479Y0.6167
X5.9479Y0.2801
X5.9479Y0.1915
X5.9479Y0.1029
X5.9479Y0.0636
X5.9479Y0.0242
X9.0283Y-2.315
X9.122Y-0.815
X9.3397Y-0.8533
X9.3397Y-0.9321
X9.5285Y-0.8533
X9.5285Y-0.9321
X9.6206Y-1.4341
X9.6206Y-1.4734
X9.6206Y-1.5128
X9.6206Y-1.5522
X9.6206Y-1.7269
X9.6395Y-2.1208
X9.6788Y-2.1208
X9.7182Y-2.1208
X9.7371Y-1.5522
X9.7997Y-1.3314
X9.8106Y-2.1208
X9.8391Y-1.3314
X9.8784Y-1.2375
X9.8824Y-1.8661
X9.9178Y-1.2375
X9.9572Y-1.2375
X9.9966Y-1.2375
X10.0261Y-2.1208
X10.0359Y-1.3314
X10.0595Y-0.6275
X10.0753Y-1.3314
X10.1379Y-1.5522
X10.2544Y-1.5522
X10.2544Y-1.7269
X10.6875Y-0.9703
X10.6875Y-1.1223
X10.6875Y-1.1601
X10.8095Y-2.315
T4
X10.416Y-0.0906
X10.416Y-0.2875
X10.9868Y-0.0906
X10.9868Y-0.1891
X10.9868Y-0.2875
X11.3391Y0.4631
X11.3391Y-0.1078
X11.4375Y-0.1078
X11.5359Y0.4631
X11.5359Y-0.1078
T5
X-0.15Y-0.65
X-0.0563Y-1.4
X-0.0563Y-2.9
X0.1Y-0.55
X0.1313Y-2.15
X0.1938Y-1.3
X0.1938Y-2.8
X0.3812Y-2.05
X0.6Y0.1
X0.6Y-0.65
X0.7875Y-1.4
X0.85Y0.2
X0.85Y-0.55
X0.8812Y-2.9
X1.0375Y-1.3
X1.1312Y-2.8
X1.1625Y-2.15
X1.35Y0.1
X1.35Y-0.65
X1.4125Y-2.05
X1.5375Y-1.4
X1.6Y0.2
X1.6Y-0.55
X1.7875Y-1.3
X1.8187Y-2.9
X1.9125Y-2.15
X2.0688Y-2.8
X2.1Y0.1
X2.1Y-0.65
X2.1625Y-2.05
X2.2875Y-1.4
X2.35Y0.2
X2.35Y-0.55
X2.5375Y-1.3
X2.6625Y-2.15
X2.85Y0.1
X2.85Y-0.65
X2.9125Y-2.05
X3.0375Y-1.4
X3.1Y0.2
X3.1Y-0.55
X3.2875Y-1.3
X3.4125Y-2.15
X3.6Y0.1
X3.6Y-0.65
X3.6625Y-2.05
X3.7875Y-1.4
X3.85Y0.2
X3.85Y-0.55
X4.0375Y-1.3
X4.1625Y-2.15
X4.35Y0.1
X4.35Y-0.65
X4.4125Y-2.05
X4.5375Y-1.4
X4.6Y0.2
X4.6Y-0.55
X4.6312Y-2.9
X4.7875Y-1.3
X4.8812Y-2.8
X4.9125Y-2.15
X5.1Y-0.65
X5.1625Y-2.05
X5.2875Y-1.4
X5.35Y-0.55
X5.5375Y-1.3
X5.6625Y-2.15
X5.85Y-0.65
X5.9125Y-2.05
X6.0375Y-1.4
X6.1Y-0.55
X6.2875Y-1.3
X6.4125Y-2.15
X6.6Y0.2875
X6.6Y-0.65
X6.6625Y-2.05
X6.7875Y-1.4
X6.85Y0.3875
X6.85Y-0.55
X7.0375Y-1.3
X7.1625Y-2.15
X7.35Y0.2875
X7.35Y-0.65
X7.35Y-2.9
X7.4125Y-2.05
X7.5375Y-1.4
X7.6Y0.3875
X7.6Y-0.55
X7.6Y-2.8
X7.7875Y-1.3
X7.9125Y-2.15
X8.1Y0.2875
X8.1Y-0.65
X8.1Y-2.9
X8.1625Y-2.05
X8.35Y0.3875
X8.35Y-0.55
X8.35Y-2.8
X8.5687Y-1.4
X8.7562Y-2.15
X8.8187Y-1.3
X8.85Y0.2875
X8.85Y-0.65
X8.85Y-2.9
X9.0062Y-2.05
X9.1Y0.3875
X9.1Y-0.55
X9.1Y-2.8
X9.7875Y0.2875
X9.7875Y-0.4625
X9.7875Y-2.9
X10.0375Y0.3875
X10.0375Y-0.3625
X10.0375Y-2.8
X10.5375Y0.2875
X10.5375Y-0.4625
X10.5375Y-2.15
X10.5375Y-2.9
X10.7875Y0.3875
X10.7875Y-0.3625
X10.7875Y-2.05
X10.7875Y-2.8
X11.2875Y0.2875
X11.2875Y-0.4625
X11.2875Y-2.9
X11.5375Y0.3875
X11.5375Y-0.3625
X11.5375Y-2.8
T3
G00X5.5192Y0.7653
M15
G01X5.5192Y0.7417
M16
G05
G00X5.5192Y0.6106
M15
G01X5.5192Y0.5673
M16
G05
G00X5.8594Y0.7653
M15
G01X5.8594Y0.7417
M16
G05
G00X5.8594Y0.6106
M15
G01X5.8594Y0.5673
M16
G05
T0
M30
