%TF.GenerationSoftware,KiCad,Pcbnew,7.0.9*%
%TF.CreationDate,2024-01-10T17:03:39-08:00*%
%TF.ProjectId,40s-2040rmie,3430732d-3230-4343-9072-6d69652e6b69,rev?*%
%TF.SameCoordinates,Original*%
%TF.FileFunction,Legend,Top*%
%TF.FilePolarity,Positive*%
%FSLAX46Y46*%
G04 Gerber Fmt 4.6, Leading zero omitted, Abs format (unit mm)*
G04 Created by KiCad (PCBNEW 7.0.9) date 2024-01-10 17:03:39*
%MOMM*%
%LPD*%
G01*
G04 APERTURE LIST*
%ADD10C,0.200000*%
%ADD11C,1.750000*%
%ADD12C,3.987800*%
%ADD13C,3.048000*%
%ADD14C,0.650000*%
%ADD15O,1.000000X1.600000*%
%ADD16O,1.000000X2.100000*%
G04 APERTURE END LIST*
D10*
X288935118Y868331D02*
X288661308Y1344522D01*
X288363689Y868331D02*
X288488689Y1868331D01*
X288488689Y1868331D02*
X288869642Y1868331D01*
X288869642Y1868331D02*
X288958927Y1820712D01*
X288958927Y1820712D02*
X289000594Y1773093D01*
X289000594Y1773093D02*
X289036308Y1677855D01*
X289036308Y1677855D02*
X289018451Y1534998D01*
X289018451Y1534998D02*
X288958927Y1439760D01*
X288958927Y1439760D02*
X288905356Y1392141D01*
X288905356Y1392141D02*
X288804166Y1344522D01*
X288804166Y1344522D02*
X288423213Y1344522D01*
X289506547Y868331D02*
X289417261Y915950D01*
X289417261Y915950D02*
X289375594Y963570D01*
X289375594Y963570D02*
X289339880Y1058808D01*
X289339880Y1058808D02*
X289375594Y1344522D01*
X289375594Y1344522D02*
X289435118Y1439760D01*
X289435118Y1439760D02*
X289488689Y1487379D01*
X289488689Y1487379D02*
X289589880Y1534998D01*
X289589880Y1534998D02*
X289732737Y1534998D01*
X289732737Y1534998D02*
X289822023Y1487379D01*
X289822023Y1487379D02*
X289863689Y1439760D01*
X289863689Y1439760D02*
X289899404Y1344522D01*
X289899404Y1344522D02*
X289863689Y1058808D01*
X289863689Y1058808D02*
X289804166Y963570D01*
X289804166Y963570D02*
X289750594Y915950D01*
X289750594Y915950D02*
X289649404Y868331D01*
X289649404Y868331D02*
X289506547Y868331D01*
X290208928Y1534998D02*
X290589880Y1534998D01*
X290393451Y1868331D02*
X290286309Y1011189D01*
X290286309Y1011189D02*
X290322023Y915950D01*
X290322023Y915950D02*
X290411309Y868331D01*
X290411309Y868331D02*
X290506547Y868331D01*
X291268452Y868331D02*
X291333928Y1392141D01*
X291333928Y1392141D02*
X291298214Y1487379D01*
X291298214Y1487379D02*
X291208928Y1534998D01*
X291208928Y1534998D02*
X291018452Y1534998D01*
X291018452Y1534998D02*
X290917261Y1487379D01*
X291274404Y915950D02*
X291173214Y868331D01*
X291173214Y868331D02*
X290935118Y868331D01*
X290935118Y868331D02*
X290845833Y915950D01*
X290845833Y915950D02*
X290810118Y1011189D01*
X290810118Y1011189D02*
X290822023Y1106427D01*
X290822023Y1106427D02*
X290881547Y1201665D01*
X290881547Y1201665D02*
X290982738Y1249284D01*
X290982738Y1249284D02*
X291220833Y1249284D01*
X291220833Y1249284D02*
X291322023Y1296903D01*
X291744642Y868331D02*
X291827976Y1534998D01*
X291804166Y1344522D02*
X291863690Y1439760D01*
X291863690Y1439760D02*
X291917261Y1487379D01*
X291917261Y1487379D02*
X292018452Y1534998D01*
X292018452Y1534998D02*
X292113690Y1534998D01*
X292351786Y1534998D02*
X292506548Y868331D01*
X292827976Y1534998D02*
X292506548Y868331D01*
X292506548Y868331D02*
X292381548Y630236D01*
X292381548Y630236D02*
X292327976Y582617D01*
X292327976Y582617D02*
X292226786Y534998D01*
X287833928Y-217859D02*
X288167261Y-217859D01*
X288244642Y-741669D02*
X287768451Y-741669D01*
X287768451Y-741669D02*
X287893451Y258331D01*
X287893451Y258331D02*
X288369642Y258331D01*
X288756547Y-75002D02*
X288673213Y-741669D01*
X288744642Y-170240D02*
X288798213Y-122621D01*
X288798213Y-122621D02*
X288899404Y-75002D01*
X288899404Y-75002D02*
X289042261Y-75002D01*
X289042261Y-75002D02*
X289131547Y-122621D01*
X289131547Y-122621D02*
X289167261Y-217859D01*
X289167261Y-217859D02*
X289101785Y-741669D01*
X290012499Y-694050D02*
X289911309Y-741669D01*
X289911309Y-741669D02*
X289720833Y-741669D01*
X289720833Y-741669D02*
X289631547Y-694050D01*
X289631547Y-694050D02*
X289589880Y-646430D01*
X289589880Y-646430D02*
X289554166Y-551192D01*
X289554166Y-551192D02*
X289589880Y-265478D01*
X289589880Y-265478D02*
X289649404Y-170240D01*
X289649404Y-170240D02*
X289702975Y-122621D01*
X289702975Y-122621D02*
X289804166Y-75002D01*
X289804166Y-75002D02*
X289994642Y-75002D01*
X289994642Y-75002D02*
X290083928Y-122621D01*
X290577976Y-741669D02*
X290488690Y-694050D01*
X290488690Y-694050D02*
X290447023Y-646430D01*
X290447023Y-646430D02*
X290411309Y-551192D01*
X290411309Y-551192D02*
X290447023Y-265478D01*
X290447023Y-265478D02*
X290506547Y-170240D01*
X290506547Y-170240D02*
X290560118Y-122621D01*
X290560118Y-122621D02*
X290661309Y-75002D01*
X290661309Y-75002D02*
X290804166Y-75002D01*
X290804166Y-75002D02*
X290893452Y-122621D01*
X290893452Y-122621D02*
X290935118Y-170240D01*
X290935118Y-170240D02*
X290970833Y-265478D01*
X290970833Y-265478D02*
X290935118Y-551192D01*
X290935118Y-551192D02*
X290875595Y-646430D01*
X290875595Y-646430D02*
X290822023Y-694050D01*
X290822023Y-694050D02*
X290720833Y-741669D01*
X290720833Y-741669D02*
X290577976Y-741669D01*
X291768452Y-741669D02*
X291893452Y258331D01*
X291774404Y-694050D02*
X291673214Y-741669D01*
X291673214Y-741669D02*
X291482738Y-741669D01*
X291482738Y-741669D02*
X291393452Y-694050D01*
X291393452Y-694050D02*
X291351785Y-646430D01*
X291351785Y-646430D02*
X291316071Y-551192D01*
X291316071Y-551192D02*
X291351785Y-265478D01*
X291351785Y-265478D02*
X291411309Y-170240D01*
X291411309Y-170240D02*
X291464880Y-122621D01*
X291464880Y-122621D02*
X291566071Y-75002D01*
X291566071Y-75002D02*
X291756547Y-75002D01*
X291756547Y-75002D02*
X291845833Y-122621D01*
X292631547Y-694050D02*
X292530357Y-741669D01*
X292530357Y-741669D02*
X292339880Y-741669D01*
X292339880Y-741669D02*
X292250595Y-694050D01*
X292250595Y-694050D02*
X292214880Y-598811D01*
X292214880Y-598811D02*
X292262500Y-217859D01*
X292262500Y-217859D02*
X292322023Y-122621D01*
X292322023Y-122621D02*
X292423214Y-75002D01*
X292423214Y-75002D02*
X292613690Y-75002D01*
X292613690Y-75002D02*
X292702976Y-122621D01*
X292702976Y-122621D02*
X292738690Y-217859D01*
X292738690Y-217859D02*
X292726785Y-313097D01*
X292726785Y-313097D02*
X292238690Y-408335D01*
X293101785Y-741669D02*
X293185119Y-75002D01*
X293161309Y-265478D02*
X293220833Y-170240D01*
X293220833Y-170240D02*
X293274404Y-122621D01*
X293274404Y-122621D02*
X293375595Y-75002D01*
X293375595Y-75002D02*
X293470833Y-75002D01*
%LPC*%
D11*
%TO.C,MX3-2*%
X47307500Y-57150000D03*
D12*
X52387500Y-57150000D03*
D11*
X57467500Y-57150000D03*
%TD*%
%TO.C,MX3-14*%
X266382500Y-57150000D03*
D12*
X271462500Y-57150000D03*
D11*
X276542500Y-57150000D03*
%TD*%
%TO.C,MX0-9*%
X166370000Y4762500D03*
D12*
X171450000Y4762500D03*
D11*
X176530000Y4762500D03*
%TD*%
%TO.C,MX4-0*%
X-2698750Y-76200000D03*
D12*
X2381250Y-76200000D03*
D11*
X7461250Y-76200000D03*
%TD*%
%TO.C,MX2-10*%
X190182500Y-38100000D03*
D12*
X195262500Y-38100000D03*
D11*
X200342500Y-38100000D03*
%TD*%
%TO.C,MX1-7*%
X128270000Y-19050000D03*
D12*
X133350000Y-19050000D03*
D11*
X138430000Y-19050000D03*
%TD*%
%TO.C,MX0-15*%
X285432500Y4762500D03*
D12*
X290512500Y4762500D03*
D11*
X295592500Y4762500D03*
%TD*%
%TO.C,MX0-2*%
X33020000Y0D03*
D12*
X38100000Y0D03*
D11*
X43180000Y0D03*
%TD*%
%TO.C,MX0-14*%
X266382500Y4762500D03*
D12*
X271462500Y4762500D03*
D11*
X276542500Y4762500D03*
%TD*%
%TO.C,MX0-3*%
X52070000Y0D03*
D12*
X57150000Y0D03*
D11*
X62230000Y0D03*
%TD*%
%TO.C,MX0-10*%
X185420000Y4762500D03*
D12*
X190500000Y4762500D03*
D11*
X195580000Y4762500D03*
%TD*%
%TO.C,MX4-10*%
X204470000Y-76200000D03*
D12*
X209550000Y-76200000D03*
D11*
X214630000Y-76200000D03*
%TD*%
%TO.C,MX1-15*%
X285432500Y-14287500D03*
D12*
X290512500Y-14287500D03*
D11*
X295592500Y-14287500D03*
%TD*%
%TO.C,MX3-3*%
X66357500Y-57150000D03*
D12*
X71437500Y-57150000D03*
D11*
X76517500Y-57150000D03*
%TD*%
%TO.C,MX1-8*%
X147320000Y-19050000D03*
D12*
X152400000Y-19050000D03*
D11*
X157480000Y-19050000D03*
%TD*%
%TO.C,MX1-14*%
X266382500Y-14287500D03*
D12*
X271462500Y-14287500D03*
D11*
X276542500Y-14287500D03*
%TD*%
%TO.C,MX1-6*%
X109220000Y-19050000D03*
D12*
X114300000Y-19050000D03*
D11*
X119380000Y-19050000D03*
%TD*%
%TO.C,MX4-5*%
X116363750Y-76200000D03*
D12*
X121443750Y-76200000D03*
D11*
X126523750Y-76200000D03*
%TD*%
%TO.C,MX2-11*%
X216376250Y-38100000D03*
D12*
X221456250Y-38100000D03*
D11*
X226536250Y-38100000D03*
%TD*%
%TO.C,MX3-10*%
X199707500Y-57150000D03*
D12*
X204787500Y-57150000D03*
D11*
X209867500Y-57150000D03*
%TD*%
%TO.C,MX2-1*%
X18732500Y-38100000D03*
D12*
X23812500Y-38100000D03*
D11*
X28892500Y-38100000D03*
%TD*%
%TO.C,MX1-4*%
X71120000Y-19050000D03*
D12*
X76200000Y-19050000D03*
D11*
X81280000Y-19050000D03*
%TD*%
%TO.C,MX3-9*%
X180657500Y-57150000D03*
D12*
X185737500Y-57150000D03*
D11*
X190817500Y-57150000D03*
%TD*%
%TO.C,MX1-13*%
X247332500Y-14287500D03*
D12*
X252412500Y-14287500D03*
D11*
X257492500Y-14287500D03*
%TD*%
%TO.C,MX3-11*%
X221138750Y-57150000D03*
D12*
X226218750Y-57150000D03*
D11*
X231298750Y-57150000D03*
%TD*%
%TO.C,MX2-8*%
X152082500Y-38100000D03*
D12*
X157162500Y-38100000D03*
D11*
X162242500Y-38100000D03*
%TD*%
%TO.C,MX2-5*%
X94932500Y-38100000D03*
D12*
X100012500Y-38100000D03*
D11*
X105092500Y-38100000D03*
%TD*%
%TO.C,MX2-3*%
X56832500Y-38100000D03*
D12*
X61912500Y-38100000D03*
D11*
X66992500Y-38100000D03*
%TD*%
%TO.C,MX3-8*%
X161607500Y-57150000D03*
D12*
X166687500Y-57150000D03*
D11*
X171767500Y-57150000D03*
%TD*%
%TO.C,MX1-11*%
X204470000Y-19050000D03*
D12*
X209550000Y-19050000D03*
D11*
X214630000Y-19050000D03*
%TD*%
%TO.C,MX4-14*%
X266382500Y-76200000D03*
D12*
X271462500Y-76200000D03*
D11*
X276542500Y-76200000D03*
%TD*%
%TO.C,MX1-1*%
X13970000Y-19050000D03*
D12*
X19050000Y-19050000D03*
D11*
X24130000Y-19050000D03*
%TD*%
%TO.C,MX3-4*%
X85407500Y-57150000D03*
D12*
X90487500Y-57150000D03*
D11*
X95567500Y-57150000D03*
%TD*%
%TO.C,MX3-5*%
X104457500Y-57150000D03*
D12*
X109537500Y-57150000D03*
D11*
X114617500Y-57150000D03*
%TD*%
%TO.C,MX0-13*%
X247332500Y4762500D03*
D12*
X252412500Y4762500D03*
D11*
X257492500Y4762500D03*
%TD*%
%TO.C,MX1-12*%
X223520000Y-19050000D03*
D12*
X228600000Y-19050000D03*
D11*
X233680000Y-19050000D03*
%TD*%
%TO.C,MX1-2*%
X33020000Y-19050000D03*
D12*
X38100000Y-19050000D03*
D11*
X43180000Y-19050000D03*
%TD*%
%TO.C,MX1-10*%
X185420000Y-19050000D03*
D12*
X190500000Y-19050000D03*
D11*
X195580000Y-19050000D03*
%TD*%
%TO.C,MX1-3*%
X52070000Y-19050000D03*
D12*
X57150000Y-19050000D03*
D11*
X62230000Y-19050000D03*
%TD*%
%TO.C,MX4-13*%
X247332500Y-76200000D03*
D12*
X252412500Y-76200000D03*
D11*
X257492500Y-76200000D03*
%TD*%
%TO.C,MX1-5*%
X90170000Y-19050000D03*
D12*
X95250000Y-19050000D03*
D11*
X100330000Y-19050000D03*
%TD*%
%TO.C,MX2-6*%
X113982500Y-38100000D03*
D12*
X119062500Y-38100000D03*
D11*
X124142500Y-38100000D03*
%TD*%
%TO.C,MX2-7*%
X133032500Y-38100000D03*
D12*
X138112500Y-38100000D03*
D11*
X143192500Y-38100000D03*
%TD*%
%TO.C,MX2-9*%
X171132500Y-38100000D03*
D12*
X176212500Y-38100000D03*
D11*
X181292500Y-38100000D03*
%TD*%
%TO.C,MX4-2*%
X44926250Y-76200000D03*
D12*
X50006250Y-76200000D03*
D11*
X55086250Y-76200000D03*
%TD*%
%TO.C,MX4-11*%
X223520000Y-76200000D03*
D12*
X228600000Y-76200000D03*
D11*
X233680000Y-76200000D03*
%TD*%
%TO.C,MX4-1*%
X21113750Y-76200000D03*
D12*
X26193750Y-76200000D03*
D11*
X31273750Y-76200000D03*
%TD*%
%TO.C,MX0-5*%
X90170000Y0D03*
D12*
X95250000Y0D03*
D11*
X100330000Y0D03*
%TD*%
%TO.C,MX0-1*%
X13970000Y0D03*
D12*
X19050000Y0D03*
D11*
X24130000Y0D03*
%TD*%
%TO.C,MX3-1*%
X28257500Y-57150000D03*
D12*
X33337500Y-57150000D03*
D11*
X38417500Y-57150000D03*
%TD*%
%TO.C,MX3-7*%
X142557500Y-57150000D03*
D12*
X147637500Y-57150000D03*
D11*
X152717500Y-57150000D03*
%TD*%
%TO.C,MX0-6*%
X109220000Y0D03*
D12*
X114300000Y0D03*
D11*
X119380000Y0D03*
%TD*%
%TO.C,MX4-9*%
X185420000Y-76200000D03*
D12*
X190500000Y-76200000D03*
D11*
X195580000Y-76200000D03*
%TD*%
%TO.C,MX2-2*%
X37782500Y-38100000D03*
D12*
X42862500Y-38100000D03*
D11*
X47942500Y-38100000D03*
%TD*%
%TO.C,MX0-12*%
X223520000Y4762500D03*
D12*
X228600000Y4762500D03*
D11*
X233680000Y4762500D03*
%TD*%
%TO.C,MX1-9*%
X166370000Y-19050000D03*
D12*
X171450000Y-19050000D03*
D11*
X176530000Y-19050000D03*
%TD*%
%TO.C,MX2-4*%
X75882500Y-38100000D03*
D12*
X80962500Y-38100000D03*
D11*
X86042500Y-38100000D03*
%TD*%
%TO.C,MX4-15*%
X285432500Y-76200000D03*
D12*
X290512500Y-76200000D03*
D11*
X295592500Y-76200000D03*
%TD*%
%TO.C,MX1-0*%
X-5080000Y-19050000D03*
D12*
X0Y-19050000D03*
D11*
X5080000Y-19050000D03*
%TD*%
D13*
%TO.C,ST-0*%
X171450000Y-83185000D03*
D12*
X171450000Y-67945000D03*
D13*
X71437500Y-83185000D03*
D12*
X71437500Y-67945000D03*
%TD*%
D11*
%TO.C,MX2-0*%
X-2698750Y-38100000D03*
D12*
X2381250Y-38100000D03*
D11*
X7461250Y-38100000D03*
%TD*%
%TO.C,MX3-0*%
X2063750Y-57150000D03*
D12*
X7143750Y-57150000D03*
D11*
X12223750Y-57150000D03*
%TD*%
%TO.C,MX3-6*%
X123507500Y-57150000D03*
D12*
X128587500Y-57150000D03*
D11*
X133667500Y-57150000D03*
%TD*%
%TO.C,MX0-11*%
X204470000Y4762500D03*
D12*
X209550000Y4762500D03*
D11*
X214630000Y4762500D03*
%TD*%
%TO.C,MX0-4*%
X71120000Y0D03*
D12*
X76200000Y0D03*
D11*
X81280000Y0D03*
%TD*%
D14*
%TO.C,USB1*%
X141617750Y15489500D03*
X147397750Y15489500D03*
D15*
X140187750Y19139500D03*
D16*
X140187750Y14959500D03*
D15*
X148827750Y19139500D03*
D16*
X148827750Y14959500D03*
%TD*%
%LPD*%
M02*
