M48
; DRILL file {KiCad 7.0.9} date Wed Jan 10 17:03:39 2024
; FORMAT={-:-/ absolute / inch / decimal}
; #@! TF.CreationDate,2024-01-10T17:03:39-08:00
; #@! TF.GenerationSoftware,Kicad,Pcbnew,7.0.9
; #@! TF.FileFunction,NonPlated,1,2,NPTH
FMAT,2
INCH
; #@! TA.AperFunction,NonPlated,NPTH,ComponentDrill
T1C0.0256
; #@! TA.AperFunction,NonPlated,NPTH,ComponentDrill
T2C0.0689
; #@! TA.AperFunction,NonPlated,NPTH,ComponentDrill
T3C0.1200
; #@! TA.AperFunction,NonPlated,NPTH,ComponentDrill
T4C0.1570
%
G90
G05
T1
X5.5755Y0.6098
X5.8031Y0.6098
T2
X-0.2Y-0.75
X-0.1062Y-1.5
X-0.1062Y-3.0
X0.0813Y-2.25
X0.2Y-0.75
X0.2938Y-1.5
X0.2938Y-3.0
X0.4813Y-2.25
X0.55Y0.0
X0.55Y-0.75
X0.7375Y-1.5
X0.8312Y-3.0
X0.95Y0.0
X0.95Y-0.75
X1.1125Y-2.25
X1.1375Y-1.5
X1.2312Y-3.0
X1.3Y0.0
X1.3Y-0.75
X1.4875Y-1.5
X1.5125Y-2.25
X1.7Y0.0
X1.7Y-0.75
X1.7688Y-3.0
X1.8625Y-2.25
X1.8875Y-1.5
X2.05Y0.0
X2.05Y-0.75
X2.1687Y-3.0
X2.2375Y-1.5
X2.2625Y-2.25
X2.45Y0.0
X2.45Y-0.75
X2.6125Y-2.25
X2.6375Y-1.5
X2.8Y0.0
X2.8Y-0.75
X2.9875Y-1.5
X3.0125Y-2.25
X3.2Y0.0
X3.2Y-0.75
X3.3625Y-2.25
X3.3875Y-1.5
X3.55Y0.0
X3.55Y-0.75
X3.7375Y-1.5
X3.7625Y-2.25
X3.95Y0.0
X3.95Y-0.75
X4.1125Y-2.25
X4.1375Y-1.5
X4.3Y0.0
X4.3Y-0.75
X4.4875Y-1.5
X4.5125Y-2.25
X4.5812Y-3.0
X4.7Y0.0
X4.7Y-0.75
X4.8625Y-2.25
X4.8875Y-1.5
X4.9813Y-3.0
X5.05Y-0.75
X5.2375Y-1.5
X5.2625Y-2.25
X5.45Y-0.75
X5.6125Y-2.25
X5.6375Y-1.5
X5.8Y-0.75
X5.9875Y-1.5
X6.0125Y-2.25
X6.2Y-0.75
X6.3625Y-2.25
X6.3875Y-1.5
X6.55Y0.1875
X6.55Y-0.75
X6.7375Y-1.5
X6.7625Y-2.25
X6.95Y0.1875
X6.95Y-0.75
X7.1125Y-2.25
X7.1375Y-1.5
X7.3Y0.1875
X7.3Y-0.75
X7.3Y-3.0
X7.4875Y-1.5
X7.5125Y-2.25
X7.7Y0.1875
X7.7Y-0.75
X7.7Y-3.0
X7.8625Y-2.25
X7.8875Y-1.5
X8.05Y0.1875
X8.05Y-0.75
X8.05Y-3.0
X8.2625Y-2.25
X8.45Y0.1875
X8.45Y-0.75
X8.45Y-3.0
X8.5187Y-1.5
X8.7062Y-2.25
X8.8Y0.1875
X8.8Y-0.75
X8.8Y-3.0
X8.9187Y-1.5
X9.1062Y-2.25
X9.2Y0.1875
X9.2Y-0.75
X9.2Y-3.0
X9.7375Y0.1875
X9.7375Y-0.5625
X9.7375Y-3.0
X10.1375Y0.1875
X10.1375Y-0.5625
X10.1375Y-3.0
X10.4875Y0.1875
X10.4875Y-0.5625
X10.4875Y-2.25
X10.4875Y-3.0
X10.8875Y0.1875
X10.8875Y-0.5625
X10.8875Y-2.25
X10.8875Y-3.0
X11.2375Y0.1875
X11.2375Y-0.5625
X11.2375Y-3.0
X11.6375Y0.1875
X11.6375Y-0.5625
X11.6375Y-3.0
T3
X2.8125Y-3.275
X6.75Y-3.275
T4
X0.0Y-0.75
X0.0938Y-1.5
X0.0938Y-3.0
X0.2812Y-2.25
X0.75Y0.0
X0.75Y-0.75
X0.9375Y-1.5
X1.0312Y-3.0
X1.3125Y-2.25
X1.5Y0.0
X1.5Y-0.75
X1.6875Y-1.5
X1.9688Y-3.0
X2.0625Y-2.25
X2.25Y0.0
X2.25Y-0.75
X2.4375Y-1.5
X2.8125Y-2.25
X2.8125Y-2.675
X3.0Y0.0
X3.0Y-0.75
X3.1875Y-1.5
X3.5625Y-2.25
X3.75Y0.0
X3.75Y-0.75
X3.9375Y-1.5
X4.3125Y-2.25
X4.5Y0.0
X4.5Y-0.75
X4.6875Y-1.5
X4.7812Y-3.0
X5.0625Y-2.25
X5.25Y-0.75
X5.4375Y-1.5
X5.8125Y-2.25
X6.0Y-0.75
X6.1875Y-1.5
X6.5625Y-2.25
X6.75Y0.1875
X6.75Y-0.75
X6.75Y-2.675
X6.9375Y-1.5
X7.3125Y-2.25
X7.5Y0.1875
X7.5Y-0.75
X7.5Y-3.0
X7.6875Y-1.5
X8.0625Y-2.25
X8.25Y0.1875
X8.25Y-0.75
X8.25Y-3.0
X8.7188Y-1.5
X8.9062Y-2.25
X9.0Y0.1875
X9.0Y-0.75
X9.0Y-3.0
X9.9375Y0.1875
X9.9375Y-0.5625
X9.9375Y-3.0
X10.6875Y0.1875
X10.6875Y-0.5625
X10.6875Y-2.25
X10.6875Y-3.0
X11.4375Y0.1875
X11.4375Y-0.5625
X11.4375Y-3.0
T0
M30
