%TF.GenerationSoftware,KiCad,Pcbnew,7.0.9*%
%TF.CreationDate,2024-01-10T17:03:39-08:00*%
%TF.ProjectId,40s-2040rmie,3430732d-3230-4343-9072-6d69652e6b69,rev?*%
%TF.SameCoordinates,Original*%
%TF.FileFunction,Paste,Bot*%
%TF.FilePolarity,Positive*%
%FSLAX46Y46*%
G04 Gerber Fmt 4.6, Leading zero omitted, Abs format (unit mm)*
G04 Created by KiCad (PCBNEW 7.0.9) date 2024-01-10 17:03:39*
%MOMM*%
%LPD*%
G01*
G04 APERTURE LIST*
G04 Aperture macros list*
%AMRoundRect*
0 Rectangle with rounded corners*
0 $1 Rounding radius*
0 $2 $3 $4 $5 $6 $7 $8 $9 X,Y pos of 4 corners*
0 Add a 4 corners polygon primitive as box body*
4,1,4,$2,$3,$4,$5,$6,$7,$8,$9,$2,$3,0*
0 Add four circle primitives for the rounded corners*
1,1,$1+$1,$2,$3*
1,1,$1+$1,$4,$5*
1,1,$1+$1,$6,$7*
1,1,$1+$1,$8,$9*
0 Add four rect primitives between the rounded corners*
20,1,$1+$1,$2,$3,$4,$5,0*
20,1,$1+$1,$4,$5,$6,$7,0*
20,1,$1+$1,$6,$7,$8,$9,0*
20,1,$1+$1,$8,$9,$2,$3,0*%
G04 Aperture macros list end*
%ADD10RoundRect,0.140000X-0.140000X-0.170000X0.140000X-0.170000X0.140000X0.170000X-0.140000X0.170000X0*%
%ADD11R,1.200000X0.900000*%
%ADD12RoundRect,0.135000X0.185000X-0.135000X0.185000X0.135000X-0.185000X0.135000X-0.185000X-0.135000X0*%
%ADD13RoundRect,0.140000X0.140000X0.170000X-0.140000X0.170000X-0.140000X-0.170000X0.140000X-0.170000X0*%
%ADD14RoundRect,0.200000X-0.335876X-0.053033X-0.053033X-0.335876X0.335876X0.053033X0.053033X0.335876X0*%
%ADD15RoundRect,0.135000X-0.185000X0.135000X-0.185000X-0.135000X0.185000X-0.135000X0.185000X0.135000X0*%
%ADD16R,1.200000X1.400000*%
%ADD17RoundRect,0.140000X0.170000X-0.140000X0.170000X0.140000X-0.170000X0.140000X-0.170000X-0.140000X0*%
%ADD18RoundRect,0.140000X-0.170000X0.140000X-0.170000X-0.140000X0.170000X-0.140000X0.170000X0.140000X0*%
%ADD19RoundRect,0.150000X0.587500X0.150000X-0.587500X0.150000X-0.587500X-0.150000X0.587500X-0.150000X0*%
%ADD20RoundRect,0.250000X0.625000X-0.375000X0.625000X0.375000X-0.625000X0.375000X-0.625000X-0.375000X0*%
%ADD21RoundRect,0.150000X0.650000X0.150000X-0.650000X0.150000X-0.650000X-0.150000X0.650000X-0.150000X0*%
%ADD22R,0.600000X1.450000*%
%ADD23R,0.300000X1.450000*%
%ADD24RoundRect,0.250000X0.292217X0.292217X-0.292217X0.292217X-0.292217X-0.292217X0.292217X-0.292217X0*%
%ADD25RoundRect,0.050000X0.387500X0.050000X-0.387500X0.050000X-0.387500X-0.050000X0.387500X-0.050000X0*%
%ADD26RoundRect,0.050000X0.050000X0.387500X-0.050000X0.387500X-0.050000X-0.387500X0.050000X-0.387500X0*%
%ADD27RoundRect,0.275000X-1.125000X-0.275000X1.125000X-0.275000X1.125000X0.275000X-1.125000X0.275000X0*%
%ADD28RoundRect,0.150000X-0.475000X-0.150000X0.475000X-0.150000X0.475000X0.150000X-0.475000X0.150000X0*%
G04 APERTURE END LIST*
D10*
%TO.C,C17*%
X258502500Y-39425000D03*
X259462500Y-39425000D03*
%TD*%
D11*
%TO.C,D57*%
X29290000Y-79500000D03*
X29290000Y-76200000D03*
%TD*%
%TO.C,D41*%
X198362500Y-41400000D03*
X198362500Y-38100000D03*
%TD*%
D12*
%TO.C,R4*%
X250162500Y-51859375D03*
X250162500Y-50839375D03*
%TD*%
D13*
%TO.C,C11*%
X246322500Y-37425000D03*
X245362500Y-37425000D03*
%TD*%
D11*
%TO.C,D46*%
X74537500Y-60450000D03*
X74537500Y-57150000D03*
%TD*%
%TO.C,D34*%
X65012500Y-41400000D03*
X65012500Y-38100000D03*
%TD*%
%TO.C,D3*%
X41200000Y-3300000D03*
X41200000Y0D03*
%TD*%
D14*
%TO.C,R2*%
X245789466Y-32223808D03*
X246956192Y-33390534D03*
%TD*%
D10*
%TO.C,C19*%
X258502500Y-43862500D03*
X259462500Y-43862500D03*
%TD*%
D15*
%TO.C,R9*%
X245842500Y-51877500D03*
X245842500Y-52897500D03*
%TD*%
D16*
%TO.C,Y1*%
X251562500Y-53487500D03*
X251562500Y-51287500D03*
X253262500Y-51287500D03*
X253262500Y-53487500D03*
%TD*%
D13*
%TO.C,C7*%
X246322500Y-36425000D03*
X245362500Y-36425000D03*
%TD*%
D11*
%TO.C,D12*%
X255512500Y1462500D03*
X255512500Y4762500D03*
%TD*%
%TO.C,D5*%
X79300000Y-3300000D03*
X79300000Y0D03*
%TD*%
%TO.C,D48*%
X112637500Y-60450000D03*
X112637500Y-57150000D03*
%TD*%
D17*
%TO.C,C2*%
X250162500Y-53829375D03*
X250162500Y-52869375D03*
%TD*%
D11*
%TO.C,D65*%
X216693750Y-79500000D03*
X216693750Y-76200000D03*
%TD*%
%TO.C,D26*%
X206450000Y-22350000D03*
X206450000Y-19050000D03*
%TD*%
%TO.C,D39*%
X160262500Y-41400000D03*
X160262500Y-38100000D03*
%TD*%
%TO.C,D49*%
X131687500Y-60450000D03*
X131687500Y-57150000D03*
%TD*%
%TO.C,D10*%
X206450000Y1462500D03*
X206450000Y4762500D03*
%TD*%
D17*
%TO.C,C8*%
X252912500Y-33817500D03*
X252912500Y-32857500D03*
%TD*%
D11*
%TO.C,D43*%
X10243750Y-60450000D03*
X10243750Y-57150000D03*
%TD*%
%TO.C,D16*%
X22150000Y-22350000D03*
X22150000Y-19050000D03*
%TD*%
D18*
%TO.C,C20*%
X246842500Y-51907500D03*
X246842500Y-52867500D03*
%TD*%
D11*
%TO.C,D54*%
X229318750Y-60450000D03*
X229318750Y-57150000D03*
%TD*%
%TO.C,D58*%
X53110000Y-79500000D03*
X53110000Y-76200000D03*
%TD*%
D19*
%TO.C,U4*%
X150535250Y5814500D03*
X150535250Y3914500D03*
X148660250Y4864500D03*
%TD*%
D11*
%TO.C,D33*%
X45962500Y-41400000D03*
X45962500Y-38100000D03*
%TD*%
%TO.C,D7*%
X117400000Y-3300000D03*
X117400000Y0D03*
%TD*%
D14*
%TO.C,R3*%
X244728807Y-33284467D03*
X245895533Y-34451193D03*
%TD*%
D11*
%TO.C,D11*%
X231700000Y1462500D03*
X231700000Y4762500D03*
%TD*%
D20*
%TO.C,F1*%
X149597750Y8544500D03*
X149597750Y11344500D03*
%TD*%
D11*
%TO.C,D47*%
X93587500Y-60450000D03*
X93587500Y-57150000D03*
%TD*%
%TO.C,D22*%
X136450000Y-22350000D03*
X136450000Y-19050000D03*
%TD*%
%TO.C,D30*%
X293612500Y-17587500D03*
X293612500Y-14287500D03*
%TD*%
%TO.C,D37*%
X122162500Y-41400000D03*
X122162500Y-38100000D03*
%TD*%
%TO.C,D42*%
X224556250Y-41400000D03*
X224556250Y-38100000D03*
%TD*%
D10*
%TO.C,C10*%
X149117750Y1614500D03*
X150077750Y1614500D03*
%TD*%
D11*
%TO.C,D9*%
X193600000Y1462500D03*
X193600000Y4762500D03*
%TD*%
D18*
%TO.C,C9*%
X244842500Y-51907500D03*
X244842500Y-52867500D03*
%TD*%
D11*
%TO.C,D24*%
X174550000Y-22350000D03*
X174550000Y-19050000D03*
%TD*%
D21*
%TO.C,U3*%
X275062500Y-31432500D03*
X275062500Y-32702500D03*
X275062500Y-33972500D03*
X275062500Y-35242500D03*
X267862500Y-35242500D03*
X267862500Y-33972500D03*
X267862500Y-32702500D03*
X267862500Y-31432500D03*
%TD*%
D11*
%TO.C,D4*%
X60250000Y-3300000D03*
X60250000Y0D03*
%TD*%
D17*
%TO.C,C13*%
X251912500Y-33817500D03*
X251912500Y-32857500D03*
%TD*%
D18*
%TO.C,C4*%
X270462500Y-28506000D03*
X270462500Y-29466000D03*
%TD*%
D15*
%TO.C,R7*%
X150077750Y18684500D03*
X150077750Y17664500D03*
%TD*%
%TO.C,R8*%
X272462500Y-28476000D03*
X272462500Y-29496000D03*
%TD*%
D22*
%TO.C,USB1*%
X141257750Y14044500D03*
X142057750Y14044500D03*
D23*
X143257750Y14044500D03*
X144257750Y14044500D03*
X144757750Y14044500D03*
X145757750Y14044500D03*
D22*
X146957750Y14044500D03*
X147757750Y14044500D03*
X147757750Y14044500D03*
X146957750Y14044500D03*
D23*
X146257750Y14044500D03*
X145257750Y14044500D03*
X143757750Y14044500D03*
X142757750Y14044500D03*
D22*
X142057750Y14044500D03*
X141257750Y14044500D03*
%TD*%
D11*
%TO.C,D25*%
X193600000Y-22350000D03*
X193600000Y-19050000D03*
%TD*%
%TO.C,D18*%
X60250000Y-22350000D03*
X60250000Y-19050000D03*
%TD*%
%TO.C,D55*%
X274562500Y-60450000D03*
X274562500Y-57150000D03*
%TD*%
%TO.C,D40*%
X179312500Y-41400000D03*
X179312500Y-38100000D03*
%TD*%
D18*
%TO.C,C3*%
X138937750Y18654500D03*
X138937750Y17694500D03*
%TD*%
D17*
%TO.C,C14*%
X253912500Y-33817500D03*
X253912500Y-32857500D03*
%TD*%
D11*
%TO.C,D66*%
X255512500Y-79500000D03*
X255512500Y-76200000D03*
%TD*%
%TO.C,D52*%
X188837500Y-60450000D03*
X188837500Y-57150000D03*
%TD*%
%TO.C,D13*%
X274562500Y1462500D03*
X274562500Y4762500D03*
%TD*%
%TO.C,D8*%
X174550000Y1462500D03*
X174550000Y4762500D03*
%TD*%
%TO.C,D17*%
X41200000Y-22350000D03*
X41200000Y-19050000D03*
%TD*%
%TO.C,D50*%
X150737500Y-60450000D03*
X150737500Y-57150000D03*
%TD*%
%TO.C,D59*%
X124540000Y-79500000D03*
X124540000Y-76200000D03*
%TD*%
%TO.C,D68*%
X293612500Y-79500000D03*
X293612500Y-76200000D03*
%TD*%
%TO.C,D28*%
X255512500Y-17587500D03*
X255512500Y-14287500D03*
%TD*%
%TO.C,D31*%
X5481250Y-41400000D03*
X5481250Y-38100000D03*
%TD*%
%TO.C,D14*%
X293612500Y1462500D03*
X293612500Y4762500D03*
%TD*%
D17*
%TO.C,C1*%
X254662500Y-52867500D03*
X254662500Y-51907500D03*
%TD*%
D24*
%TO.C,U1*%
X253050000Y-43500000D03*
X253050000Y-42225000D03*
X251775000Y-43500000D03*
X251775000Y-42225000D03*
D25*
X255850000Y-40262500D03*
X255850000Y-40662500D03*
X255850000Y-41062500D03*
X255850000Y-41462500D03*
X255850000Y-41862500D03*
X255850000Y-42262500D03*
X255850000Y-42662500D03*
X255850000Y-43062500D03*
X255850000Y-43462500D03*
X255850000Y-43862500D03*
X255850000Y-44262500D03*
X255850000Y-44662500D03*
X255850000Y-45062500D03*
X255850000Y-45462500D03*
D26*
X255012500Y-46300000D03*
X254612500Y-46300000D03*
X254212500Y-46300000D03*
X253812500Y-46300000D03*
X253412500Y-46300000D03*
X253012500Y-46300000D03*
X252612500Y-46300000D03*
X252212500Y-46300000D03*
X251812500Y-46300000D03*
X251412500Y-46300000D03*
X251012500Y-46300000D03*
X250612500Y-46300000D03*
X250212500Y-46300000D03*
X249812500Y-46300000D03*
D25*
X248975000Y-45462500D03*
X248975000Y-45062500D03*
X248975000Y-44662500D03*
X248975000Y-44262500D03*
X248975000Y-43862500D03*
X248975000Y-43462500D03*
X248975000Y-43062500D03*
X248975000Y-42662500D03*
X248975000Y-42262500D03*
X248975000Y-41862500D03*
X248975000Y-41462500D03*
X248975000Y-41062500D03*
X248975000Y-40662500D03*
X248975000Y-40262500D03*
D26*
X249812500Y-39425000D03*
X250212500Y-39425000D03*
X250612500Y-39425000D03*
X251012500Y-39425000D03*
X251412500Y-39425000D03*
X251812500Y-39425000D03*
X252212500Y-39425000D03*
X252612500Y-39425000D03*
X253012500Y-39425000D03*
X253412500Y-39425000D03*
X253812500Y-39425000D03*
X254212500Y-39425000D03*
X254612500Y-39425000D03*
X255012500Y-39425000D03*
%TD*%
D10*
%TO.C,C6*%
X149117750Y2614500D03*
X150077750Y2614500D03*
%TD*%
D11*
%TO.C,D53*%
X207887500Y-60450000D03*
X207887500Y-57150000D03*
%TD*%
%TO.C,D35*%
X84062500Y-41400000D03*
X84062500Y-38100000D03*
%TD*%
D12*
%TO.C,R6*%
X150077750Y15664500D03*
X150077750Y16684500D03*
%TD*%
D11*
%TO.C,D36*%
X103112500Y-41400000D03*
X103112500Y-38100000D03*
%TD*%
%TO.C,D6*%
X98350000Y-3300000D03*
X98350000Y0D03*
%TD*%
%TO.C,D45*%
X55487500Y-60450000D03*
X55487500Y-57150000D03*
%TD*%
D13*
%TO.C,C16*%
X246322500Y-39425000D03*
X245362500Y-39425000D03*
%TD*%
D11*
%TO.C,D2*%
X22150000Y-3300000D03*
X22150000Y0D03*
%TD*%
D27*
%TO.C,Reset1*%
X267862500Y-26494500D03*
X275062500Y-26494500D03*
X267862500Y-22794500D03*
X275062500Y-22794500D03*
%TD*%
D11*
%TO.C,D19*%
X79300000Y-22350000D03*
X79300000Y-19050000D03*
%TD*%
%TO.C,D51*%
X169787500Y-60450000D03*
X169787500Y-57150000D03*
%TD*%
%TO.C,D38*%
X141212500Y-41400000D03*
X141212500Y-38100000D03*
%TD*%
D12*
%TO.C,R5*%
X138937750Y15664500D03*
X138937750Y16684500D03*
%TD*%
D10*
%TO.C,C5*%
X149117750Y7114500D03*
X150077750Y7114500D03*
%TD*%
D13*
%TO.C,C15*%
X246322500Y-38425000D03*
X245362500Y-38425000D03*
%TD*%
D11*
%TO.C,D27*%
X231700000Y-22350000D03*
X231700000Y-19050000D03*
%TD*%
%TO.C,D32*%
X26912500Y-41400000D03*
X26912500Y-38100000D03*
%TD*%
%TO.C,D67*%
X274562500Y-79500000D03*
X274562500Y-76200000D03*
%TD*%
%TO.C,D23*%
X155500000Y-22350000D03*
X155500000Y-19050000D03*
%TD*%
%TO.C,D56*%
X5480000Y-79500000D03*
X5480000Y-76200000D03*
%TD*%
%TO.C,D20*%
X98350000Y-22350000D03*
X98350000Y-19050000D03*
%TD*%
D28*
%TO.C,U2*%
X143332750Y8994500D03*
X143332750Y9944500D03*
X143332750Y10894500D03*
X145682750Y10894500D03*
X145682750Y9944500D03*
X145682750Y8994500D03*
%TD*%
D11*
%TO.C,D15*%
X3100000Y-22350000D03*
X3100000Y-19050000D03*
%TD*%
D13*
%TO.C,C18*%
X246322500Y-43862500D03*
X245362500Y-43862500D03*
%TD*%
D11*
%TO.C,D44*%
X36437500Y-60450000D03*
X36437500Y-57150000D03*
%TD*%
%TO.C,D63*%
X198044450Y-79500000D03*
X198044450Y-76200000D03*
%TD*%
D17*
%TO.C,C12*%
X250912500Y-33817500D03*
X250912500Y-32857500D03*
%TD*%
D11*
%TO.C,D29*%
X274562500Y-17587500D03*
X274562500Y-14287500D03*
%TD*%
%TO.C,D64*%
X212650000Y-79500000D03*
X212650000Y-76200000D03*
%TD*%
%TO.C,D21*%
X117400000Y-22350000D03*
X117400000Y-19050000D03*
%TD*%
M02*
