%TF.GenerationSoftware,KiCad,Pcbnew,7.0.9*%
%TF.CreationDate,2024-01-10T17:03:39-08:00*%
%TF.ProjectId,40s-2040rmie,3430732d-3230-4343-9072-6d69652e6b69,rev?*%
%TF.SameCoordinates,Original*%
%TF.FileFunction,Other,Comment*%
%FSLAX46Y46*%
G04 Gerber Fmt 4.6, Leading zero omitted, Abs format (unit mm)*
G04 Created by KiCad (PCBNEW 7.0.9) date 2024-01-10 17:03:39*
%MOMM*%
%LPD*%
G01*
G04 APERTURE LIST*
%ADD10C,0.150000*%
G04 APERTURE END LIST*
D10*
X155113393Y14195181D02*
X155732440Y14195181D01*
X155732440Y14195181D02*
X155399107Y13814229D01*
X155399107Y13814229D02*
X155541964Y13814229D01*
X155541964Y13814229D02*
X155637202Y13766610D01*
X155637202Y13766610D02*
X155684821Y13718991D01*
X155684821Y13718991D02*
X155732440Y13623753D01*
X155732440Y13623753D02*
X155732440Y13385658D01*
X155732440Y13385658D02*
X155684821Y13290420D01*
X155684821Y13290420D02*
X155637202Y13242800D01*
X155637202Y13242800D02*
X155541964Y13195181D01*
X155541964Y13195181D02*
X155256250Y13195181D01*
X155256250Y13195181D02*
X155161012Y13242800D01*
X155161012Y13242800D02*
X155113393Y13290420D01*
X156351488Y14195181D02*
X156446726Y14195181D01*
X156446726Y14195181D02*
X156541964Y14147562D01*
X156541964Y14147562D02*
X156589583Y14099943D01*
X156589583Y14099943D02*
X156637202Y14004705D01*
X156637202Y14004705D02*
X156684821Y13814229D01*
X156684821Y13814229D02*
X156684821Y13576134D01*
X156684821Y13576134D02*
X156637202Y13385658D01*
X156637202Y13385658D02*
X156589583Y13290420D01*
X156589583Y13290420D02*
X156541964Y13242800D01*
X156541964Y13242800D02*
X156446726Y13195181D01*
X156446726Y13195181D02*
X156351488Y13195181D01*
X156351488Y13195181D02*
X156256250Y13242800D01*
X156256250Y13242800D02*
X156208631Y13290420D01*
X156208631Y13290420D02*
X156161012Y13385658D01*
X156161012Y13385658D02*
X156113393Y13576134D01*
X156113393Y13576134D02*
X156113393Y13814229D01*
X156113393Y13814229D02*
X156161012Y14004705D01*
X156161012Y14004705D02*
X156208631Y14099943D01*
X156208631Y14099943D02*
X156256250Y14147562D01*
X156256250Y14147562D02*
X156351488Y14195181D01*
X157161012Y13195181D02*
X157351488Y13195181D01*
X157351488Y13195181D02*
X157446726Y13242800D01*
X157446726Y13242800D02*
X157494345Y13290420D01*
X157494345Y13290420D02*
X157589583Y13433277D01*
X157589583Y13433277D02*
X157637202Y13623753D01*
X157637202Y13623753D02*
X157637202Y14004705D01*
X157637202Y14004705D02*
X157589583Y14099943D01*
X157589583Y14099943D02*
X157541964Y14147562D01*
X157541964Y14147562D02*
X157446726Y14195181D01*
X157446726Y14195181D02*
X157256250Y14195181D01*
X157256250Y14195181D02*
X157161012Y14147562D01*
X157161012Y14147562D02*
X157113393Y14099943D01*
X157113393Y14099943D02*
X157065774Y14004705D01*
X157065774Y14004705D02*
X157065774Y13766610D01*
X157065774Y13766610D02*
X157113393Y13671372D01*
X157113393Y13671372D02*
X157161012Y13623753D01*
X157161012Y13623753D02*
X157256250Y13576134D01*
X157256250Y13576134D02*
X157446726Y13576134D01*
X157446726Y13576134D02*
X157541964Y13623753D01*
X157541964Y13623753D02*
X157589583Y13671372D01*
X157589583Y13671372D02*
X157637202Y13766610D01*
X158065774Y13290420D02*
X158113393Y13242800D01*
X158113393Y13242800D02*
X158065774Y13195181D01*
X158065774Y13195181D02*
X158018155Y13242800D01*
X158018155Y13242800D02*
X158065774Y13290420D01*
X158065774Y13290420D02*
X158065774Y13195181D01*
X159018154Y14195181D02*
X158541964Y14195181D01*
X158541964Y14195181D02*
X158494345Y13718991D01*
X158494345Y13718991D02*
X158541964Y13766610D01*
X158541964Y13766610D02*
X158637202Y13814229D01*
X158637202Y13814229D02*
X158875297Y13814229D01*
X158875297Y13814229D02*
X158970535Y13766610D01*
X158970535Y13766610D02*
X159018154Y13718991D01*
X159018154Y13718991D02*
X159065773Y13623753D01*
X159065773Y13623753D02*
X159065773Y13385658D01*
X159065773Y13385658D02*
X159018154Y13290420D01*
X159018154Y13290420D02*
X158970535Y13242800D01*
X158970535Y13242800D02*
X158875297Y13195181D01*
X158875297Y13195181D02*
X158637202Y13195181D01*
X158637202Y13195181D02*
X158541964Y13242800D01*
X158541964Y13242800D02*
X158494345Y13290420D01*
X159637202Y13766610D02*
X159541964Y13814229D01*
X159541964Y13814229D02*
X159494345Y13861848D01*
X159494345Y13861848D02*
X159446726Y13957086D01*
X159446726Y13957086D02*
X159446726Y14004705D01*
X159446726Y14004705D02*
X159494345Y14099943D01*
X159494345Y14099943D02*
X159541964Y14147562D01*
X159541964Y14147562D02*
X159637202Y14195181D01*
X159637202Y14195181D02*
X159827678Y14195181D01*
X159827678Y14195181D02*
X159922916Y14147562D01*
X159922916Y14147562D02*
X159970535Y14099943D01*
X159970535Y14099943D02*
X160018154Y14004705D01*
X160018154Y14004705D02*
X160018154Y13957086D01*
X160018154Y13957086D02*
X159970535Y13861848D01*
X159970535Y13861848D02*
X159922916Y13814229D01*
X159922916Y13814229D02*
X159827678Y13766610D01*
X159827678Y13766610D02*
X159637202Y13766610D01*
X159637202Y13766610D02*
X159541964Y13718991D01*
X159541964Y13718991D02*
X159494345Y13671372D01*
X159494345Y13671372D02*
X159446726Y13576134D01*
X159446726Y13576134D02*
X159446726Y13385658D01*
X159446726Y13385658D02*
X159494345Y13290420D01*
X159494345Y13290420D02*
X159541964Y13242800D01*
X159541964Y13242800D02*
X159637202Y13195181D01*
X159637202Y13195181D02*
X159827678Y13195181D01*
X159827678Y13195181D02*
X159922916Y13242800D01*
X159922916Y13242800D02*
X159970535Y13290420D01*
X159970535Y13290420D02*
X160018154Y13385658D01*
X160018154Y13385658D02*
X160018154Y13576134D01*
X160018154Y13576134D02*
X159970535Y13671372D01*
X159970535Y13671372D02*
X159922916Y13718991D01*
X159922916Y13718991D02*
X159827678Y13766610D01*
X160399107Y14099943D02*
X160446726Y14147562D01*
X160446726Y14147562D02*
X160541964Y14195181D01*
X160541964Y14195181D02*
X160780059Y14195181D01*
X160780059Y14195181D02*
X160875297Y14147562D01*
X160875297Y14147562D02*
X160922916Y14099943D01*
X160922916Y14099943D02*
X160970535Y14004705D01*
X160970535Y14004705D02*
X160970535Y13909467D01*
X160970535Y13909467D02*
X160922916Y13766610D01*
X160922916Y13766610D02*
X160351488Y13195181D01*
X160351488Y13195181D02*
X160970535Y13195181D01*
X161875297Y14195181D02*
X161399107Y14195181D01*
X161399107Y14195181D02*
X161351488Y13718991D01*
X161351488Y13718991D02*
X161399107Y13766610D01*
X161399107Y13766610D02*
X161494345Y13814229D01*
X161494345Y13814229D02*
X161732440Y13814229D01*
X161732440Y13814229D02*
X161827678Y13766610D01*
X161827678Y13766610D02*
X161875297Y13718991D01*
X161875297Y13718991D02*
X161922916Y13623753D01*
X161922916Y13623753D02*
X161922916Y13385658D01*
X161922916Y13385658D02*
X161875297Y13290420D01*
X161875297Y13290420D02*
X161827678Y13242800D01*
X161827678Y13242800D02*
X161732440Y13195181D01*
X161732440Y13195181D02*
X161494345Y13195181D01*
X161494345Y13195181D02*
X161399107Y13242800D01*
X161399107Y13242800D02*
X161351488Y13290420D01*
X163113393Y13195181D02*
X163113393Y13861848D01*
X163113393Y13766610D02*
X163161012Y13814229D01*
X163161012Y13814229D02*
X163256250Y13861848D01*
X163256250Y13861848D02*
X163399107Y13861848D01*
X163399107Y13861848D02*
X163494345Y13814229D01*
X163494345Y13814229D02*
X163541964Y13718991D01*
X163541964Y13718991D02*
X163541964Y13195181D01*
X163541964Y13718991D02*
X163589583Y13814229D01*
X163589583Y13814229D02*
X163684821Y13861848D01*
X163684821Y13861848D02*
X163827678Y13861848D01*
X163827678Y13861848D02*
X163922917Y13814229D01*
X163922917Y13814229D02*
X163970536Y13718991D01*
X163970536Y13718991D02*
X163970536Y13195181D01*
X164446726Y13195181D02*
X164446726Y13861848D01*
X164446726Y13766610D02*
X164494345Y13814229D01*
X164494345Y13814229D02*
X164589583Y13861848D01*
X164589583Y13861848D02*
X164732440Y13861848D01*
X164732440Y13861848D02*
X164827678Y13814229D01*
X164827678Y13814229D02*
X164875297Y13718991D01*
X164875297Y13718991D02*
X164875297Y13195181D01*
X164875297Y13718991D02*
X164922916Y13814229D01*
X164922916Y13814229D02*
X165018154Y13861848D01*
X165018154Y13861848D02*
X165161011Y13861848D01*
X165161011Y13861848D02*
X165256250Y13814229D01*
X165256250Y13814229D02*
X165303869Y13718991D01*
X165303869Y13718991D02*
X165303869Y13195181D01*
X5465000Y2797500D02*
X5465000Y13086420D01*
X315047500Y2797500D02*
X315047500Y13086420D01*
X5465000Y12500000D02*
X315047500Y12500000D01*
X5465000Y12500000D02*
X315047500Y12500000D01*
X5465000Y12500000D02*
X6591504Y13086421D01*
X5465000Y12500000D02*
X6591504Y11913579D01*
X315047500Y12500000D02*
X313920996Y11913579D01*
X315047500Y12500000D02*
X313920996Y13086421D01*
X321804819Y-55242559D02*
X321804819Y-55813987D01*
X321804819Y-55528273D02*
X320804819Y-55528273D01*
X320804819Y-55528273D02*
X320947676Y-55623511D01*
X320947676Y-55623511D02*
X321042914Y-55718749D01*
X321042914Y-55718749D02*
X321090533Y-55813987D01*
X321804819Y-54290178D02*
X321804819Y-54861606D01*
X321804819Y-54575892D02*
X320804819Y-54575892D01*
X320804819Y-54575892D02*
X320947676Y-54671130D01*
X320947676Y-54671130D02*
X321042914Y-54766368D01*
X321042914Y-54766368D02*
X321090533Y-54861606D01*
X320900057Y-53909225D02*
X320852438Y-53861606D01*
X320852438Y-53861606D02*
X320804819Y-53766368D01*
X320804819Y-53766368D02*
X320804819Y-53528273D01*
X320804819Y-53528273D02*
X320852438Y-53433035D01*
X320852438Y-53433035D02*
X320900057Y-53385416D01*
X320900057Y-53385416D02*
X320995295Y-53337797D01*
X320995295Y-53337797D02*
X321090533Y-53337797D01*
X321090533Y-53337797D02*
X321233390Y-53385416D01*
X321233390Y-53385416D02*
X321804819Y-53956844D01*
X321804819Y-53956844D02*
X321804819Y-53337797D01*
X321709580Y-52909225D02*
X321757200Y-52861606D01*
X321757200Y-52861606D02*
X321804819Y-52909225D01*
X321804819Y-52909225D02*
X321757200Y-52956844D01*
X321757200Y-52956844D02*
X321709580Y-52909225D01*
X321709580Y-52909225D02*
X321804819Y-52909225D01*
X320804819Y-52242559D02*
X320804819Y-52147321D01*
X320804819Y-52147321D02*
X320852438Y-52052083D01*
X320852438Y-52052083D02*
X320900057Y-52004464D01*
X320900057Y-52004464D02*
X320995295Y-51956845D01*
X320995295Y-51956845D02*
X321185771Y-51909226D01*
X321185771Y-51909226D02*
X321423866Y-51909226D01*
X321423866Y-51909226D02*
X321614342Y-51956845D01*
X321614342Y-51956845D02*
X321709580Y-52004464D01*
X321709580Y-52004464D02*
X321757200Y-52052083D01*
X321757200Y-52052083D02*
X321804819Y-52147321D01*
X321804819Y-52147321D02*
X321804819Y-52242559D01*
X321804819Y-52242559D02*
X321757200Y-52337797D01*
X321757200Y-52337797D02*
X321709580Y-52385416D01*
X321709580Y-52385416D02*
X321614342Y-52433035D01*
X321614342Y-52433035D02*
X321423866Y-52480654D01*
X321423866Y-52480654D02*
X321185771Y-52480654D01*
X321185771Y-52480654D02*
X320995295Y-52433035D01*
X320995295Y-52433035D02*
X320900057Y-52385416D01*
X320900057Y-52385416D02*
X320852438Y-52337797D01*
X320852438Y-52337797D02*
X320804819Y-52242559D01*
X320804819Y-51575892D02*
X320804819Y-50956845D01*
X320804819Y-50956845D02*
X321185771Y-51290178D01*
X321185771Y-51290178D02*
X321185771Y-51147321D01*
X321185771Y-51147321D02*
X321233390Y-51052083D01*
X321233390Y-51052083D02*
X321281009Y-51004464D01*
X321281009Y-51004464D02*
X321376247Y-50956845D01*
X321376247Y-50956845D02*
X321614342Y-50956845D01*
X321614342Y-50956845D02*
X321709580Y-51004464D01*
X321709580Y-51004464D02*
X321757200Y-51052083D01*
X321757200Y-51052083D02*
X321804819Y-51147321D01*
X321804819Y-51147321D02*
X321804819Y-51433035D01*
X321804819Y-51433035D02*
X321757200Y-51528273D01*
X321757200Y-51528273D02*
X321709580Y-51575892D01*
X320900057Y-50575892D02*
X320852438Y-50528273D01*
X320852438Y-50528273D02*
X320804819Y-50433035D01*
X320804819Y-50433035D02*
X320804819Y-50194940D01*
X320804819Y-50194940D02*
X320852438Y-50099702D01*
X320852438Y-50099702D02*
X320900057Y-50052083D01*
X320900057Y-50052083D02*
X320995295Y-50004464D01*
X320995295Y-50004464D02*
X321090533Y-50004464D01*
X321090533Y-50004464D02*
X321233390Y-50052083D01*
X321233390Y-50052083D02*
X321804819Y-50623511D01*
X321804819Y-50623511D02*
X321804819Y-50004464D01*
X320804819Y-49099702D02*
X320804819Y-49575892D01*
X320804819Y-49575892D02*
X321281009Y-49623511D01*
X321281009Y-49623511D02*
X321233390Y-49575892D01*
X321233390Y-49575892D02*
X321185771Y-49480654D01*
X321185771Y-49480654D02*
X321185771Y-49242559D01*
X321185771Y-49242559D02*
X321233390Y-49147321D01*
X321233390Y-49147321D02*
X321281009Y-49099702D01*
X321281009Y-49099702D02*
X321376247Y-49052083D01*
X321376247Y-49052083D02*
X321614342Y-49052083D01*
X321614342Y-49052083D02*
X321709580Y-49099702D01*
X321709580Y-49099702D02*
X321757200Y-49147321D01*
X321757200Y-49147321D02*
X321804819Y-49242559D01*
X321804819Y-49242559D02*
X321804819Y-49480654D01*
X321804819Y-49480654D02*
X321757200Y-49575892D01*
X321757200Y-49575892D02*
X321709580Y-49623511D01*
X321804819Y-47861606D02*
X321138152Y-47861606D01*
X321233390Y-47861606D02*
X321185771Y-47813987D01*
X321185771Y-47813987D02*
X321138152Y-47718749D01*
X321138152Y-47718749D02*
X321138152Y-47575892D01*
X321138152Y-47575892D02*
X321185771Y-47480654D01*
X321185771Y-47480654D02*
X321281009Y-47433035D01*
X321281009Y-47433035D02*
X321804819Y-47433035D01*
X321281009Y-47433035D02*
X321185771Y-47385416D01*
X321185771Y-47385416D02*
X321138152Y-47290178D01*
X321138152Y-47290178D02*
X321138152Y-47147321D01*
X321138152Y-47147321D02*
X321185771Y-47052082D01*
X321185771Y-47052082D02*
X321281009Y-47004463D01*
X321281009Y-47004463D02*
X321804819Y-47004463D01*
X321804819Y-46528273D02*
X321138152Y-46528273D01*
X321233390Y-46528273D02*
X321185771Y-46480654D01*
X321185771Y-46480654D02*
X321138152Y-46385416D01*
X321138152Y-46385416D02*
X321138152Y-46242559D01*
X321138152Y-46242559D02*
X321185771Y-46147321D01*
X321185771Y-46147321D02*
X321281009Y-46099702D01*
X321281009Y-46099702D02*
X321804819Y-46099702D01*
X321281009Y-46099702D02*
X321185771Y-46052083D01*
X321185771Y-46052083D02*
X321138152Y-45956845D01*
X321138152Y-45956845D02*
X321138152Y-45813988D01*
X321138152Y-45813988D02*
X321185771Y-45718749D01*
X321185771Y-45718749D02*
X321281009Y-45671130D01*
X321281009Y-45671130D02*
X321804819Y-45671130D01*
X312547500Y5297500D02*
X323086420Y5297500D01*
X312547500Y-106735000D02*
X323086420Y-106735000D01*
X322500000Y5297500D02*
X322500000Y-106735000D01*
X322500000Y5297500D02*
X322500000Y-106735000D01*
X322500000Y5297500D02*
X323086421Y4170996D01*
X322500000Y5297500D02*
X321913579Y4170996D01*
X322500000Y-106735000D02*
X321913579Y-105608496D01*
X322500000Y-106735000D02*
X323086421Y-105608496D01*
M02*
